<?xml version="1.0" encoding="UTF-8"?>
<svg version="1.1" xmlns="http://www.w3.org/2000/svg" width="152" height="152">
<path d="M0 0 C50.16 0 100.32 0 152 0 C152 50.16 152 100.32 152 152 C101.84 152 51.68 152 0 152 C0 101.84 0 51.68 0 0 Z " fill="#FEFEFE" transform="translate(0,0)"/>
<path d="M0 0 C5.28400036 1.57833777 9.32951604 1.35356874 14.6953125 -0.1015625 C22.97978972 -2.34764866 31.8411954 -2.12461216 39.65625 1.515625 C49.07364295 7.0534275 53.05373803 13.40781868 55.7578125 23.7734375 C56.68340212 35.34330771 56.40149586 47.44897873 49.0703125 57.0859375 C47.28639116 59.60953354 46.96874792 60.51647273 47.2890625 63.6484375 C48.29225669 67.42044766 49.60664184 70.95212205 51.12890625 74.54296875 C52.0078125 76.8984375 52.0078125 76.8984375 52.0078125 79.8984375 C50.6878125 79.8984375 49.3678125 79.8984375 48.0078125 79.8984375 C47.94722656 79.16238281 47.88664062 78.42632812 47.82421875 77.66796875 C47.69853516 76.20423828 47.69853516 76.20423828 47.5703125 74.7109375 C47.48910156 73.74800781 47.40789062 72.78507812 47.32421875 71.79296875 C47.03115099 69.11194148 46.58077496 66.5321389 46.0078125 63.8984375 C44.99074219 64.78595703 44.99074219 64.78595703 43.953125 65.69140625 C37.96780168 70.77312813 32.23953204 74.82557373 25.0078125 77.8984375 C24.21761719 78.26710938 23.42742187 78.63578125 22.61328125 79.015625 C15.35734839 81.47415697 6.47257619 80.06938082 -0.9921875 78.8984375 C-0.9921875 82.1984375 -0.9921875 85.4984375 -0.9921875 88.8984375 C-2.6421875 88.8984375 -4.2921875 88.8984375 -5.9921875 88.8984375 C-5.9921875 87.9084375 -5.9921875 86.9184375 -5.9921875 85.8984375 C-4.6721875 85.8984375 -3.3521875 85.8984375 -1.9921875 85.8984375 C-1.9921875 83.9184375 -1.9921875 81.9384375 -1.9921875 79.8984375 C-3.1059375 79.8159375 -4.2196875 79.7334375 -5.3671875 79.6484375 C-18.37422249 77.953859 -28.50710119 70.45102772 -36.3984375 60.328125 C-37.9921875 57.8984375 -37.9921875 57.8984375 -39.0234375 55.15625 C-39.343125 54.41117188 -39.6628125 53.66609375 -39.9921875 52.8984375 C-40.9821875 52.5684375 -41.9721875 52.2384375 -42.9921875 51.8984375 C-42.3321875 51.8984375 -41.6721875 51.8984375 -40.9921875 51.8984375 C-41.20367432 51.29837891 -41.41516113 50.69832031 -41.63305664 50.08007812 C-43.72240885 43.73659141 -44.50549774 38.06056789 -44.4296875 31.3984375 C-44.42356445 30.47861084 -44.41744141 29.55878418 -44.41113281 28.61108398 C-44.25917005 22.03284983 -43.4468721 16.61241411 -39.9921875 10.8984375 C-39.3940625 9.8053125 -38.7959375 8.7121875 -38.1796875 7.5859375 C-27.96476327 -4.96382656 -14.28955417 -4.76318472 0 0 Z " fill="#FD4216" transform="translate(73.9921875,41.1015625)"/>
<path d="M0 0 C4.88534995 2.07887232 6.77244395 5.30875122 9 10 C12.93313253 22.0212666 11.51026306 34.36751773 7 46 C5.515625 48.27734375 5.515625 48.27734375 4.0625 50.1875 C2.27857866 52.71109604 1.96093542 53.61803523 2.28125 56.75 C3.28444419 60.52201016 4.59882934 64.05368455 6.12109375 67.64453125 C7 70 7 70 7 73 C5.68 73 4.36 73 3 73 C2.93941406 72.26394531 2.87882812 71.52789062 2.81640625 70.76953125 C2.73261719 69.79371094 2.64882812 68.81789063 2.5625 67.8125 C2.48128906 66.84957031 2.40007812 65.88664062 2.31640625 64.89453125 C2.02333849 62.21350398 1.57296246 59.6337014 1 57 C0.32195312 57.59167969 -0.35609375 58.18335938 -1.0546875 58.79296875 C-7.04001082 63.87469063 -12.76828046 67.92713623 -20 71 C-20.79921875 71.36738281 -21.5984375 71.73476562 -22.421875 72.11328125 C-31.72684679 75.31362761 -43.48439805 72.47406282 -53 71 C-53 70.01 -53 69.02 -53 68 C-52.03175293 67.970271 -52.03175293 67.970271 -51.04394531 67.93994141 C-48.11222779 67.84453672 -45.18120768 67.73492029 -42.25 67.625 C-41.23421875 67.5940625 -40.2184375 67.563125 -39.171875 67.53125 C-38.1921875 67.49257812 -37.2125 67.45390625 -36.203125 67.4140625 C-35.30239258 67.3826416 -34.40166016 67.3512207 -33.47363281 67.31884766 C-30.87953893 66.98447274 -29.27587803 66.24379381 -27 65 C-25.865625 64.690625 -24.73125 64.38125 -23.5625 64.0625 C-19.43904588 62.83269789 -16.36424784 61.36424784 -13.3125 58.3125 C-12.879375 57.879375 -12.44625 57.44625 -12 57 C-11.34 57 -10.68 57 -10 57 C-9.896875 56.401875 -9.79375 55.80375 -9.6875 55.1875 C-9 53 -9 53 -7.5859375 51.6015625 C-3.55402017 47.52992184 -1.61308749 41.37695828 0 36 C0.66 36 1.32 36 2 36 C1.67 29.4 1.34 22.8 1 16 C0.01 15.67 -0.98 15.34 -2 15 C-2.495 11.535 -2.495 11.535 -3 8 C-2.01 7.67 -1.02 7.34 0 7 C0 4.69 0 2.38 0 0 Z " fill="#F02B0C" transform="translate(119,48)"/>
<path d="M0 0 C0 3.96 0 7.92 0 12 C-1.65 12.66 -3.3 13.32 -5 14 C-7.46128163 16.66638844 -8.85010985 18.55032955 -10 22 C-8.02 22.66 -6.04 23.32 -4 24 C-4 24.33 -4 24.66 -4 25 C-5.051875 25.07347656 -5.051875 25.07347656 -6.125 25.1484375 C-10.58156985 25.49963458 -14.87393898 25.84850378 -19.1875 27.0625 C-28.38656117 29.32456422 -35.2082558 27.00205899 -44 24 C-44 23.67 -44 23.34 -44 23 C-40.04 22.505 -40.04 22.505 -36 22 C-36 20.68 -36 19.36 -36 18 C-36.66 17.67 -37.32 17.34 -38 17 C-37.01 16.67 -36.02 16.34 -35 16 C-35.33 13.69 -35.66 11.38 -36 9 C-35.2575 9.226875 -34.515 9.45375 -33.75 9.6875 C-30.23452682 10.08698559 -29.69949569 9.12687539 -27 7 C-23.75 6.3125 -23.75 6.3125 -21 6 C-21 4.35 -21 2.7 -21 1 C-20.10796875 1.01160156 -19.2159375 1.02320312 -18.296875 1.03515625 C-16.54117188 1.04869141 -16.54117188 1.04869141 -14.75 1.0625 C-13.00976562 1.07990234 -13.00976562 1.07990234 -11.234375 1.09765625 C-7.33202326 0.97983162 -3.92444272 0 0 0 Z " fill="#F6F9F0" transform="translate(108,15)"/>
<path d="M0 0 C2.2621614 1.48669431 2.94793894 2.77657185 3.92578125 5.265625 C-2.69921875 6.265625 -2.69921875 6.265625 -6.07421875 6.265625 C-6.73421875 6.595625 -7.39421875 6.925625 -8.07421875 7.265625 C-10.01953125 6.92578125 -10.01953125 6.92578125 -12.19921875 6.328125 C-12.92367187 6.13347656 -13.648125 5.93882813 -14.39453125 5.73828125 C-14.94882813 5.58230469 -15.503125 5.42632812 -16.07421875 5.265625 C-16.07421875 4.605625 -16.07421875 3.945625 -16.07421875 3.265625 C-19.50484705 3.81594598 -19.50484705 3.81594598 -23.07421875 5.265625 C-23.49960938 6.26722656 -23.925 7.26882812 -24.36328125 8.30078125 C-24.92789063 9.27917969 -25.4925 10.25757813 -26.07421875 11.265625 C-29.359375 12.03515625 -29.359375 12.03515625 -33.13671875 12.078125 C-37.77084117 11.97556879 -37.77084117 11.97556879 -42.07421875 13.265625 C-44.07381887 13.305617 -46.07469117 13.30909299 -48.07421875 13.265625 C-48.69921875 11.390625 -48.69921875 11.390625 -49.07421875 9.265625 C-46.97639088 7.16779713 -45.69429805 6.6146854 -42.94921875 5.640625 C-42.22476563 5.38023438 -41.5003125 5.11984375 -40.75390625 4.8515625 C-39.92246094 4.56152344 -39.92246094 4.56152344 -39.07421875 4.265625 C-39.07421875 3.605625 -39.07421875 2.945625 -39.07421875 2.265625 C-40.06421875 1.935625 -41.05421875 1.605625 -42.07421875 1.265625 C-42.07421875 0.605625 -42.07421875 -0.054375 -42.07421875 -0.734375 C-41.22859375 -0.71117187 -40.38296875 -0.68796875 -39.51171875 -0.6640625 C-32.20642312 -0.4343967 -32.20642312 -0.4343967 -25.07421875 -1.734375 C-16.58263374 -4.20660861 -8.0790846 -3.33212654 0 0 Z " fill="#F32B0A" transform="translate(114.07421875,42.734375)"/>
<path d="M0 0 C-0.92896294 7.43170352 -4.37488475 13.24950318 -10.18359375 17.87890625 C-12.71675459 19.44238402 -15.0537073 19.8562784 -18 20 C-18 19.34 -18 18.68 -18 18 C-17.34 18 -16.68 18 -16 18 C-15.67 17.01 -15.34 16.02 -15 15 C-14.01 14.34 -13.02 13.68 -12 13 C-11.484375 12.29875 -10.96875 11.5975 -10.4375 10.875 C-9.963125 10.25625 -9.48875 9.6375 -9 9 C-8.34 9 -7.68 9 -7 9 C-7 8.34 -7 7.68 -7 7 C-7.61875 7.495 -8.2375 7.99 -8.875 8.5 C-11 10 -11 10 -13 10 C-13.268125 10.639375 -13.53625 11.27875 -13.8125 11.9375 C-15 14 -15 14 -18 15 C-18.33 14.67 -18.66 14.34 -19 14 C-19 15.98 -19 17.96 -19 20 C-20.32 19.67 -21.64 19.34 -23 19 C-23.33926347 15.43773359 -23.12670769 13.27645314 -21.625 10 C-15.91480886 3.47406726 -8.66315872 -0.2406433 0 0 Z " fill="#F2F8EC" transform="translate(106,17)"/>
<path d="M0 0 C0.33 0 0.66 0 1 0 C1.04898437 1.25554687 1.09796875 2.51109375 1.1484375 3.8046875 C1.39513191 21.06826796 1.39513191 21.06826796 9 36 C8 38 8 38 5 40 C3 34.25 3 34.25 3 32 C2.01 31.67 1.02 31.34 0 31 C-4.45999132 26.34256114 -7.27941339 21.17386959 -9 15 C-8.6875 12 -8.6875 12 -8 10 C-6.02 9.67 -4.04 9.34 -2 9 C-1.67 11.31 -1.34 13.62 -1 16 C-0.67 10.72 -0.34 5.44 0 0 Z " fill="#F6F3F2" transform="translate(29,64)"/>
<path d="M0 0 C0.66 0 1.32 0 2 0 C3.25531278 2.95481317 4.37123955 5.8454497 5 9 C4.505 9.78375 4.01 10.5675 3.5 11.375 C1.71009955 13.87784611 1.71009955 13.87784611 2.38671875 16.5703125 C3.42452239 20.3671551 4.5911351 24.02446269 6.11328125 27.65625 C7 30 7 30 7 33 C5.68 33 4.36 33 3 33 C2.93941406 32.26394531 2.87882812 31.52789062 2.81640625 30.76953125 C2.73261719 29.79371094 2.64882812 28.81789063 2.5625 27.8125 C2.48128906 26.84957031 2.40007812 25.88664062 2.31640625 24.89453125 C2.02333849 22.21350398 1.57296246 19.6337014 1 17 C0.2575 17.66 -0.485 18.32 -1.25 19 C-4 21 -4 21 -8 21 C-7.34 19.35 -6.68 17.7 -6 16 C-6.66 16 -7.32 16 -8 16 C-8.66 17.32 -9.32 18.64 -10 20 C-11 18 -11 18 -10.25 15.5625 C-9.0289712 13.05939096 -7.93030757 11.93030757 -6 10 C-5.484375 8.96875 -4.96875 7.9375 -4.4375 6.875 C-3 4 -3 4 -1 3 C-0.67 2.01 -0.34 1.02 0 0 Z " fill="#F12908" transform="translate(119,88)"/>
<path d="M0 0 C0.66 0 1.32 0 2 0 C2 0.66 2 1.32 2 2 C1.34 2 0.68 2 0 2 C0 2.66 0 3.32 0 4 C0.66 4.33 1.32 4.66 2 5 C2.59355614 7.64860427 2.74209269 10.29197322 3 13 C1.68 12.67 0.36 12.34 -1 12 C-2.32 16.62 -3.64 21.24 -5 26 C-6.65 26 -8.3 26 -10 26 C-10 25.01 -10 24.02 -10 23 C-10.66 23 -11.32 23 -12 23 C-11.56753507 15.07147624 -8.89991484 8.69918736 -3.25 3 C-2.5075 2.34 -1.765 1.68 -1 1 C-0.67 0.67 -0.34 0.34 0 0 Z " fill="#F64D29" transform="translate(42,43)"/>
<path d="M0 0 C5.15171623 -0.09038099 9.91913204 0.15318867 15 1 C15.87890625 7.15234375 15.87890625 7.15234375 16 9 C15 10 15 10 12.4375 10.0625 C11.633125 10.041875 10.82875 10.02125 10 10 C10 10.66 10 11.32 10 12 C8.68 12 7.36 12 6 12 C5.67 12.66 5.34 13.32 5 14 C3.66666667 13.33333333 2.33333333 12.66666667 1 12 C-0.66194453 11.64386903 -2.328451 11.30791692 -4 11 C-2.68 10.67 -1.36 10.34 0 10 C0 6.7 0 3.4 0 0 Z " fill="#F9FAF5" transform="translate(73,120)"/>
<path d="M0 0 C0 3 0 3 -2 6 C-2.16699232 9.12521833 -2.16699232 9.12521833 -2 12 C-1.01 12.33 -0.02 12.66 1 13 C0.67 10.36 0.34 7.72 0 5 C0.99 5.66 1.98 6.32 3 7 C3.66 6.67 4.32 6.34 5 6 C5.65772428 2.97065509 5.65772428 2.97065509 6 0 C6.33 0.99 6.66 1.98 7 3 C7.61875 2.505 8.2375 2.01 8.875 1.5 C11 0 11 0 13 0 C13 0.66 13 1.32 13 2 C11 3.625 11 3.625 9 5 C9.33 5.66 9.66 6.32 10 7 C9.195625 7.28875 8.39125 7.5775 7.5625 7.875 C4.8673532 8.73262568 4.8673532 8.73262568 4 11 C3.34 11 2.68 11 2 11 C2 11.66 2 12.32 2 13 C7.31522416 10.93899471 11.44815281 8.4371091 16 5 C14.47887873 8.87194504 12.4821972 10.75108097 9 13 C4.27280616 14.80047091 0.0776842 16 -5 16 C-5.51257038 9.59287031 -5.13597047 6.01329753 -1 1 C-0.67 0.67 -0.34 0.34 0 0 Z " fill="#B7D594" transform="translate(86,24)"/>
<path d="M0 0 C0.99 0.495 0.99 0.495 2 1 C2.625 4.0625 2.625 4.0625 3 7 C3.66 5.02 4.32 3.04 5 1 C5.33 1 5.66 1 6 1 C7.1073526 9.34773501 7.30579773 17.65424928 6 26 C5.34 26.66 4.68 27.32 4 28 C4.33 25.36 4.66 22.72 5 20 C4.34 20 3.68 20 3 20 C2.67 22.64 2.34 25.28 2 28 C1.34 28 0.68 28 0 28 C0.165 26.9275 0.33 25.855 0.5 24.75 C1.52630024 16.48095237 1.26476678 8.22098406 0 0 Z " fill="#F6F2EB" transform="translate(128,60)"/>
<path d="M0 0 C5.75 0.875 5.75 0.875 8 2 C8 2.66 8 3.32 8 4 C10.64 4.66 13.28 5.32 16 6 C16 6.99 16 7.98 16 9 C18.64 9 21.28 9 24 9 C23.67 12.63 23.34 16.26 23 20 C21.35 20 19.7 20 18 20 C18 19.01 18 18.02 18 17 C19.32 17 20.64 17 22 17 C22 15.02 22 13.04 22 11 C20.88625 10.9175 19.7725 10.835 18.625 10.75 C12.02660022 9.92813526 4.97200982 7.53866951 0 3 C0 2.01 0 1.02 0 0 Z " fill="#EE3012" transform="translate(50,110)"/>
<path d="M0 0 C2.64 0 5.28 0 8 0 C8 0.33 8 0.66 8 1 C5.69 1 3.38 1 1 1 C1.33 3.97 1.66 6.94 2 10 C3.98 9.67 5.96 9.34 8 9 C8 8.34 8 7.68 8 7 C9.98 6.67 11.96 6.34 14 6 C13.67 4.35 13.34 2.7 13 1 C13.66 1 14.32 1 15 1 C15.87890625 7.15234375 15.87890625 7.15234375 16 9 C15 10 15 10 12.4375 10.0625 C11.633125 10.041875 10.82875 10.02125 10 10 C10 10.66 10 11.32 10 12 C8.68 12 7.36 12 6 12 C5.67 12.66 5.34 13.32 5 14 C3.66666667 13.33333333 2.33333333 12.66666667 1 12 C-0.66194453 11.64386903 -2.328451 11.30791692 -4 11 C-2.68 10.67 -1.36 10.34 0 10 C0 6.7 0 3.4 0 0 Z " fill="#EBE1D7" transform="translate(73,120)"/>
<path d="M0 0 C0 0.66 0 1.32 0 2 C1.98 2.66 3.96 3.32 6 4 C6 4.33 6 4.66 6 5 C4.948125 5.07347656 4.948125 5.07347656 3.875 5.1484375 C-0.58156985 5.49963458 -4.87393898 5.84850378 -9.1875 7.0625 C-13.43081111 8.10593716 -16.65475445 8.29967211 -21 8 C-21.66 7.34 -22.32 6.68 -23 6 C-22.443125 5.96261719 -21.88625 5.92523438 -21.3125 5.88671875 C-14.82165014 5.32754081 -9.43909404 3.71954702 -3.625 0.8125 C-2 0 -2 0 0 0 Z " fill="#F4E8E0" transform="translate(98,35)"/>
<path d="M0 0 C0 3.96 0 7.92 0 12 C-1.98 12.66 -3.96 13.32 -6 14 C-4.87071041 9.88615934 -3.62114958 5.94388909 -2 2 C-8.40597465 3.50460615 -13.77863589 4.90757948 -19 9 C-19.66 8.67 -20.32 8.34 -21 8 C-15.15276302 2.70094149 -7.86507924 0 0 0 Z " fill="#BFD9A3" transform="translate(108,15)"/>
<path d="M0 0 C0.99 0.33 1.98 0.66 3 1 C2.67 1.99 2.34 2.98 2 4 C2.66 4 3.32 4 4 4 C4 4.99 4 5.98 4 7 C4.66 7 5.32 7 6 7 C8.27141454 12.39460953 8.20413361 17.26157749 8 23 C7.67 23 7.34 23 7 23 C6.67 20.69 6.34 18.38 6 16 C5.34 16 4.68 16 4 16 C4 15.01 4 14.02 4 13 C3.34 13 2.68 13 2 13 C-0.28571429 4.57142857 -0.28571429 4.57142857 0 0 Z " fill="#F2290A" transform="translate(119,48)"/>
<path d="M0 0 C5.53846154 0.61538462 5.53846154 0.61538462 7.875 2.5625 C8.431875 3.2740625 8.431875 3.2740625 9 4 C8.34 5.32 7.68 6.64 7 8 C4.03 7.01 1.06 6.02 -2 5 C-1.34 3.35 -0.68 1.7 0 0 Z " fill="#F42F06" transform="translate(90,51)"/>
<path d="M0 0 C0.0825 0.53625 0.165 1.0725 0.25 1.625 C1.26376098 4.8352431 3.07160549 7.26292392 5 10 C4 12 4 12 1 14 C-1 8.25 -1 8.25 -1 6 C-1.99 5.67 -2.98 5.34 -4 5 C-5.6875 2.4375 -5.6875 2.4375 -7 0 C-3.86650268 -1.04449911 -3.01031744 -0.93423645 0 0 Z " fill="#F5F0EB" transform="translate(33,90)"/>
<path d="M0 0 C0.9765625 6.0546875 0.9765625 6.0546875 1 8 C0.34 8.66 -0.32 9.32 -1 10 C-0.34 12.31 0.32 14.62 1 17 C-2.46221312 13.86844768 -3.8729993 10.48179349 -5 6 C-4.8125 3.0625 -4.8125 3.0625 -4 1 C-2 0 -2 0 0 0 Z " fill="#9A9694" transform="translate(25,73)"/>
<path d="M0 0 C0.78375 0.185625 1.5675 0.37125 2.375 0.5625 C4.97089775 1.25962266 4.97089775 1.25962266 7 0 C7.90594807 2.61718331 7.98235878 4.10143704 7.5 6.875 C6.96555333 10.21529171 7.29569414 12.71323933 8 16 C3.68971462 13.84485731 2.2688434 6.76620369 0.75 2.4375 C0.5025 1.633125 0.255 0.82875 0 0 Z " fill="#CADFAD" transform="translate(72,24)"/>
<path d="M0 0 C0.66 0 1.32 0 2 0 C1.34 1.65 0.68 3.3 0 5 C0.99 5.33 1.98 5.66 3 6 C-0.08809695 7.76462683 -1.23312136 8 -5 8 C-5.845625 8.515625 -6.69125 9.03125 -7.5625 9.5625 C-8.366875 10.036875 -9.17125 10.51125 -10 11 C-10.99 10.67 -11.98 10.34 -13 10 C-10.69 8.68 -8.38 7.36 -6 6 C-6 5.01 -6 4.02 -6 3 C-4.68 2.34 -3.36 1.68 -2 1 C-1.67 1.33 -1.34 1.66 -1 2 C-0.67 1.34 -0.34 0.68 0 0 Z " fill="#F32F13" transform="translate(111,104)"/>
<path d="M0 0 C0.99 0 1.98 0 3 0 C2.69128878 1.79232337 2.37790936 3.58384321 2.0625 5.375 C1.88847656 6.37273438 1.71445312 7.37046875 1.53515625 8.3984375 C1 11 1 11 0 13 C-0.99 13 -1.98 13 -3 13 C-2.88557539 11.39504433 -2.75805306 9.79101881 -2.625 8.1875 C-2.55539063 7.29417969 -2.48578125 6.40085937 -2.4140625 5.48046875 C-2 3 -2 3 0 0 Z " fill="#F4EAE1" transform="translate(37,55)"/>
<path d="M0 0 C1.09570312 0.19464844 2.19140625 0.38929687 3.3203125 0.58984375 C4.16335937 0.74582031 5.00640625 0.90179688 5.875 1.0625 C5.545 4.6925 5.215 8.3225 4.875 12.0625 C3.225 12.0625 1.575 12.0625 -0.125 12.0625 C-0.125 11.0725 -0.125 10.0825 -0.125 9.0625 C1.195 9.0625 2.515 9.0625 3.875 9.0625 C3.875 7.0825 3.875 5.1025 3.875 3.0625 C2.01875 2.876875 2.01875 2.876875 0.125 2.6875 C-3.0012197 2.30503695 -5.41379237 1.75700477 -8.125 0.0625 C-5.2144446 -1.3927777 -3.16650948 -0.57266661 0 0 Z " fill="#EA3920" transform="translate(68.125,117.9375)"/>
<path d="M0 0 C0.66 0 1.32 0 2 0 C2 0.66 2 1.32 2 2 C1.34 2 0.68 2 0 2 C0 2.66 0 3.32 0 4 C0.66 4.33 1.32 4.66 2 5 C1.67 6.32 1.34 7.64 1 9 C-0.32 9.33 -1.64 9.66 -3 10 C-3.33 9.01 -3.66 8.02 -4 7 C-4.66 6.67 -5.32 6.34 -6 6 C-4 4 -2 2 0 0 Z " fill="#F38569" transform="translate(42,43)"/>
<path d="M0 0 C0 1.98 0 3.96 0 6 C-1.32 6 -2.64 6 -4 6 C-4.33 6.99 -4.66 7.98 -5 9 C-5 8.01 -5 7.02 -5 6 C-5.99 5.67 -6.98 5.34 -8 5 C-8 4.01 -8 3.02 -8 2 C-4.91190305 0.23537317 -3.76687864 0 0 0 Z " fill="#F1F6EB" transform="translate(72,121)"/>
<path d="M0 0 C0.33 0.99 0.66 1.98 1 3 C1.61875 2.505 2.2375 2.01 2.875 1.5 C5 0 5 0 7 0 C7 0.66 7 1.32 7 2 C5 3.625 5 3.625 3 5 C3.33 5.66 3.66 6.32 4 7 C-0.455 8.485 -0.455 8.485 -5 10 C-5.33 8.35 -5.66 6.7 -6 5 C-4.515 5.99 -4.515 5.99 -3 7 C-2.34 6.67 -1.68 6.34 -1 6 C-0.34227572 2.97065509 -0.34227572 2.97065509 0 0 Z " fill="#A5CE7D" transform="translate(92,24)"/>
<path d="M0 0 C0.33 0 0.66 0 1 0 C1.33 7.92 1.66 15.84 2 24 C0.68 24 -0.64 24 -2 24 C-1.84660156 23.37738281 -1.69320313 22.75476563 -1.53515625 22.11328125 C-0.79669205 17.81725228 -0.63537838 13.53758048 -0.4375 9.1875 C-0.37272461 7.86202148 -0.37272461 7.86202148 -0.30664062 6.50976562 C-0.20108464 4.34000377 -0.10008929 2.1700209 0 0 Z " fill="#F4CFC0" transform="translate(29,64)"/>
<path d="M0 0 C0.80824219 0.38027344 1.61648437 0.76054688 2.44921875 1.15234375 C3.06410156 1.45269531 3.67898437 1.75304687 4.3125 2.0625 C3.714375 2.206875 3.11625 2.35125 2.5 2.5 C0.75099596 2.9497439 -0.97427023 3.49142341 -2.6875 4.0625 C-5.375 3.625 -5.375 3.625 -7.6875 3.0625 C-7.6875 1.7425 -7.6875 0.4225 -7.6875 -0.9375 C-4.04589192 -2.15136936 -3.35584531 -1.6049695 0 0 Z " fill="#F6F2ED" transform="translate(55.6875,115.9375)"/>
<path d="M0 0 C0.33 0.66 0.66 1.32 1 2 C1.99 2 2.98 2 4 2 C3.67 4.64 3.34 7.28 3 10 C3.99 10.33 4.98 10.66 6 11 C4.35 11 2.7 11 1 11 C1 10.01 1 9.02 1 8 C0.34 8 -0.32 8 -1 8 C-0.67 5.36 -0.34 2.72 0 0 Z " fill="#F6512B" transform="translate(31,58)"/>
<path d="M0 0 C0.99 0 1.98 0 3 0 C4.79682816 3.80504787 5.07349791 4.70600835 4 9 C0.7 8.34 -2.6 7.68 -6 7 C-6 6.67 -6 6.34 -6 6 C-3.36 5.67 -0.72 5.34 2 5 C2 3.68 2 2.36 2 1 C1.34 0.67 0.68 0.34 0 0 Z " fill="#F8F0E6" transform="translate(70,32)"/>
<path d="M0 0 C1.5 1.3125 1.5 1.3125 3 3 C3 3.99 3 4.98 3 6 C0 8.1875 0 8.1875 -3 10 C-3.75 8.375 -3.75 8.375 -4 6 C-2.0625 2.75 -2.0625 2.75 0 0 Z " fill="#F3E7E1" transform="translate(124,96)"/>
<path d="M0 0 C5.28 0 10.56 0 16 0 C11.20900104 2.39549948 7.27941663 3.30271856 2 4 C1.34 2.68 0.68 1.36 0 0 Z " fill="#E72602" transform="translate(78,44)"/>
<path d="M0 0 C4.29 0 8.58 0 13 0 C13.33 0.99 13.66 1.98 14 3 C9.38 3 4.76 3 0 3 C0 2.01 0 1.02 0 0 Z " fill="#F72E08" transform="translate(66,116)"/>
<path d="M0 0 C0.33 1.65 0.66 3.3 1 5 C-5.75 7.125 -5.75 7.125 -8 6 C-7.0479279 4.99403703 -6.08812654 3.99538437 -5.125 3 C-4.59132813 2.443125 -4.05765625 1.88625 -3.5078125 1.3125 C-2 0 -2 0 0 0 Z " fill="#F4EAE4" transform="translate(120,105)"/>
<path d="M0 0 C1.67542976 0.28604898 3.34385343 0.61781233 5 1 C5 2.32 5 3.64 5 5 C3.35 5.33 1.7 5.66 0 6 C-0.38218767 4.34385343 -0.71395102 2.67542976 -1 1 C-0.67 0.67 -0.34 0.34 0 0 Z " fill="#F98D74" transform="translate(88,89)"/>
<path d="M0 0 C6.0546875 -0.1953125 6.0546875 -0.1953125 8 0 C8.66 0.66 9.32 1.32 10 2 C9.01 2 8.02 2 7 2 C7 2.66 7 3.32 7 4 C5.02 4.33 3.04 4.66 1 5 C0.67 3.35 0.34 1.7 0 0 Z " fill="#FBFCFA" transform="translate(74,125)"/>
<path d="M0 0 C0.66 0 1.32 0 2 0 C2.64715133 2.0829243 3.29267166 4.16635539 3.9375 6.25 C4.47697266 7.99023438 4.47697266 7.99023438 5.02734375 9.765625 C5.75066637 12.17089058 6.42542411 14.55654044 7 17 C5.68 17 4.36 17 3 17 C2.92652344 15.91332031 2.92652344 15.91332031 2.8515625 14.8046875 C2.44793848 9.58541133 1.98724193 4.90186342 0 0 Z " fill="#686260" transform="translate(119,104)"/>
<path d="M0 0 C0.66 0.33 1.32 0.66 2 1 C2 2.98 2 4.96 2 7 C0.02 7.99 0.02 7.99 -2 9 C-2.6875 6.1875 -2.6875 6.1875 -3 3 C-1.5625 1.125 -1.5625 1.125 0 0 Z " fill="#F6F8F4" transform="translate(125,102)"/>
<path d="M0 0 C0.66 0.66 1.32 1.32 2 2 C2.33 1.34 2.66 0.68 3 0 C3.66 0 4.32 0 5 0 C4.25 7.75 4.25 7.75 2 10 C0.68373308 6.38026598 0 3.90432869 0 0 Z " fill="#E8240E" transform="translate(124,80)"/>
<path d="M0 0 C0.66 0.33 1.32 0.66 2 1 C1.6875 2.9375 1.6875 2.9375 1 5 C-1.88211302 5.96070434 -3.69850044 6.10581883 -6.6875 6.0625 C-7.89986328 6.04896484 -7.89986328 6.04896484 -9.13671875 6.03515625 C-10.05904297 6.01775391 -10.05904297 6.01775391 -11 6 C-8.66460191 4.44306794 -6.42031244 3.09799354 -3.9375 1.8125 C-2.89916016 1.26529297 -2.89916016 1.26529297 -1.83984375 0.70703125 C-1.23269531 0.47371094 -0.62554687 0.24039063 0 0 Z " fill="#F8E1DE" transform="translate(107,114)"/>
<path d="M0 0 C0.66 0 1.32 0 2 0 C2 2.31 2 4.62 2 7 C-0.31 6.67 -2.62 6.34 -5 6 C-4.67 4.68 -4.34 3.36 -4 2 C-3.01 2 -2.02 2 -1 2 C-0.67 1.34 -0.34 0.68 0 0 Z " fill="#BC3210" transform="translate(93,83)"/>
<path d="M0 0 C0.66 0 1.32 0 2 0 C2.87890625 6.15234375 2.87890625 6.15234375 3 8 C2 9 2 9 -0.5625 9.0625 C-1.366875 9.041875 -2.17125 9.02125 -3 9 C-2.34 7.68 -1.68 6.36 -1 5 C-0.34 5 0.32 5 1 5 C0.67 3.35 0.34 1.7 0 0 Z " fill="#869761" transform="translate(86,121)"/>
<path d="M0 0 C1.32 0 2.64 0 4 0 C3.979375 0.804375 3.95875 1.60875 3.9375 2.4375 C3.70366379 4.93354885 3.70366379 4.93354885 5 6 C5.04080783 7.99958364 5.04254356 10.00045254 5 12 C4.896875 11.360625 4.79375 10.72125 4.6875 10.0625 C4.460625 9.381875 4.23375 8.70125 4 8 C3.01 7.67 2.02 7.34 1 7 C0.67 4.69 0.34 2.38 0 0 Z " fill="#F9340A" transform="translate(116,56)"/>
<path d="M0 0 C3 1 3 1 5 3 C0.57117061 4.10720735 -3.46057302 4.22325051 -8 4 C-8.66 3.34 -9.32 2.68 -10 2 C-9.04287109 1.90912109 -9.04287109 1.90912109 -8.06640625 1.81640625 C-6.82697266 1.69072266 -6.82697266 1.69072266 -5.5625 1.5625 C-4.73878906 1.48128906 -3.91507812 1.40007813 -3.06640625 1.31640625 C-1.01337975 1.21069185 -1.01337975 1.21069185 0 0 Z " fill="#F4DACA" transform="translate(85,39)"/>
<path d="M0 0 C0.66 0.33 1.32 0.66 2 1 C-0.75170751 3.9555377 -3.41970299 6.11563315 -7 8 C-7.66 8 -8.32 8 -9 8 C-9 7.34 -9 6.68 -9 6 C-6.23003304 3.53780715 -3.48737556 1.32279763 0 0 Z " fill="#E72807" transform="translate(105,107)"/>
<path d="M0 0 C0.66 0.99 1.32 1.98 2 3 C1.125 6.1875 1.125 6.1875 0 9 C-1.37562854 7.71034824 -2.70766393 6.37310707 -4 5 C-4 4.34 -4 3.68 -4 3 C-4.99 2.67 -5.98 2.34 -7 2 C-4.69 2.33 -2.38 2.66 0 3 C0 2.01 0 1.02 0 0 Z " fill="#E34A25" transform="translate(38,91)"/>
<path d="M0 0 C1.67542976 0.28604898 3.34385343 0.61781233 5 1 C5 2.32 5 3.64 5 5 C3.35 5 1.7 5 0 5 C-0.5625 3.0625 -0.5625 3.0625 -1 1 C-0.67 0.67 -0.34 0.34 0 0 Z " fill="#F9937D" transform="translate(66,89)"/>
<path d="M0 0 C0.33 0 0.66 0 1 0 C3.27141454 5.39460953 3.20413361 10.26157749 3 16 C2.67 16 2.34 16 2 16 C1.67 13.69 1.34 11.38 1 9 C0.34 9 -0.32 9 -1 9 C-1.33 7.35 -1.66 5.7 -2 4 C-1.34 4 -0.68 4 0 4 C0 2.68 0 1.36 0 0 Z " fill="#E42603" transform="translate(124,55)"/>
<path d="M0 0 C0.804375 0.33 1.60875 0.66 2.4375 1 C5.05605906 2.33657887 5.05605906 2.33657887 8 1 C7.67 2.65 7.34 4.3 7 6 C3.54074837 4.7508258 0.85306797 3.32472205 -2 1 C-1.34 0.67 -0.68 0.34 0 0 Z " fill="#F9E5E1" transform="translate(112,40)"/>
<path d="M0 0 C0.66 0.99 1.32 1.98 2 3 C-2.625 6 -2.625 6 -6 6 C-6 5.34 -6 4.68 -6 4 C-5.34 4 -4.68 4 -4 4 C-3.67 3.01 -3.34 2.02 -3 1 C-2.01 0.67 -1.02 0.34 0 0 Z " fill="#F4FAEF" transform="translate(94,31)"/>
<path d="M0 0 C1.65 0 3.3 0 5 0 C5 1.65 5 3.3 5 5 C3.35 4.67 1.7 4.34 0 4 C0 2.68 0 1.36 0 0 Z " fill="#A42E17" transform="translate(65,83)"/>
<path d="M0 0 C-0.25561323 2.3431213 -0.59270772 4.67843403 -1 7 C-1.99 7.495 -1.99 7.495 -3 8 C-3 6.68 -3 5.36 -3 4 C-3.99 3.67 -4.98 3.34 -6 3 C-3.375 0 -3.375 0 0 0 Z " fill="#F43E0C" transform="translate(47,44)"/>
<path d="M0 0 C-0.66 0 -1.32 0 -2 0 C-2 2.31 -2 4.62 -2 7 C-2.99 7 -3.98 7 -5 7 C-5.33 4.69 -5.66 2.38 -6 0 C-3.50907189 -1.24546405 -2.58919267 -0.7767578 0 0 Z " fill="#F43413" transform="translate(96,114)"/>
<path d="M0 0 C0.66 0 1.32 0 2 0 C2.33 1.98 2.66 3.96 3 6 C2.34 6 1.68 6 1 6 C1 8.64 1 11.28 1 14 C0.67 14 0.34 14 0 14 C0 9.38 0 4.76 0 0 Z " fill="#F73B08" transform="translate(30,66)"/>
<path d="M0 0 C1.32 0 2.64 0 4 0 C4.33 1.65 4.66 3.3 5 5 C4.01 5.33 3.02 5.66 2 6 C-0.1875 4.5625 -0.1875 4.5625 -2 3 C-0.68 3 0.64 3 2 3 C2 2.34 2 1.68 2 1 C1.34 0.67 0.68 0.34 0 0 Z " fill="#F3ECE6" transform="translate(82,121)"/>
<path d="M0 0 C0.33 0 0.66 0 1 0 C1 2.97 1 5.94 1 9 C-0.65 9 -2.3 9 -4 9 C-4 8.01 -4 7.02 -4 6 C-2.68 6 -1.36 6 0 6 C0 4.02 0 2.04 0 0 Z " fill="#718850" transform="translate(72,121)"/>
<path d="M0 0 C0 0.99 0 1.98 0 3 C-2.64 3.66 -5.28 4.32 -8 5 C-8 3.68 -8 2.36 -8 1 C-2.25 0 -2.25 0 0 0 Z " fill="#F4EBDE" transform="translate(96,120)"/>
<path d="M0 0 C1.32 0 2.64 0 4 0 C4 0.66 4 1.32 4 2 C1 4 1 4 -2 4 C-2 3.34 -2 2.68 -2 2 C-1.34 2 -0.68 2 0 2 C0 1.34 0 0.68 0 0 Z M-4 3 C-3.34 3.66 -2.68 4.32 -2 5 C-2.66 5.66 -3.32 6.32 -4 7 C-4.33 6.34 -4.66 5.68 -5 5 C-4.67 4.34 -4.34 3.68 -4 3 Z " fill="#F94B23" transform="translate(43,96)"/>
<path d="M0 0 C1.04449911 3.13349732 0.93423645 3.98968256 0 7 C-0.99 7 -1.98 7 -3 7 C-2.625 4.0625 -2.625 4.0625 -2 1 C-1.34 0.67 -0.68 0.34 0 0 Z " fill="#F54016" transform="translate(35,53)"/>
<path d="M0 0 C0.99 0 1.98 0 3 0 C2.67 2.31 2.34 4.62 2 7 C1.67 6.01 1.34 5.02 1 4 C0.01 4.33 -0.98 4.66 -2 5 C-1.34 3.35 -0.68 1.7 0 0 Z " fill="#F7D0C1" transform="translate(37,55)"/>
<path d="M0 0 C0 0.99 0 1.98 0 3 C-2.375 3.1875 -2.375 3.1875 -5 3 C-5.66 2.01 -6.32 1.02 -7 0 C-3.86650268 -1.04449911 -3.01031744 -0.93423645 0 0 Z " fill="#C3BBB2" transform="translate(33,90)"/>
<path d="M0 0 C2 3 2 3 2 6 C0.68 6.33 -0.64 6.66 -2 7 C-2.33 6.01 -2.66 5.02 -3 4 C-2.34 4 -1.68 4 -1 4 C-0.67 2.68 -0.34 1.36 0 0 Z " fill="#F5461B" transform="translate(38,65)"/>
<path d="M0 0 C0.98120464 3.05263664 0.98120464 4.94736336 0 8 C-1.98 4.535 -1.98 4.535 -4 1 C-2.68 0.67 -1.36 0.34 0 0 Z " fill="#F8E3E2" transform="translate(126,48)"/>
</svg>
