<?xml version="1.0" encoding="UTF-8"?>
<svg version="1.1" xmlns="http://www.w3.org/2000/svg" width="225" height="225">
<path d="M0 0 C74.25 0 148.5 0 225 0 C225 74.25 225 148.5 225 225 C150.75 225 76.5 225 0 225 C0 150.75 0 76.5 0 0 Z " fill="#F5F5F5" transform="translate(0,0)"/>
<path d="M0 0 C1.2684375 0.8971875 1.2684375 0.8971875 2.5625 1.8125 C4.86541611 3.35687265 7.12700641 4.56266755 9.6875 5.625 C13 7 13 7 16 9 C16 6.69 16 4.38 16 2 C20.8 4.46153846 20.8 4.46153846 21.8125 7.1875 C21.874375 7.785625 21.93625 8.38375 22 9 C26.22104999 6.27809315 26.22104999 6.27809315 30 3 C30 5.66666667 30 8.33333333 30 11 C28.2092015 11.50310058 26.41733089 12.00238628 24.625 12.5 C23.62726563 12.7784375 22.62953125 13.056875 21.6015625 13.34375 C19 14 19 14 17 14 C15.08910369 21.2527201 13.3951087 28.5444641 11.8125 35.875 C11.63364258 36.68300049 11.45478516 37.49100098 11.27050781 38.32348633 C9.44287881 46.24768696 9.44287881 46.24768696 11.5 53.875 C11.995 54.57625 12.49 55.2775 13 56 C13.02578125 55.0821875 13.0515625 54.164375 13.078125 53.21875 C13.58863738 42.1731185 15.41884035 36.12983883 23.21875 28.34765625 C25.15272812 26.88444912 26.6296856 26.41064657 29 26 C32.14133236 35.42399709 30.01226896 45.22316165 26 54 C31.63371371 50.63807926 35.10449417 46.54130621 39.11914062 41.42578125 C40.35264651 39.8999016 41.67113913 38.44359768 43 37 C43.99 37 44.98 37 46 37 C45.43410156 37.62648437 44.86820312 38.25296875 44.28515625 38.8984375 C43.55167969 39.71570313 42.81820312 40.53296875 42.0625 41.375 C40.96615234 42.59316406 40.96615234 42.59316406 39.84765625 43.8359375 C37.97010529 45.85924167 37.97010529 45.85924167 37 48 C37.92941406 47.89300781 38.85882813 47.78601563 39.81640625 47.67578125 C52.09490334 46.48506151 52.09490334 46.48506151 58 50 C55.97951589 56.04040561 52.15066715 59.41557203 47 63 C44.42775717 64.06644812 41.97280968 64.8097601 39.26171875 65.4296875 C36.95640667 66.01099245 35.0819054 66.86614763 33 68 C33.721875 68.226875 34.44375 68.45375 35.1875 68.6875 C38.60861306 70.28401943 40.46393673 72.21033041 43 75 C44.3303125 76.423125 44.3303125 76.423125 45.6875 77.875 C48.28631973 81.38691856 49.07433594 83.7924361 50 88 C43.02330843 88.39325819 37.48343811 87.63096039 31 85 C30.71125 85.61875 30.4225 86.2375 30.125 86.875 C29 89 29 89 27 91 C27.66 91.33 28.32 91.66 29 92 C29.60574496 98.966067 27.86536547 105.47070839 23.3984375 110.97265625 C21.99444377 112.37997698 20.50448914 113.70066847 19 115 C20.98 115.495 20.98 115.495 23 116 C20.36 117.32 17.72 118.64 15 120 C16.36125 120.391875 17.7225 120.78375 19.125 121.1875 C23.71066779 122.69432291 26.51863858 124.69716993 30 128 C26.73035582 131.41826437 24.73777041 132.20002552 20 132.375 C14.43271342 132.375 10.86703523 130.8101142 6.19140625 127.8984375 C4.03063949 126.73994317 4.03063949 126.73994317 1.859375 127.671875 C-0.26170447 129.06067499 -0.26170447 129.06067499 -2.3125 131.875 C-4.99988812 135.19758895 -7.90594956 137.64052523 -12 139 C-15.36456963 139.30497561 -18.63334373 139.24386243 -22 139 C-21.58161621 134.25831701 -19.49853288 131.0994284 -16 128 C-13.41823669 126.44616097 -10.7746745 125.17045822 -8 124 C-8.76183594 123.85304688 -9.52367187 123.70609375 -10.30859375 123.5546875 C-19.91884384 121.46706763 -26.8666133 118.50837187 -32.5625 110.25 C-35 106.36585366 -35 106.36585366 -35 104 C-23.20529582 103.05781949 -15.74253673 105.50497551 -6 112 C-6.27714844 111.46890625 -6.55429688 110.9378125 -6.83984375 110.390625 C-7.38318359 109.33101562 -7.38318359 109.33101562 -7.9375 108.25 C-8.47697266 107.20585937 -8.47697266 107.20585937 -9.02734375 106.140625 C-10.70885452 102.43995069 -11.12205095 99.29946487 -11.0625 95.25 C-11.05347656 94.45078125 -11.04445312 93.6515625 -11.03515625 92.828125 C-11.02355469 92.22484375 -11.01195312 91.6215625 -11 91 C-11.99 91.99 -12.98 92.98 -14 94 C-16.46800047 92.84826645 -18.04783565 91.95216435 -20 90 C-21.98821313 89.60235737 -23.98944339 89.26224651 -26 89 C-25.01 87.515 -25.01 87.515 -24 86 C-23.34 86 -22.68 86 -22 86 C-22.99 81.05 -22.99 81.05 -24 76 C-24.36351562 76.73605469 -24.72703125 77.47210938 -25.1015625 78.23046875 C-29.59339025 86.94922159 -33.39791608 91.7421501 -43 95 C-46.4375 95.1875 -46.4375 95.1875 -49 95 C-49.8401284 88.27897284 -46.51949968 84.33484797 -42.66015625 79.2265625 C-40.59545747 76.65353362 -38.76311434 74.84207622 -36 73 C-36.90878906 73.05220703 -36.90878906 73.05220703 -37.8359375 73.10546875 C-46.21305761 73.37611417 -53.5792004 72.3836735 -60.125 66.8125 C-61.09841622 65.89067036 -62.06294818 64.95877156 -63 64 C-62.7109375 62.109375 -62.7109375 62.109375 -62 60 C-55.09540033 56.41983721 -47.85934461 55.77814167 -40.296875 57.6796875 C-38.16155102 58.3847473 -36.07658161 59.13860318 -34 60 C-34.39832031 59.48953125 -34.79664062 58.9790625 -35.20703125 58.453125 C-39.72753667 52.24980369 -41.44596793 46.44593781 -43 39 C-43.33 38.01 -43.66 37.02 -44 36 C-39.25 34.875 -39.25 34.875 -37 36 C-36.87625 35.21625 -36.7525 34.4325 -36.625 33.625 C-36 31 -36 31 -34 29 C-33.34 30.98 -32.68 32.96 -32 35 C-31.73445313 34.41734375 -31.46890625 33.8346875 -31.1953125 33.234375 C-29.96697004 30.93825772 -28.59685061 29.19643982 -26.875 27.25 C-26.33617187 26.63640625 -25.79734375 26.0228125 -25.2421875 25.390625 C-24.83226562 24.93171875 -24.42234375 24.4728125 -24 24 C-21.921875 27.6875 -21.921875 27.6875 -22.625 30.5 C-24 33 -24 33 -26.1875 35.0625 C-26.785625 35.701875 -27.38375 36.34125 -28 37 C-27.98617135 39.05714832 -27.98617135 39.05714832 -27 41 C-26.71125 41.721875 -26.4225 42.44375 -26.125 43.1875 C-25.05935276 45.33536722 -25.05935276 45.33536722 -22 46 C-20.3125 48.0625 -20.3125 48.0625 -19 50 C-16.70223864 48.89367046 -14.54671169 47.71939295 -12.375 46.375 C-10 45 -10 45 -8 45 C-7.09573514 50.33516267 -6.89100792 52.99114381 -9 58 C-9 63.31426817 -6.37195142 66.90701188 -3.6328125 71.25390625 C-1.01874521 75.65029215 0.98334622 80.30637217 3 85 C3 82.80595829 2.98637638 80.6119048 2.96484375 78.41796875 C2.95555769 77.00781362 2.94644932 75.59765731 2.9375 74.1875 C2.92912109 73.48818359 2.92074219 72.78886719 2.91210938 72.06835938 C2.89276094 67.93166477 3.19117508 64.05686198 4 60 C2.515 59.505 2.515 59.505 1 59 C1 58.34 1 57.68 1 57 C0.34 57 -0.32 57 -1 57 C-3.21854707 52.37802694 -4.38281159 49.23175837 -4 44 C0.11574371 44.4748935 3.36383344 45.0210244 7 47 C7.10183594 45.72640625 7.20367187 44.4528125 7.30859375 43.140625 C7.90390927 37.77753566 9.40178637 32.86700163 11.0625 27.75 C11.62241529 26.01772204 12.17602449 24.28339041 12.72265625 22.546875 C12.96765869 21.79245117 13.21266113 21.03802734 13.46508789 20.26074219 C14.0536331 17.7733261 14.09177251 15.54717837 14 13 C13.39671875 12.82984375 12.7934375 12.6596875 12.171875 12.484375 C3.96455424 9.99570354 3.96455424 9.99570354 1 6 C1 5.34 1 4.68 1 4 C0.68521554 2.66216607 0.35412344 1.32796291 0 0 Z " fill="#708441" transform="translate(112,52)"/>
<path d="M0 0 C2.078125 3.6875 2.078125 3.6875 1.375 6.5 C0 9 0 9 -2.1875 11.0625 C-2.785625 11.701875 -3.38375 12.34125 -4 13 C-3.98617135 15.05714832 -3.98617135 15.05714832 -3 17 C-2.71125 17.721875 -2.4225 18.44375 -2.125 19.1875 C-1.05935276 21.33536722 -1.05935276 21.33536722 2 22 C3.6875 24.0625 3.6875 24.0625 5 26 C7.29776136 24.89367046 9.45328831 23.71939295 11.625 22.375 C14 21 14 21 16 21 C17.27033697 27.46717001 16.789011 31.00879119 14 37 C13.34 37.66 12.68 38.32 12 39 C12.66128906 40.13179687 13.32257813 41.26359375 14.00390625 42.4296875 C14.85719167 43.91121603 15.71003342 45.39300016 16.5625 46.875 C17.00013672 47.62136719 17.43777344 48.36773437 17.88867188 49.13671875 C18.50258789 50.20986328 18.50258789 50.20986328 19.12890625 51.3046875 C19.51119385 51.96452637 19.89348145 52.62436523 20.28735352 53.30419922 C20.52252686 53.86381348 20.7577002 54.42342773 21 55 C20.505 55.99 20.505 55.99 20 57 C18.68 57 17.36 57 16 57 C15.34 57.99 14.68 58.98 14 60 C13.34 60 12.68 60 12 60 C11.505 60.99 11.505 60.99 11 62 C9.68 61.34 8.36 60.68 7 60 C7 59.34 7 58.68 7 58 C6.01 58.495 6.01 58.495 5 59 C5.66 60.65 6.32 62.3 7 64 C7.66 63.34 8.32 62.68 9 62 C9.99 62.99 10.98 63.98 12 65 C11.34 66.65 10.68 68.3 10 70 C7.53199953 68.84826645 5.95216435 67.95216435 4 66 C2.01178687 65.60235737 0.01055661 65.26224651 -2 65 C-1.34 64.01 -0.68 63.02 0 62 C0.66 62 1.32 62 2 62 C1.01 57.05 1.01 57.05 0 52 C-0.36351562 52.73605469 -0.72703125 53.47210938 -1.1015625 54.23046875 C-5.59339025 62.94922159 -9.39791608 67.7421501 -19 71 C-22.4375 71.1875 -22.4375 71.1875 -25 71 C-25.8401284 64.27897284 -22.51949968 60.33484797 -18.66015625 55.2265625 C-16.59545747 52.65353362 -14.76311434 50.84207622 -12 49 C-12.90878906 49.05220703 -12.90878906 49.05220703 -13.8359375 49.10546875 C-22.21305761 49.37611417 -29.5792004 48.3836735 -36.125 42.8125 C-37.09841622 41.89067036 -38.06294818 40.95877156 -39 40 C-38.7109375 38.109375 -38.7109375 38.109375 -38 36 C-31.09540033 32.41983721 -23.85934461 31.77814167 -16.296875 33.6796875 C-14.16155102 34.3847473 -12.07658161 35.13860318 -10 36 C-10.39832031 35.48953125 -10.79664062 34.9790625 -11.20703125 34.453125 C-15.72753667 28.24980369 -17.44596793 22.44593781 -19 15 C-19.33 14.01 -19.66 13.02 -20 12 C-15.25 10.875 -15.25 10.875 -13 12 C-12.87625 11.21625 -12.7525 10.4325 -12.625 9.625 C-12 7 -12 7 -10 5 C-9.34 6.98 -8.68 8.96 -8 11 C-7.73445313 10.41734375 -7.46890625 9.8346875 -7.1953125 9.234375 C-5.96697004 6.93825772 -4.59685061 5.19643982 -2.875 3.25 C-2.33617187 2.63640625 -1.79734375 2.0228125 -1.2421875 1.390625 C-0.83226562 0.93171875 -0.42234375 0.4728125 0 0 Z " fill="#748847" transform="translate(88,76)"/>
<path d="M0 0 C3.14133236 9.42399709 1.01226896 19.22316165 -3 28 C2.63371371 24.63807926 6.10449417 20.54130621 10.11914062 15.42578125 C11.35264651 13.8999016 12.67113913 12.44359768 14 11 C14.99 11 15.98 11 17 11 C16.43410156 11.62648438 15.86820313 12.25296875 15.28515625 12.8984375 C14.55167969 13.71570313 13.81820312 14.53296875 13.0625 15.375 C12.33160156 16.18710938 11.60070312 16.99921875 10.84765625 17.8359375 C8.97010529 19.85924167 8.97010529 19.85924167 8 22 C8.92941406 21.89300781 9.85882813 21.78601563 10.81640625 21.67578125 C23.09490334 20.48506151 23.09490334 20.48506151 29 24 C26.97951589 30.04040561 23.15066715 33.41557203 18 37 C15.42775717 38.06644812 12.97280968 38.8097601 10.26171875 39.4296875 C7.95640667 40.01099245 6.0819054 40.86614763 4 42 C4.721875 42.226875 5.44375 42.45375 6.1875 42.6875 C9.60861306 44.28401943 11.46393673 46.21033041 14 49 C14.886875 49.94875 15.77375 50.8975 16.6875 51.875 C19.28631973 55.38691856 20.07433594 57.7924361 21 62 C12.56729657 62.4844319 4.94221208 61.75954846 -2.125 56.8125 C-2.74375 56.214375 -3.3625 55.61625 -4 55 C-6.77454042 55.61656454 -8.52696192 56.27886502 -10.1171875 58.703125 C-11.13944945 60.77934694 -12.07990387 62.87670124 -13 65 C-14 67 -15 69 -16 71 C-16.12375 70.360625 -16.2475 69.72125 -16.375 69.0625 C-16.58125 68.381875 -16.7875 67.70125 -17 67 C-17.66 66.67 -18.32 66.34 -19 66 C-21.23388942 60.91169632 -21.93598732 55.52795221 -20.4921875 50.0859375 C-19.90225304 47.58573909 -19.90373917 45.31582279 -19.9375 42.75 C-19.94652344 41.85796875 -19.95554687 40.9659375 -19.96484375 40.046875 C-19.97644531 39.37140625 -19.98804687 38.6959375 -20 38 C-19.01 38.33 -18.02 38.66 -17 39 C-16.67 39.99 -16.34 40.98 -16 42 C-14.49667449 37.58830798 -14.49667449 37.58830798 -14 33 C-12.02 32.505 -12.02 32.505 -10 32 C-9.67 30.68 -9.34 29.36 -9 28 C-9.66 27.67 -10.32 27.34 -11 27 C-10.67 27.99 -10.34 28.98 -10 30 C-11.65 30.66 -13.3 31.32 -15 32 C-15.80985538 13.46331012 -15.80985538 13.46331012 -9.24609375 6.0078125 C-3.46749498 0 -3.46749498 0 0 0 Z " fill="#758945" transform="translate(141,78)"/>
<path d="M0 0 C0.845625 0.598125 1.69125 1.19625 2.5625 1.8125 C4.86541611 3.35687265 7.12700641 4.56266755 9.6875 5.625 C13 7 13 7 16 9 C16 6.69 16 4.38 16 2 C20.8 4.46153846 20.8 4.46153846 21.8125 7.1875 C21.874375 7.785625 21.93625 8.38375 22 9 C26.22104999 6.27809315 26.22104999 6.27809315 30 3 C30 5.66666667 30 8.33333333 30 11 C28.2092015 11.50310058 26.41733089 12.00238628 24.625 12.5 C23.62726563 12.7784375 22.62953125 13.056875 21.6015625 13.34375 C19 14 19 14 17 14 C15.08910369 21.2527201 13.3951087 28.5444641 11.8125 35.875 C11.63364258 36.68300049 11.45478516 37.49100098 11.27050781 38.32348633 C9.44221881 46.20493228 9.44221881 46.20493228 11.5 53.75 C12.2425 54.86375 12.2425 54.86375 13 56 C13 56.66 13 57.32 13 58 C14.65 57.34 16.3 56.68 18 56 C17.67 54.68 17.34 53.36 17 52 C18.32 52.66 19.64 53.32 21 54 C20.42655063 56.86724686 20.1385485 57.8614515 18 60 C16.515 59.505 16.515 59.505 15 59 C15.33 60.98 15.66 62.96 16 65 C15.01 65.495 15.01 65.495 14 66 C13.34786708 68.02463255 13.34786708 68.02463255 13 70 C12.71125 69.195625 12.4225 68.39125 12.125 67.5625 C11.26737432 64.8673532 11.26737432 64.8673532 9 64 C9.33 64.99 9.66 65.98 10 67 C10.22310757 73.13545817 10.22310757 73.13545817 9.5 75.9375 C8.23176553 81.16896719 8.48120325 86.24227281 11 91 C11.66 91.66 12.32 92.32 13 93 C15.27293747 90.33517676 16.99055568 88.02094174 18.4375 84.8125 C20 82 20 82 22.6875 80.625 C23.8321875 80.315625 23.8321875 80.315625 25 80 C26.98 81.65 28.96 83.3 31 85 C29.03455843 90.30669224 24.52596924 93.132292 19.8125 95.8125 C17 97 17 97 14 97 C13.773125 97.70125 13.54625 98.4025 13.3125 99.125 C11.6731919 102.71586536 9.65036303 105.07780486 7 108 C6.67 108 6.34 108 6 108 C5.95101562 106.87722656 5.90203125 105.75445312 5.8515625 104.59765625 C5.56393716 95.42651174 5.56393716 95.42651174 3.9375 86.4375 C2.83873773 82.25564362 2.81298527 78.11052491 2.8125 73.8125 C2.8117749 73.13437256 2.8110498 72.45624512 2.81030273 71.75756836 C2.85416252 67.74464423 3.23450765 63.93769267 4 60 C3.01 59.67 2.02 59.34 1 59 C1 58.34 1 57.68 1 57 C0.34 57 -0.32 57 -1 57 C-3.21854707 52.37802694 -4.38281159 49.23175837 -4 44 C0.11574371 44.4748935 3.36383344 45.0210244 7 47 C7.15275391 45.08960937 7.15275391 45.08960937 7.30859375 43.140625 C7.90390927 37.77753566 9.40178637 32.86700163 11.0625 27.75 C11.62241529 26.01772204 12.17602449 24.28339041 12.72265625 22.546875 C13.09015991 21.41523926 13.09015991 21.41523926 13.46508789 20.26074219 C14.0536331 17.7733261 14.09177251 15.54717837 14 13 C13.09507813 12.74476562 13.09507813 12.74476562 12.171875 12.484375 C3.96455424 9.99570354 3.96455424 9.99570354 1 6 C1 5.34 1 4.68 1 4 C0.68521554 2.66216607 0.35412344 1.32796291 0 0 Z " fill="#768B41" transform="translate(112,52)"/>
<path d="M0 0 C11.14998619 -0.89067937 19.24598913 0.80919659 28.2109375 7.69921875 C29.90094379 9.19602223 29.90094379 9.19602223 32 9 C32.66 8.34 33.32 7.68 34 7 C35 11.75 35 11.75 35 14 C34.01 14 33.02 14 32 14 C32 14.66 32 15.32 32 16 C32.99 16.66 33.98 17.32 35 18 C34.505 19.485 34.505 19.485 34 21 C34.99 21.33 35.98 21.66 37 22 C33.2950146 27.65571635 29.5083206 32.57644705 23 35 C19.61703255 35.37212642 16.38505568 35.31214653 13 35 C13.41838379 30.25831701 15.50146712 27.0994284 19 24 C21.58176331 22.44616097 24.2253255 21.17045822 27 20 C25.85724609 19.77957031 25.85724609 19.77957031 24.69140625 19.5546875 C15.08115616 17.46706763 8.1333867 14.50837187 2.4375 6.25 C0 2.36585366 0 2.36585366 0 0 Z " fill="#748846" transform="translate(77,156)"/>
<path d="M0 0 C0.33 0 0.66 0 1 0 C1.33 3.96 1.66 7.92 2 12 C1.01 12.66 0.02 13.32 -1 14 C-0.113125 14.2475 0.77375 14.495 1.6875 14.75 C5.10427135 16.03934768 7.2797748 17.59980129 10 20 C10.495 18.515 10.495 18.515 11 17 C11.66 17 12.32 17 13 17 C13.09796875 17.845625 13.1959375 18.69125 13.296875 19.5625 C14.22325337 26.59019798 15.61110879 31.80650917 19 38 C18.505 38.99 18.505 38.99 18 40 C17.195625 39.2575 16.39125 38.515 15.5625 37.75 C7.43803787 31.11470842 -0.70876588 30.29278049 -11 30 C-10.67 31.32 -10.34 32.64 -10 34 C-11.65 33.67 -13.3 33.34 -15 33 C-15.5625 31.0625 -15.5625 31.0625 -16 29 C-15.67 28.67 -15.34 28.34 -15 28 C-15.83333333 25.83333333 -15.83333333 25.83333333 -18 25 C-18.33 24.67 -18.66 24.34 -19 24 C-20.66617115 23.95936168 -22.33388095 23.957279 -24 24 C-23.360625 23.71125 -22.72125 23.4225 -22.0625 23.125 C-19.84793921 22.17176549 -19.84793921 22.17176549 -19 20 C-17.45442986 19.27524112 -15.88804092 18.59456415 -14.3125 17.9375 C-8.52736972 15.14410852 -5.96283377 11.57364769 -3 6 C-2.66097656 5.36835938 -2.32195312 4.73671875 -1.97265625 4.0859375 C-1.28103389 2.74093917 -0.63378473 1.37320024 0 0 Z " fill="#F3F4EF" transform="translate(88,126)"/>
<path d="M0 0 C2.4375 1.5 2.4375 1.5 4 3 C3.67 3.66 3.34 4.32 3 5 C2.236875 4.484375 1.47375 3.96875 0.6875 3.4375 C-0.199375 2.963125 -1.08625 2.48875 -2 2 C-2.99 2.33 -3.98 2.66 -5 3 C-3.68 3.66 -2.36 4.32 -1 5 C-1 6.32 -1 7.64 -1 9 C0.4540625 9.928125 0.4540625 9.928125 1.9375 10.875 C5 13 5 13 5.9375 16 C5.99398507 18.71128331 5.79645102 20.45135673 5 23 C4.896875 23.99 4.79375 24.98 4.6875 26 C3.86849213 29.57385254 2.9578326 30.86378756 0 33 C-2.75 33.25 -2.75 33.25 -5 33 C-5.33 33.66 -5.66 34.32 -6 35 C-9.37462715 34.45276317 -11.08235 33.9451 -14 32 C-13.01 32 -12.02 32 -11 32 C-11 31.01 -11 30.02 -11 29 C-13.93720508 27.47700477 -16.9168649 26.19899698 -20 25 C-19.76092133 23.36060341 -19.52162257 21.72123863 -19.28125 20.08203125 C-19.08994873 18.66587049 -18.92420134 17.24607401 -18.78125 15.82421875 C-18.20608452 10.20608452 -18.20608452 10.20608452 -16 8 C-14.487455 13.16044765 -13.66499545 16.65998179 -15 22 C-13.68 21.34 -12.36 20.68 -11 20 C-11 17.69 -11 15.38 -11 13 C-9.35 12.67 -7.7 12.34 -6 12 C-6 11.34 -6 10.68 -6 10 C-5.34 9.67 -4.68 9.34 -4 9 C-4.33 8.01 -4.66 7.02 -5 6 C-7.64 6 -10.28 6 -13 6 C-8.79287206 0.53073368 -7.02403919 -0.4844165 0 0 Z " fill="#F5F5F2" transform="translate(178,63)"/>
<path d="M0 0 C2.32758311 0.93103324 3.74357132 1.65382128 5.25 3.6875 C6.45384529 7.39935631 6.47616757 11.15485066 5.5 14.9375 C4.23176553 20.16896719 4.48120325 25.24227281 7 30 C7.66 30.66 8.32 31.32 9 32 C11.27293747 29.33517676 12.99055568 27.02094174 14.4375 23.8125 C16 21 16 21 18.6875 19.625 C19.450625 19.41875 20.21375 19.2125 21 19 C22.98 20.65 24.96 22.3 27 24 C25.03455843 29.30669224 20.52596924 32.132292 15.8125 34.8125 C13 36 13 36 10 36 C9.773125 36.70125 9.54625 37.4025 9.3125 38.125 C7.6731919 41.71586536 5.65036303 44.07780486 3 47 C2.67 47 2.34 47 2 47 C1.95101562 45.87722656 1.90203125 44.75445312 1.8515625 43.59765625 C1.56393716 34.42651174 1.56393716 34.42651174 -0.0625 25.4375 C-1.16842966 21.23661794 -1.18701556 17.06780117 -1.1875 12.75 C-1.1882251 12.06349365 -1.1889502 11.3769873 -1.18969727 10.66967773 C-1.14974654 6.99645505 -0.8653397 3.57212229 0 0 Z " fill="#4D3E24" transform="translate(116,113)"/>
<path d="M0 0 C0.66 0.33 1.32 0.66 2 1 C1.43410156 1.62648438 0.86820313 2.25296875 0.28515625 2.8984375 C-0.44832031 3.71570313 -1.18179688 4.53296875 -1.9375 5.375 C-2.66839844 6.18710938 -3.39929688 6.99921875 -4.15234375 7.8359375 C-6.02989471 9.85924167 -6.02989471 9.85924167 -7 12 C-6.07058594 11.89300781 -5.14117187 11.78601563 -4.18359375 11.67578125 C8.09490334 10.48506151 8.09490334 10.48506151 14 14 C11.97499344 20.05392587 8.14281351 23.38908839 3 27 C-2.56924759 29.55609844 -7.92218678 30.39637912 -14 30 C-13.67 28.35 -13.34 26.7 -13 25 C-11.02 24.34 -9.04 23.68 -7 23 C-7.66 21.68 -8.32 20.36 -9 19 C-9.66 19 -10.32 19 -11 19 C-11.33 20.65 -11.66 22.3 -12 24 C-13.32 24.33 -14.64 24.66 -16 25 C-16.48828125 19.140625 -16.48828125 19.140625 -16 17 C-14.38146794 15.60863034 -12.70576845 14.28293007 -11 13 C-9.3924133 11.1635098 -7.82995784 9.2866362 -6.3125 7.375 C-2.12582781 2.12582781 -2.12582781 2.12582781 0 0 Z " fill="#7A914C" transform="translate(156,88)"/>
<path d="M0 0 C-0.33 1.32 -0.66 2.64 -1 4 C-1.804375 4.12375 -2.60875 4.2475 -3.4375 4.375 C-4.7059375 4.684375 -4.7059375 4.684375 -6 5 C-6.33 5.66 -6.66 6.32 -7 7 C-5.68 7.33 -4.36 7.66 -3 8 C-2.67 7.01 -2.34 6.02 -2 5 C-0.35 4.67 1.3 4.34 3 4 C2.62875 4.86625 2.2575 5.7325 1.875 6.625 C0.68567226 9.92638621 0.68567226 9.92638621 1.96875 12.78125 C3.14802675 16.46202288 3.01542628 19.04882244 2.625 22.875 C2.51414063 24.02742188 2.40328125 25.17984375 2.2890625 26.3671875 C2.14597656 27.67042969 2.14597656 27.67042969 2 29 C1.67 29 1.34 29 1 29 C0.67 24.38 0.34 19.76 0 15 C-6.45631043 18.84304192 -11.72137498 23.65092111 -14 31 C-14.36138378 33.76622208 -14.50549459 36.5265301 -14.625 39.3125 C-14.66367188 40.05306641 -14.70234375 40.79363281 -14.7421875 41.55664062 C-14.83581705 43.37071309 -14.91896851 45.18532116 -15 47 C-19.33458176 41.28623314 -20.27529118 38.79213513 -19.546875 31.6640625 C-18.92140802 27.47343371 -18.08280564 23.37572287 -17.125 19.25 C-16.96370605 18.55374512 -16.80241211 17.85749023 -16.63623047 17.14013672 C-16.13302462 15.07899385 -15.58301862 13.03995863 -15 11 C-14.79415283 10.26587891 -14.58830566 9.53175781 -14.3762207 8.77539062 C-12.65419248 3.39018287 -12.65419248 3.39018287 -9.58984375 1.5625 C-8.27693359 1.2840625 -8.27693359 1.2840625 -6.9375 1 C-6.05964844 0.79375 -5.18179688 0.5875 -4.27734375 0.375 C-2 0 -2 0 0 0 Z " fill="#F4F2ED" transform="translate(141,63)"/>
<path d="M0 0 C2.4375 0.25 2.4375 0.25 4.4375 1.25 C4.82499213 3.57495277 5.15508117 5.9099583 5.4375 8.25 C5.7675 9.24 6.0975 10.23 6.4375 11.25 C2.73849992 10.36223998 -0.90800461 9.30418136 -4.5625 8.25 C-4.25067931 9.66681634 -3.93801263 11.08344651 -3.625 12.5 C-3.36396484 13.68335937 -3.36396484 13.68335937 -3.09765625 14.890625 C-2.614944 17.01878703 -2.10086822 19.13532842 -1.5625 21.25 C-0.9025 21.25 -0.2425 21.25 0.4375 21.25 C2.04638672 22.44848633 2.04638672 22.44848633 3.4375 24.25 C3.76220703 26.4831543 3.76220703 26.4831543 3.6953125 29.07421875 C3.67404297 30.49444336 3.67404297 30.49444336 3.65234375 31.94335938 C3.62269531 32.93142578 3.59304687 33.91949219 3.5625 34.9375 C3.41400587 41.50181409 3.43528695 47.75103386 4.4375 54.25 C2.07625361 51.88875361 1.39936286 49.91890846 0.1875 46.8125 C-2.74562729 39.58847729 -6.23495581 32.74131629 -10.5625 26.25 C-10.25 23.5625 -10.25 23.5625 -9.5625 20.25 C-8.47408734 14.20179438 -8.47408734 14.20179438 -9.5625 8.25 C-7.9125 7.59 -6.2625 6.93 -4.5625 6.25 C-4.8925 5.26 -5.2225 4.27 -5.5625 3.25 C-3.74140917 0.94967474 -2.9836534 0.29108814 0 0 Z " fill="#EEF2E6" transform="translate(112.5625,87.75)"/>
<path d="M0 0 C0 2.83967231 -0.40267181 5.23735711 -1 8 C2.19265548 7.20935627 2.19265548 7.20935627 4.3125 4.4375 C7 2 7 2 10.1875 1.5625 C13 2 13 2 15 4 C13.9275 3.9175 12.855 3.835 11.75 3.75 C7.95990735 3.63762783 7.95990735 3.63762783 5.5625 6 C5.046875 6.66 4.53125 7.32 4 8 C4.99 8.66 5.98 9.32 7 10 C5.625 11.5 5.625 11.5 4 13 C3.34 13 2.68 13 2 13 C1.23283149 15.85078091 1.23283149 15.85078091 1 19 C2.45252149 21.14055799 3.55134448 21.84574712 5.98828125 22.68359375 C8.99385992 24.65035105 9.13301094 26.89486007 10 30.3125 C11.25172528 35.21322801 12.73148724 38.15268811 16 42 C16 42.66 16 43.32 16 44 C14.741875 43.67 13.48375 43.34 12.1875 43 C3.6338205 41.13056376 -4.06551482 41.10488909 -12 45 C-12.66 45.99 -13.32 46.98 -14 48 C-14.93065133 45.39417629 -15.14917407 44.35801776 -14.0625 41.75 C-13.711875 41.1725 -13.36125 40.595 -13 40 C-13 40.66 -13 41.32 -13 42 C-12.360625 41.690625 -11.72125 41.38125 -11.0625 41.0625 C-7.62111891 39.86855146 -4.50651109 39.58321266 -0.890625 39.34375 C-0.26671875 39.2303125 0.3571875 39.116875 1 39 C1.33 38.34 1.66 37.68 2 37 C3.32 37.33 4.64 37.66 6 38 C5.67 35.69 5.34 33.38 5 31 C4.34 31 3.68 31 3 31 C2.67 31.99 2.34 32.98 2 34 C2 32.02 2 30.04 2 28 C-0.31 28 -2.62 28 -5 28 C-5 26 -5 24 -5 22 C-5.020625 21.154375 -5.04125 20.30875 -5.0625 19.4375 C-5 17 -5 17 -4 16 C-4 15.01 -4 14.02 -4 13 C-4 10 -4 10 -3 9 C-2.74994614 6.04182893 -2.74994614 6.04182893 -3 3 C-3.66 2.34 -4.32 1.68 -5 1 C-3.35 0.67 -1.7 0.34 0 0 Z " fill="#F3F7EB" transform="translate(62,68)"/>
<path d="M0 0 C0.66 0.33 1.32 0.66 2 1 C2.54908506 4.01996783 3 6.92619395 3 10 C3.66 10.66 4.32 11.32 5 12 C5 10.02 5 8.04 5 6 C5.66 6.33 6.32 6.66 7 7 C7 7.66 7 8.32 7 9 C7.66 9.33 8.32 9.66 9 10 C9 13.11227195 8.54372951 15.94152152 8 19 C7.34 19 6.68 19 6 19 C5.01 21.475 5.01 21.475 4 24 C4.66 24.33 5.32 24.66 6 25 C5.67 25.66 5.34 26.32 5 27 C2.69 26.67 0.38 26.34 -2 26 C-1.67 24.35 -1.34 22.7 -1 21 C-1.78375 21.66 -2.5675 22.32 -3.375 23 C-6 25 -6 25 -8 25 C-8.226875 24.38125 -8.45375 23.7625 -8.6875 23.125 C-10.37929835 20.38589791 -11.99244161 19.94975528 -15 19 C-15 18.34 -15 17.68 -15 17 C-13.68 16.67 -12.36 16.34 -11 16 C-11.33 15.34 -11.66 14.68 -12 14 C-10.35 14 -8.7 14 -7 14 C-7.04125 13.2575 -7.0825 12.515 -7.125 11.75 C-7 9 -7 9 -5 5 C-8.63 5 -12.26 5 -16 5 C-16.66 6.32 -17.32 7.64 -18 9 C-18.33 8.34 -18.66 7.68 -19 7 C-18.67 6.34 -18.34 5.68 -18 5 C-19.98 5 -21.96 5 -24 5 C-24 4.67 -24 4.34 -24 4 C-23.1646875 3.92652344 -23.1646875 3.92652344 -22.3125 3.8515625 C-18.3269055 3.46108196 -14.55024691 2.95162249 -10.6875 1.875 C-7.24866624 1.05900555 -6.1465766 0.83583318 -3 2 C-1.75 4.0625 -1.75 4.0625 -1 6 C-0.4465236 3.92446352 0 2.15634036 0 0 Z M6 24 C8 25 8 25 8 25 Z " fill="#F7F6F4" transform="translate(142,36)"/>
<path d="M0 0 C0 0.66 0 1.32 0 2 C-0.99 2 -1.98 2 -3 2 C-2.67 3.32 -2.34 4.64 -2 6 C-2.99 5.67 -3.98 5.34 -5 5 C-5 5.66 -5 6.32 -5 7 C-4.34 7.33 -3.68 7.66 -3 8 C-5.5654594 10.5654594 -7.47686668 10.54046087 -11 11 C-11 11.33 -11 11.66 -11 12 C-16.89347971 11.59355312 -20.23788111 10.76539633 -25 7 C-25.639375 6.505 -26.27875 6.01 -26.9375 5.5 C-28 4 -28 4 -27.77734375 2.015625 C-27 0 -27 0 -23.625 -1.75 C-15.36935044 -4.4427029 -7.78630069 -3.52587201 0 0 Z " fill="#728742" transform="translate(77,112)"/>
<path d="M0 0 C4.875 1.75 4.875 1.75 6 4 C6.99 4 7.98 4 9 4 C9.33 4.99 9.66 5.98 10 7 C10.66 7.33 11.32 7.66 12 8 C12.75 9.9375 12.75 9.9375 13 12 C12.34 12.66 11.68 13.32 11 14 C8.375 13.625 8.375 13.625 6 13 C6 13.66 6 14.32 6 15 C6.99 15 7.98 15 9 15 C10.6875 17.5 10.6875 17.5 12 20 C12.66 19.34 13.32 18.68 14 18 C14.66 18 15.32 18 16 18 C16.66 17.67 17.32 17.34 18 17 C17.34 16.67 16.68 16.34 16 16 C16.33 15.01 16.66 14.02 17 13 C18.32 13.66 19.64 14.32 21 15 C20.814375 15.61875 20.62875 16.2375 20.4375 16.875 C19.76313824 19.04160178 19.76313824 19.04160178 21 21 C15.72527473 24.95604396 15.72527473 24.95604396 12.9375 25.125 C9.87797726 23.34850293 8.14375052 20.7987854 6 18 C5.13375 18.2165625 5.13375 18.2165625 4.25 18.4375 C3.5075 18.623125 2.765 18.80875 2 19 C1.3915625 19.1753125 0.783125 19.350625 0.15625 19.53125 C-2.21088795 20.04584521 -4.33055066 20.09808014 -6.75 20.0625 C-7.54921875 20.05347656 -8.3484375 20.04445312 -9.171875 20.03515625 C-9.77515625 20.02355469 -10.3784375 20.01195312 -11 20 C-10.0925 19.05125 -9.185 18.1025 -8.25 17.125 C-3.89955038 12.08547207 -2.0750911 6.2252733 0 0 Z " fill="#F8F4F2" transform="translate(141,148)"/>
<path d="M0 0 C4.455 0.99 4.455 0.99 9 2 C8.01 3.485 8.01 3.485 7 5 C5.68 5 4.36 5 3 5 C3 4.34 3 3.68 3 3 C2.01 3 1.02 3 0 3 C0.03122943 4.96756452 0.03122943 4.96756452 1 7 C3.74177497 8.16671276 6.00567607 9 9 9 C11.875 9.4375 11.875 9.4375 15 11 C17.27293757 14.44650177 19.19020782 18.02875532 18.78515625 22.2265625 C18.52605469 22.81179687 18.26695312 23.39703125 18 24 C17.01 24.33 16.02 24.66 15 25 C14.67 25.66 14.34 26.32 14 27 C14.99 27.33 15.98 27.66 17 28 C16.34 28.99 15.68 29.98 15 31 C13 31 11 31 9 31 C8.34 29.35 7.68 27.7 7 26 C6.01 26 5.02 26 4 26 C4 25.34 4 24.68 4 24 C7 23 7 23 10 23 C10 21.68 10 20.36 10 19 C9.01 18.67 8.02 18.34 7 18 C6.67 17.34 6.34 16.68 6 16 C4.67592331 15.31513275 3.34090759 14.65129797 2 14 C-0.25 12.625 -0.25 12.625 -2 11 C-2 9.68 -2 8.36 -2 7 C-2.99 6.67 -3.98 6.34 -5 6 C-3.35 4.02 -1.7 2.04 0 0 Z " fill="#F3F4F0" transform="translate(143,137)"/>
<path d="M0 0 C4.05352471 1.3511749 4.99554306 3.9402821 6.9375 7.5 C7.28868896 8.13204346 7.63987793 8.76408691 8.00170898 9.4152832 C13.94329934 20.23082364 13.94329934 20.23082364 15 24 C14.67 24.99 14.34 25.98 14 27 C13.01 26.34 12.02 25.68 11 25 C11.66 26.65 12.32 28.3 13 30 C12.38125 29.67 11.7625 29.34 11.125 29 C9.08981656 27.85806765 9.08981656 27.85806765 7 28 C7.33 28.99 7.66 29.98 8 31 C7.34 31 6.68 31 6 31 C6 34.63 6 38.26 6 42 C3.48916886 40.74458443 3.12874554 39.49936512 2 37 C1.67 37 1.34 37 1 37 C0.855625 35.906875 0.71125 34.81375 0.5625 33.6875 C0.11711896 30.06877013 0.11711896 30.06877013 -1 27 C-1.66 26.67 -2.32 26.34 -3 26 C-3.66 26.66 -4.32 27.32 -5 28 C-6.5625 26.1875 -6.5625 26.1875 -8 24 C-7.505 22.515 -7.505 22.515 -7 21 C-5.68 21.33 -4.36 21.66 -3 22 C-3 22.66 -3 23.32 -3 24 C1.02063866 22.69600908 2.54184531 21.35202912 5 18 C5.99 18 6.98 18 8 18 C7.33871094 16.86820313 6.67742187 15.73640625 5.99609375 14.5703125 C5.14280833 13.08878397 4.28996658 11.60699984 3.4375 10.125 C2.99986328 9.37863281 2.56222656 8.63226563 2.11132812 7.86328125 C1.49741211 6.79013672 1.49741211 6.79013672 0.87109375 5.6953125 C0.48880615 5.03547363 0.10651855 4.37563477 -0.28735352 3.69580078 C-0.52252686 3.13618652 -0.7577002 2.57657227 -1 2 C-0.67 1.34 -0.34 0.68 0 0 Z " fill="#6D863A" transform="translate(100,113)"/>
<path d="M0 0 C0.845625 0.598125 1.69125 1.19625 2.5625 1.8125 C4.86541611 3.35687265 7.12700641 4.56266755 9.6875 5.625 C13 7 13 7 16 9 C16 6.69 16 4.38 16 2 C20.8 4.46153846 20.8 4.46153846 21.8125 7.1875 C21.874375 7.785625 21.93625 8.38375 22 9 C26.22104999 6.27809315 26.22104999 6.27809315 30 3 C30 5.66666667 30 8.33333333 30 11 C28.2092015 11.50310058 26.41733089 12.00238628 24.625 12.5 C23.62726563 12.7784375 22.62953125 13.056875 21.6015625 13.34375 C19 14 19 14 17 14 C13.79649797 25.87639777 11.46215071 37.95372673 9 50 C7 48 7 48 6.65625 45.1015625 C6.81484746 39.63278206 8.80705727 34.52572923 10.5 29.375 C11.16274835 27.34325409 11.81923954 25.30945395 12.46875 23.2734375 C12.76201172 22.38060059 13.05527344 21.48776367 13.35742188 20.56787109 C14.0145358 17.94191202 14.11883554 15.69502019 14 13 C13.39671875 12.82984375 12.7934375 12.6596875 12.171875 12.484375 C3.96455424 9.99570354 3.96455424 9.99570354 1 6 C1 5.34 1 4.68 1 4 C0.68521554 2.66216607 0.35412344 1.32796291 0 0 Z " fill="#4D3E34" transform="translate(112,52)"/>
<path d="M0 0 C2 2 2 2 3 4 C3.99 3.01 4.98 2.02 6 1 C6.99 1.33 7.98 1.66 9 2 C8.01 2.66 7.02 3.32 6 4 C5.23340856 7.51076658 4.72636759 10.96765363 4.27148438 14.52734375 C3.52148681 19.61312603 2.20063139 22.8311622 -1 27 C-1.66 27.99 -2.32 28.98 -3 30 C-3 28.35 -3 26.7 -3 25 C-3.66 25 -4.32 25 -5 25 C-7.18674049 19.53314877 -8.25394087 14.13485218 -6 8.5 C-5.67 8.005 -5.34 7.51 -5 7 C-4.34 7 -3.68 7 -3 7 C-2.01 6.67 -1.02 6.34 0 6 C0 4.02 0 2.04 0 0 Z " fill="#768842" transform="translate(127,119)"/>
<path d="M0 0 C2.078125 3.6875 2.078125 3.6875 1.375 6.5 C0 9 0 9 -2.1875 11.0625 C-4.23497426 12.79398217 -4.23497426 12.79398217 -3.9375 14.9375 C-2.50398394 18.09123533 -0.89711292 20.96311028 1.37890625 23.59375 C5.0560129 28.00227023 5.0560129 28.00227023 4.875 31.2265625 C4.3125 33.4375 4.3125 33.4375 3 37 C2.67 37 2.34 37 2 37 C1.72285156 36.08476563 1.44570312 35.16953125 1.16015625 34.2265625 C0.79792969 33.03804687 0.43570313 31.84953125 0.0625 30.625 C-0.29714844 29.44164063 -0.65679687 28.25828125 -1.02734375 27.0390625 C-2.37633229 22.71911019 -2.37633229 22.71911019 -6 20 C-6 19.34 -6 18.68 -6 18 C-7.98 18 -9.96 18 -12 18 C-12 17.34 -12 16.68 -12 16 C-13.65 16.33 -15.3 16.66 -17 17 C-17 16.01 -17 15.02 -17 14 C-17.66 13.34 -18.32 12.68 -19 12 C-15.25 10.875 -15.25 10.875 -13 12 C-12.87625 11.21625 -12.7525 10.4325 -12.625 9.625 C-12 7 -12 7 -10 5 C-9.34 6.98 -8.68 8.96 -8 11 C-7.73445313 10.41734375 -7.46890625 9.8346875 -7.1953125 9.234375 C-5.96697004 6.93825772 -4.59685061 5.19643982 -2.875 3.25 C-2.33617188 2.63640625 -1.79734375 2.0228125 -1.2421875 1.390625 C-0.83226563 0.93171875 -0.42234375 0.4728125 0 0 Z " fill="#7A8257" transform="translate(88,76)"/>
<path d="M0 0 C3.46865468 2.19681463 4.93033148 4.01305369 6 8 C5.66641914 10.33506599 5.05310196 11.89379608 4 14 C3.34 13.67 2.68 13.34 2 13 C2 12.01 2 11.02 2 10 C1.87625 10.825 1.7525 11.65 1.625 12.5 C0.92897845 16.39772067 -0.00880949 20.16739669 -1 24 C-0.34 24.33 0.32 24.66 1 25 C0.01 25.99 -0.98 26.98 -2 28 C-5 27 -5 27 -6.203125 24.70703125 C-9.66524883 15.13451723 -9.66524883 15.13451723 -8 10 C-7 12 -6 14 -5 16 C-4.7834375 14.1128125 -4.7834375 14.1128125 -4.5625 12.1875 C-4.26251314 9.57332877 -3.84186703 7.52560108 -3 5 C-2.01 4.67 -1.02 4.34 0 4 C0.66 4.33 1.32 4.66 2 5 C1.34 3.35 0.68 1.7 0 0 Z " fill="#768B4C" transform="translate(110,136)"/>
<path d="M0 0 C0 2.83967231 -0.40267181 5.23735711 -1 8 C2.19265548 7.20935627 2.19265548 7.20935627 4.3125 4.4375 C7 2 7 2 10.1875 1.5625 C13 2 13 2 15 4 C13.9275 3.9175 12.855 3.835 11.75 3.75 C7.95990735 3.63762783 7.95990735 3.63762783 5.5625 6 C5.046875 6.66 4.53125 7.32 4 8 C4.99 8.66 5.98 9.32 7 10 C5.625 11.5 5.625 11.5 4 13 C3.34 13 2.68 13 2 13 C1.23283149 15.85078091 1.23283149 15.85078091 1 19 C2.31318262 20.89958081 2.31318262 20.89958081 4 22 C3.67 22.66 3.34 23.32 3 24 C3.66 24.33 4.32 24.66 5 25 C4.34 25.66 3.68 26.32 3 27 C1.66666667 26.66666667 0.33333333 26.33333333 -1 26 C-1.66 26.66 -2.32 27.32 -3 28 C-3.99 27.67 -4.98 27.34 -6 27 C-5.505 25.515 -5.505 25.515 -5 24 C-5 22.47902398 -5.02541405 20.95802382 -5.0625 19.4375 C-5 17 -5 17 -4 16 C-4 15.01 -4 14.02 -4 13 C-4 10 -4 10 -3 9 C-2.74994614 6.04182893 -2.74994614 6.04182893 -3 3 C-3.66 2.34 -4.32 1.68 -5 1 C-3.35 0.67 -1.7 0.34 0 0 Z " fill="#EFEEEF" transform="translate(62,68)"/>
<path d="M0 0 C0.33 0.66 0.66 1.32 1 2 C0.34 2.66 -0.32 3.32 -1 4 C-0.01 4 0.98 4 2 4 C2 3.01 2 2.02 2 1 C2.99 1 3.98 1 5 1 C5 1.99 5 2.98 5 4 C5.66 4 6.32 4 7 4 C7.66 3.01 8.32 2.02 9 1 C9.66 1.33 10.32 1.66 11 2 C10.72162928 5.3404486 10.27974867 6.72025133 7.875 9.125 C2.65165589 12.53152877 -1.70117264 14.46088981 -8 14 C-8.54990817 8.36344126 -7.18170608 5.50741695 -4 1 C-1.75 0.0625 -1.75 0.0625 0 0 Z " fill="#76884A" transform="translate(71,133)"/>
<path d="M0 0 C4.43524096 1.98418675 4.43524096 1.98418675 6.375 4.0625 C7.125 7.75 7.125 7.75 7.375 11.0625 C8.365 11.3925 9.355 11.7225 10.375 12.0625 C10.045 12.7225 9.715 13.3825 9.375 14.0625 C8.364375 13.7325 7.35375 13.4025 6.3125 13.0625 C-0.0426273 11.26315673 -6.19267156 12.15971706 -12.625 13.0625 C-5.90561716 0.14060993 -5.90561716 0.14060993 0 0 Z " fill="#ECE9DD" transform="translate(160.625,87.9375)"/>
<path d="M0 0 C4.30460122 1.43486707 5.27656048 4.62100893 7.25 8.4375 C7.62640625 9.13166016 8.0028125 9.82582031 8.390625 10.54101562 C9.33039534 12.32554276 10.17313528 14.16043481 11 16 C10.67 16.66 10.34 17.32 10 18 C8.68 18 7.36 18 6 18 C5.34 18.99 4.68 19.98 4 21 C3.34 21 2.68 21 2 21 C1.74605469 20.32453125 1.49210937 19.6490625 1.23046875 18.953125 C0.88628906 18.06109375 0.54210937 17.1690625 0.1875 16.25 C-0.14894531 15.36828125 -0.48539062 14.4865625 -0.83203125 13.578125 C-1.96846822 11.06960192 -3.26542927 9.12720995 -5 7 C-3.70700306 4.11562221 -2.34058637 2.12780579 0 0 Z " fill="#EFF2E4" transform="translate(98,115)"/>
<path d="M0 0 C0.66 0 1.32 0 2 0 C2.14695312 1.2684375 2.14695312 1.2684375 2.296875 2.5625 C3.22325337 9.59019798 4.61110879 14.80650917 8 21 C7.67 21.66 7.34 22.32 7 23 C6.195625 22.2575 5.39125 21.515 4.5625 20.75 C-3.24531844 14.35848351 -11.09531753 13.30617256 -21 13 C-20.67 11.68 -20.34 10.36 -20 9 C-19.236875 9.350625 -18.47375 9.70125 -17.6875 10.0625 C-14.95240621 11.32360884 -14.95240621 11.32360884 -12 10 C-11.34 10.33 -10.68 10.66 -10 11 C-10 9.68 -10 8.36 -10 7 C-9.34 7 -8.68 7 -8 7 C-8 8.32 -8 9.64 -8 11 C-5.36 10.67 -2.72 10.34 0 10 C0 9.34 0 8.68 0 8 C-0.66 8 -1.32 8 -2 8 C-2.66 7.01 -3.32 6.02 -4 5 C-3.67 4.01 -3.34 3.02 -3 2 C-2.34 2.33 -1.68 2.66 -1 3 C-0.67 2.01 -0.34 1.02 0 0 Z " fill="#F3F4EC" transform="translate(99,143)"/>
<path d="M0 0 C0.33 0 0.66 0 1 0 C0.99476318 0.62455078 0.98952637 1.24910156 0.98413086 1.89257812 C0.96315924 4.76170824 0.95027624 7.63082215 0.9375 10.5 C0.92912109 11.48226562 0.92074219 12.46453125 0.91210938 13.4765625 C0.89340876 19.08674757 1.161121 24.45150899 2 30 C-0.36124639 27.63875361 -1.03813714 25.66890846 -2.25 22.5625 C-4.39232264 17.27979936 -6.86933985 12.33721273 -9.66796875 7.375 C-10.84488096 5.27657588 -11.94433955 3.1613522 -13 1 C-12.01 1 -11.02 1 -10 1 C-10 1.66 -10 2.32 -10 3 C-9.34 3 -8.68 3 -8 3 C-8 4.32 -8 5.64 -8 7 C-6.68 7.33 -5.36 7.66 -4 8 C-4 7.01 -4 6.02 -4 5 C-3.01 4.34 -2.02 3.68 -1 3 C-0.67 2.01 -0.34 1.02 0 0 Z " fill="#F3F4ED" transform="translate(115,112)"/>
<path d="M0 0 C0.90492188 0.02320312 1.80984375 0.04640625 2.7421875 0.0703125 C4.10730469 0.09738281 4.10730469 0.09738281 5.5 0.125 C6.19867188 0.14820312 6.89734375 0.17140625 7.6171875 0.1953125 C8.2771875 1.5153125 8.9371875 2.8353125 9.6171875 4.1953125 C8.6271875 4.5253125 7.6371875 4.8553125 6.6171875 5.1953125 C6.6171875 5.8553125 6.6171875 6.5153125 6.6171875 7.1953125 C5.2971875 7.5253125 3.9771875 7.8553125 2.6171875 8.1953125 C2.6584375 9.3090625 2.6996875 10.4228125 2.7421875 11.5703125 C2.6171875 15.1953125 2.6171875 15.1953125 0.6171875 17.1953125 C-0.3728125 17.1953125 -1.3628125 17.1953125 -2.3828125 17.1953125 C-2.44339844 16.61523438 -2.50398437 16.03515625 -2.56640625 15.4375 C-2.65019531 14.65632813 -2.73398438 13.87515625 -2.8203125 13.0703125 C-2.90796875 12.25175781 -2.995625 11.43320313 -3.0859375 10.58984375 C-3.32850867 8.63331577 -3.68366803 6.69103483 -4.0703125 4.7578125 C-4.1734375 3.9121875 -4.2765625 3.0665625 -4.3828125 2.1953125 C-2.3828125 0.1953125 -2.3828125 0.1953125 0 0 Z " fill="#DEDAD6" transform="translate(165.3828125,67.8046875)"/>
<path d="M0 0 C0 0.33 0 0.66 0 1 C-1.11375 1.2475 -2.2275 1.495 -3.375 1.75 C-7.01508809 2.61487878 -7.01508809 2.61487878 -8.4375 5 C-9.09024853 6.9746176 -9.09024853 6.9746176 -9 9 C-8.34 9.33 -7.68 9.66 -7 10 C-7.7115625 10.7734375 -7.7115625 10.7734375 -8.4375 11.5625 C-10.92172239 15.43788692 -11 19.47956296 -11 24 C-11 26.62113708 -11.31292445 28.50935112 -12 31 C-14.62169476 28.37830524 -16.02626282 25.53957018 -17 22 C-16.7785551 18.62296526 -16.51386013 16.02772025 -15 13 C-14.34 13 -13.68 13 -13 13 C-12.95875 11.783125 -12.9175 10.56625 -12.875 9.3125 C-12.45700762 5.99799706 -11.80304659 4.25644822 -9.3125 2 C-5.7705803 -0.13851755 -4.04818111 -0.48192632 0 0 Z " fill="#D7D7D6" transform="translate(125,32)"/>
<path d="M0 0 C0.99 0.66 1.98 1.32 3 2 C3.66 1.67 4.32 1.34 5 1 C5.66 2.65 6.32 4.3 7 6 C1.30585477 10.62133526 -2.72029767 12.68454718 -10.12890625 12.2109375 C-10.74636719 12.14132813 -11.36382812 12.07171875 -12 12 C-11.65203317 8.86829849 -11.18725914 7.23245962 -9.1875 4.75 C-7.02349183 3.01879346 -5.70777832 2.38682547 -3 2 C-3.495 2.61875 -3.99 3.2375 -4.5 3.875 C-6.19222773 5.83880904 -6.19222773 5.83880904 -6 8 C-5.34 7.67 -4.68 7.34 -4 7 C-3.67 6.01 -3.34 5.02 -3 4 C-2.34 3.67 -1.68 3.34 -1 3 C-0.67 2.01 -0.34 1.02 0 0 Z " fill="#809052" transform="translate(102,179)"/>
<path d="M0 0 C0.33 0 0.66 0 1 0 C2.512545 5.16044765 3.33500455 8.65998179 2 14 C4.46800047 12.84826645 6.04783565 11.95216435 8 10 C8.125 15.75 8.125 15.75 7 18 C9.31 18.66 11.62 19.32 14 20 C11.53354744 22.46645256 10.48143326 22.92087652 7 23 C3.9375 20.6875 3.9375 20.6875 1 18 C-1.21587348 16.72147713 -1.21587348 16.72147713 -3 16 C-2.67 15.67 -2.34 15.34 -2 15 C-1.97947526 13.41666264 -2.00865568 11.83255466 -2.0625 10.25 C-2.11264979 6.36060503 -1.86754342 3.50164392 0 0 Z " fill="#564335" transform="translate(161,71)"/>
<path d="M0 0 C0.33 0.66 0.66 1.32 1 2 C0.67 2.66 0.34 3.32 0 4 C0.639375 4.12375 1.27875 4.2475 1.9375 4.375 C2.618125 4.58125 3.29875 4.7875 4 5 C4.33 5.66 4.66 6.32 5 7 C3.35 7 1.7 7 0 7 C0 7.66 0 8.32 0 9 C0.99 9 1.98 9 3 9 C4.6875 11.5 4.6875 11.5 6 14 C6.66 13.34 7.32 12.68 8 12 C8.66 12 9.32 12 10 12 C10.66 11.67 11.32 11.34 12 11 C11.34 10.67 10.68 10.34 10 10 C10.33 9.01 10.66 8.02 11 7 C12.32 7.66 13.64 8.32 15 9 C14.814375 9.61875 14.62875 10.2375 14.4375 10.875 C13.76313824 13.04160178 13.76313824 13.04160178 15 15 C9.61273052 19.04045211 9.61273052 19.04045211 6.98828125 18.8671875 C4.40739761 17.74153688 3.50861088 16.37936484 1.9375 14.0625 C0.01190652 11.24817107 -1.08799013 9.94133991 -4 8 C-1.125 1.125 -1.125 1.125 0 0 Z " fill="#C7C7C3" transform="translate(147,154)"/>
<path d="M0 0 C1.32 0.33 2.64 0.66 4 1 C3.67 2.65 3.34 4.3 3 6 C2.01 6 1.02 6 0 6 C0.495 6.350625 0.99 6.70125 1.5 7.0625 C3.81346701 10.05072823 3.4568702 12.34503841 3 16 C1.1875 18 1.1875 18 -1 19 C-1.99 18.67 -2.98 18.34 -4 18 C-3.01 17.01 -2.02 16.02 -1 15 C-1.66 14.67 -2.32 14.34 -3 14 C-3.33 13.01 -3.66 12.02 -4 11 C-4.33 10.34 -4.66 9.68 -5 9 C-5.99 9.33 -6.98 9.66 -8 10 C-6.87548273 7.0280615 -5.77706209 4.66559313 -4 2 C-2.68 2 -1.36 2 0 2 C0 1.34 0 0.68 0 0 Z " fill="#FAFAFA" transform="translate(178,76)"/>
<path d="M0 0 C1.09054688 0.32484375 1.09054688 0.32484375 2.203125 0.65625 C9.63062572 2.71309635 16.31054453 3.36811223 24 3 C22.625 4.5 22.625 4.5 21 6 C20.34 6 19.68 6 19 6 C18.7525 6.5775 18.505 7.155 18.25 7.75 C16.83316683 10.3002997 15.12372463 12.01785701 13 14 C12.01 13.67 11.02 13.34 10 13 C10.33 10.36 10.66 7.72 11 5 C10.37351562 4.93941406 9.74703125 4.87882812 9.1015625 4.81640625 C8.28429688 4.73261719 7.46703125 4.64882812 6.625 4.5625 C5.40683594 4.44068359 5.40683594 4.44068359 4.1640625 4.31640625 C2 4 2 4 0 3 C0 2.01 0 1.02 0 0 Z " fill="#F1F8E4" transform="translate(54,121)"/>
<path d="M0 0 C1 3 1 3 1 5 C1.66 5.33 2.32 5.66 3 6 C3.33 4.35 3.66 2.7 4 1 C4.66 1 5.32 1 6 1 C5.67 4.63 5.34 8.26 5 12 C4.01 12.33 3.02 12.66 2 13 C2 12.01 2 11.02 2 10 C1.34 10 0.68 10 0 10 C0.33 10.99 0.66 11.98 1 13 C0.01 12.67 -0.98 12.34 -2 12 C-1.67 10.02 -1.34 8.04 -1 6 C-4.53586014 9.17320782 -6.58578031 11.16743695 -7 16 C-7.66 15.34 -8.32 14.68 -9 14 C-8.65593782 9.87125389 -7.13974549 6.51529616 -5 3 C-2.3125 1.125 -2.3125 1.125 0 0 Z " fill="#7B8F55" transform="translate(135,83)"/>
<path d="M0 0 C0.66 0.33 1.32 0.66 2 1 C3.28571429 7.42857143 3.28571429 7.42857143 2 10 C1.01 10.33 0.02 10.66 -1 11 C-1.33 11.66 -1.66 12.32 -2 13 C-2.99 13 -3.98 13 -5 13 C-6.125 11.25 -6.125 11.25 -7 9 C-6.34 7.68 -5.68 6.36 -5 5 C-8.63 5 -12.26 5 -16 5 C-16.66 6.32 -17.32 7.64 -18 9 C-18.33 8.34 -18.66 7.68 -19 7 C-18.67 6.34 -18.34 5.68 -18 5 C-19.98 5 -21.96 5 -24 5 C-24 4.67 -24 4.34 -24 4 C-23.1646875 3.92652344 -23.1646875 3.92652344 -22.3125 3.8515625 C-18.3269055 3.46108196 -14.55024691 2.95162249 -10.6875 1.875 C-7.24866624 1.05900555 -6.1465766 0.83583318 -3 2 C-1.75 4.0625 -1.75 4.0625 -1 6 C-0.4465236 3.92446352 0 2.15634036 0 0 Z " fill="#D2D1D2" transform="translate(142,36)"/>
<path d="M0 0 C4.05352471 1.3511749 4.99554306 3.9402821 6.9375 7.5 C7.28868896 8.13204346 7.63987793 8.76408691 8.00170898 9.4152832 C13.94329934 20.23082364 13.94329934 20.23082364 15 24 C14.67 24.99 14.34 25.98 14 27 C12.5 25.6875 12.5 25.6875 11 24 C11 23.01 11 22.02 11 21 C10.34 21 9.68 21 9 21 C5.66666667 14.33333333 2.33333333 7.66666667 -1 1 C-0.67 0.67 -0.34 0.34 0 0 Z " fill="#433C2A" transform="translate(100,113)"/>
<path d="M0 0 C0.99 0.33 1.98 0.66 3 1 C2.01 1.495 2.01 1.495 1 2 C1 3.65 1 5.3 1 7 C2.32 7 3.64 7 5 7 C6.8125 9.1875 6.8125 9.1875 8 12 C7.6875 14.8125 7.6875 14.8125 7 17 C6.01 17.33 5.02 17.66 4 18 C3.67 17.34 3.34 16.68 3 16 C2.34 16.33 1.68 16.66 1 17 C1 16.34 1 15.68 1 15 C0.34 15 -0.32 15 -1 15 C-0.67 13.02 -0.34 11.04 0 9 C-2.31 8.34 -4.62 7.68 -7 7 C-7 6.67 -7 6.34 -7 6 C-5.02 6 -3.04 6 -1 6 C-1.66 4.68 -2.32 3.36 -3 2 C-2.01 1.34 -1.02 0.68 0 0 Z " fill="#EFF0EB" transform="translate(85,62)"/>
<path d="M0 0 C2.078125 3.6875 2.078125 3.6875 1.375 6.5 C-0.09937237 9.18067703 -1.81332054 10.88385858 -4 13 C-4.33 13.99 -4.66 14.98 -5 16 C-10.875 14.125 -10.875 14.125 -12 13 C-12.1875 10.0625 -12.1875 10.0625 -12 7 C-11.34 6.34 -10.68 5.68 -10 5 C-9.34 6.98 -8.68 8.96 -8 11 C-7.73445313 10.41734375 -7.46890625 9.8346875 -7.1953125 9.234375 C-5.96697004 6.93825772 -4.59685061 5.19643982 -2.875 3.25 C-2.33617188 2.63640625 -1.79734375 2.0228125 -1.2421875 1.390625 C-0.62730469 0.70226562 -0.62730469 0.70226562 0 0 Z " fill="#443B27" transform="translate(88,76)"/>
<path d="M0 0 C0.33 0 0.66 0 1 0 C1.34615998 5.65394631 0.43425238 9.03006806 -2 14 C-3.32 14 -4.64 14 -6 14 C-6.33 13.01 -6.66 12.02 -7 11 C-7.99 10.34 -8.98 9.68 -10 9 C-9 6 -9 6 -6 4 C-5.01 4 -4.02 4 -3 4 C-3 3.34 -3 2.68 -3 2 C-2.01 2 -1.02 2 0 2 C0 1.34 0 0.68 0 0 Z " fill="#70824D" transform="translate(140,144)"/>
<path d="M0 0 C2 2 2 2 3 4 C3.99 3.01 4.98 2.02 6 1 C6.99 1.33 7.98 1.66 9 2 C8.01 2.66 7.02 3.32 6 4 C5.19458793 7.10811287 5.19458793 7.10811287 4.8125 10.625 C4.65394531 11.81351563 4.49539062 13.00203125 4.33203125 14.2265625 C4.22246094 15.14179688 4.11289063 16.05703125 4 17 C3.34 17 2.68 17 2 17 C1.34 18.32 0.68 19.64 0 21 C-0.66 20.67 -1.32 20.34 -2 20 C-1.835 19.113125 -1.67 18.22625 -1.5 17.3125 C-1.07004243 14.46403108 -0.91558965 11.86995198 -1 9 C-1.66 8.67 -2.32 8.34 -3 8 C-3 7.34 -3 6.68 -3 6 C-2.01 6 -1.02 6 0 6 C0 4.02 0 2.04 0 0 Z " fill="#6F833D" transform="translate(127,119)"/>
<path d="M0 0 C0.66 0.33 1.32 0.66 2 1 C1.44570312 1.59167969 0.89140625 2.18335937 0.3203125 2.79296875 C-0.40414062 3.58316406 -1.12859375 4.37335938 -1.875 5.1875 C-2.59429687 5.96480469 -3.31359375 6.74210937 -4.0546875 7.54296875 C-5.9817092 9.97689776 -7.01300111 12.07536646 -8 15 C-7.01 15 -6.02 15 -5 15 C-6.28965176 16.37562854 -7.62689293 17.70766393 -9 19 C-9.66 19 -10.32 19 -11 19 C-11.33 20.65 -11.66 22.3 -12 24 C-13.32 24.33 -14.64 24.66 -16 25 C-16.48828125 19.140625 -16.48828125 19.140625 -16 17 C-14.38146794 15.60863034 -12.70576845 14.28293007 -11 13 C-9.3924133 11.1635098 -7.82995784 9.2866362 -6.3125 7.375 C-2.12582781 2.12582781 -2.12582781 2.12582781 0 0 Z " fill="#6F8240" transform="translate(156,88)"/>
<path d="M0 0 C0.598125 0.495 1.19625 0.99 1.8125 1.5 C3.97029994 3.28276418 3.97029994 3.28276418 7 3 C10 8.75 10 8.75 10 11 C2.7515055 11.41640288 -3.16914355 10.44166784 -10 8 C-10 7.67 -10 7.34 -10 7 C-6.4780279 6.91995518 -3.38018531 6.95994298 0 8 C0.98120464 4.94736336 0.98120464 3.05263664 0 0 Z " fill="#6F8046" transform="translate(152,129)"/>
<path d="M0 0 C0 2.83967231 -0.40267181 5.23735711 -1 8 C2.19265548 7.20935627 2.19265548 7.20935627 4.3125 4.4375 C7 2 7 2 10.1875 1.5625 C13 2 13 2 15 4 C13.9275 3.9175 12.855 3.835 11.75 3.75 C7.95990735 3.63762783 7.95990735 3.63762783 5.5625 6 C5.046875 6.66 4.53125 7.32 4 8 C4.99 8.66 5.98 9.32 7 10 C5.625 11.5 5.625 11.5 4 13 C3.34 13 2.68 13 2 13 C1.855625 13.94875 1.71125 14.8975 1.5625 15.875 C1 19 1 19 0 21 C-1 20 -1 20 -1.25 17.25 C-0.97434074 13.66642963 -0.04806115 11.90141996 2 9 C0.02 9.99 0.02 9.99 -2 11 C-2 13.31 -2 15.62 -2 18 C-2.99 18.33 -3.98 18.66 -5 19 C-4.85950482 17.52031676 -4.71245174 16.04125484 -4.5625 14.5625 C-4.48128906 13.73878906 -4.40007813 12.91507813 -4.31640625 12.06640625 C-4 10 -4 10 -3 9 C-2.74994614 6.04182893 -2.74994614 6.04182893 -3 3 C-3.66 2.34 -4.32 1.68 -5 1 C-3.35 0.67 -1.7 0.34 0 0 Z " fill="#B4B4B4" transform="translate(62,68)"/>
<path d="M0 0 C4.70238725 0.46101836 8.23262357 1.03176403 12 4 C12 4.99 12 5.98 12 7 C9.69 6.34 7.38 5.68 5 5 C4.67 7.64 4.34 10.28 4 13 C0.25474201 9.25474201 0.31090051 5.01729091 0 0 Z " fill="#828F5B" transform="translate(108,96)"/>
<path d="M0 0 C0 0.66 0 1.32 0 2 C-0.66 2 -1.32 2 -2 2 C-2.66 3.32 -3.32 4.64 -4 6 C-4.66 5.67 -5.32 5.34 -6 5 C-6.33 5.99 -6.66 6.98 -7 8 C-7.99 8 -8.98 8 -10 8 C-10.33 8.66 -10.66 9.32 -11 10 C-10.01 10.33 -9.02 10.66 -8 11 C-9.65 11.33 -11.3 11.66 -13 12 C-13 9.33333333 -13 6.66666667 -13 4 C-4.738041 -0.59225513 -4.738041 -0.59225513 0 0 Z " fill="#708241" transform="translate(109,176)"/>
<path d="M0 0 C0.66 0 1.32 0 2 0 C2.33 0.99 2.66 1.98 3 3 C5.64 3 8.28 3 11 3 C11.33 4.32 11.66 5.64 12 7 C11.01 7.495 11.01 7.495 10 8 C10 7.34 10 6.68 10 6 C9.34 6 8.68 6 8 6 C7.01 7.485 7.01 7.485 6 9 C5.34 8.67 4.68 8.34 4 8 C4 7.01 4 6.02 4 5 C3.01 5.495 3.01 5.495 2 6 C1.67 6.99 1.34 7.98 1 9 C-0.32 9 -1.64 9 -3 9 C-2.67 8.01 -2.34 7.02 -2 6 C-2.66 6 -3.32 6 -4 6 C-2.84826645 3.53199953 -1.95216435 1.95216435 0 0 Z " fill="#6C823C" transform="translate(72,129)"/>
<path d="M0 0 C2 1 4 2 6 3 C6.625 6.0625 6.625 6.0625 7 9 C1.375 9.25 1.375 9.25 -2 7 C-2.99 7.33 -3.98 7.66 -5 8 C-5 7.34 -5 6.68 -5 6 C-5.66 5.67 -6.32 5.34 -7 5 C-6.030625 4.54625 -5.06125 4.0925 -4.0625 3.625 C-0.92920418 2.34213779 -0.92920418 2.34213779 0 0 Z " fill="#F8F6F3" transform="translate(161,89)"/>
<path d="M0 0 C0.66 0.33 1.32 0.66 2 1 C1.9278125 1.88042969 1.855625 2.76085937 1.78125 3.66796875 C1.6884375 4.82941406 1.595625 5.99085937 1.5 7.1875 C1.4071875 8.33605469 1.314375 9.48460938 1.21875 10.66796875 C0.93837304 13.91084847 0.93837304 13.91084847 1.15625 16.80078125 C1.1046875 17.52652344 1.053125 18.25226563 1 19 C0.01 19.66 -0.98 20.32 -2 21 C-2.66 20.01 -3.32 19.02 -4 18 C-4.99 17.67 -5.98 17.34 -7 17 C-6.01 16.67 -5.02 16.34 -4 16 C-3.855625 15.195625 -3.71125 14.39125 -3.5625 13.5625 C-3 11 -3 11 -2 10 C-1.6068352 8.32115762 -1.25914548 6.63149955 -0.9375 4.9375 C-0.76089844 4.01839844 -0.58429688 3.09929687 -0.40234375 2.15234375 C-0.26957031 1.44207031 -0.13679687 0.73179688 0 0 Z " fill="#E9E8E2" transform="translate(159,67)"/>
<path d="M0 0 C2.10304477 -0.1080023 4.20766909 -0.18558987 6.3125 -0.25 C8.07013672 -0.31960937 8.07013672 -0.31960937 9.86328125 -0.390625 C11.41595703 -0.19726562 11.41595703 -0.19726562 13 0 C13.99 1.32 14.98 2.64 16 4 C10.06 3.01 10.06 3.01 4 2 C4 2.66 4 3.32 4 4 C5.98 4 7.96 4 10 4 C9.01 5.32 8.02 6.64 7 8 C5.1875 7.8125 5.1875 7.8125 3 7 C0 2.82142857 0 2.82142857 0 0 Z " fill="#7F9059" transform="translate(77,156)"/>
<path d="M0 0 C1.98 0 3.96 0 6 0 C6.66 1.32 7.32 2.64 8 4 C7.01 4.33 6.02 4.66 5 5 C5 5.66 5 6.32 5 7 C3.68 7.33 2.36 7.66 1 8 C1 9.98 1 11.96 1 14 C0.01 13.34 -0.98 12.68 -2 12 C-1.67 11.67 -1.34 11.34 -1 11 C-1.28730055 8.66055264 -1.61936779 6.3260857 -2 4 C-1.01 3.34 -0.02 2.68 1 2 C0.67 1.34 0.34 0.68 0 0 Z " fill="#FBFBFB" transform="translate(167,68)"/>
<path d="M0 0 C2.4375 1.5 2.4375 1.5 4 3 C3.67 3.66 3.34 4.32 3 5 C2.236875 4.484375 1.47375 3.96875 0.6875 3.4375 C-0.199375 2.963125 -1.08625 2.48875 -2 2 C-2.99 2.33 -3.98 2.66 -5 3 C-3.68 3.66 -2.36 4.32 -1 5 C-1 6.32 -1 7.64 -1 9 C-0.34 9.66 0.32 10.32 1 11 C-0.65 11 -2.3 11 -4 11 C-4.33 9.35 -4.66 7.7 -5 6 C-7.64 6 -10.28 6 -13 6 C-8.79287206 0.53073368 -7.02403919 -0.4844165 0 0 Z " fill="#BABAB9" transform="translate(178,63)"/>
<path d="M0 0 C0.99 0.33 1.98 0.66 3 1 C3 1.66 3 2.32 3 3 C4.32 3.33 5.64 3.66 7 4 C7.66 3.01 8.32 2.02 9 1 C9.6875 2.8125 9.6875 2.8125 10 5 C8.625 6.5625 8.625 6.5625 7 8 C6.67 8.99 6.34 9.98 6 11 C5.67 10.34 5.34 9.68 5 9 C4.01 9 3.02 9 2 9 C2 7.68 2 6.36 2 5 C1.34 5 0.68 5 0 5 C0 4.34 0 3.68 0 3 C-0.99 3 -1.98 3 -3 3 C-2 1 -2 1 0 0 Z " fill="#F6F8F4" transform="translate(105,110)"/>
<path d="M0 0 C0.33 0.99 0.66 1.98 1 3 C0.01 3.99 -0.98 4.98 -2 6 C-3.98 5.34 -5.96 4.68 -8 4 C-8 4.66 -8 5.32 -8 6 C-7.34 6.33 -6.68 6.66 -6 7 C-6.66 7.66 -7.32 8.32 -8 9 C-11.17280351 8.56237193 -14.05667611 7.22638495 -17 6 C-13.85471518 3.90314345 -11.58922097 3.28498324 -7.9375 2.4375 C-3.85449069 1.53440676 -3.85449069 1.53440676 0 0 Z " fill="#E5EBD7" transform="translate(159,114)"/>
<path d="M0 0 C0.66 0.99 1.32 1.98 2 3 C2.680625 3.99 3.36125 4.98 4.0625 6 C6 9 6 9 7 12 C1.72 11.01 -3.56 10.02 -9 9 C-6.4345406 6.4345406 -4.52313332 6.45953913 -1 6 C-1.020625 5.195625 -1.04125 4.39125 -1.0625 3.5625 C-1 1 -1 1 0 0 Z " fill="#E9F1D8" transform="translate(71,100)"/>
<path d="M0 0 C0 0.33 0 0.66 0 1 C-1.11375 1.2475 -2.2275 1.495 -3.375 1.75 C-7.01508809 2.61487878 -7.01508809 2.61487878 -8.4375 5 C-9.09024853 6.9746176 -9.09024853 6.9746176 -9 9 C-8.34 9.33 -7.68 9.66 -7 10 C-7.7115625 10.7734375 -7.7115625 10.7734375 -8.4375 11.5625 C-10.42809407 14.66782675 -10.65060818 17.36632504 -11 21 C-13.58215672 18.41784328 -13.29794465 17.27296873 -13.3125 13.6875 C-13.20219682 8.06203802 -12.18062831 5.18062831 -8.1875 1.1875 C-5.34600006 -0.35502854 -3.18292189 -0.2170174 0 0 Z " fill="#AAAAAA" transform="translate(125,32)"/>
<path d="M0 0 C2.75 0.4375 2.75 0.4375 6 2 C7.91568003 4.81296694 9.31587487 7.65918895 10 11 C9.09375 13.2890625 9.09375 13.2890625 8 15 C7.67 13.02 7.34 11.04 7 9 C6.01 9 5.02 9 4 9 C3.34 7.68 2.68 6.36 2 5 C-0.31 5 -2.62 5 -5 5 C-3.33333333 3.33333333 -1.66666667 1.66666667 0 0 Z " fill="#CACACA" transform="translate(152,146)"/>
<path d="M0 0 C0.99 0.33 1.98 0.66 3 1 C2.34 1 1.68 1 1 1 C1.33 1.5775 1.66 2.155 2 2.75 C3 5 3 5 3 9 C1.02 9 -0.96 9 -3 9 C-0.69 9.33 1.62 9.66 4 10 C0.36576791 12.32590854 -2.77088331 12.16265833 -7 12 C-6.67 10.35 -6.34 8.7 -6 7 C-4.02 6.34 -2.04 5.68 0 5 C-0.2784375 4.0409375 -0.2784375 4.0409375 -0.5625 3.0625 C-0.706875 2.381875 -0.85125 1.70125 -1 1 C-0.67 0.67 -0.34 0.34 0 0 Z " fill="#6D853C" transform="translate(149,106)"/>
<path d="M0 0 C0.66 0.33 1.32 0.66 2 1 C2 1.33 2 1.66 2 2 C2.33 1.67 2.66 1.34 3 1 C5.9375 0.8125 5.9375 0.8125 9 1 C11 3 11 3 11 5 C8.24921116 5.91692961 6.64051087 6.10886083 3.8125 6.0625 C1.9253125 6.0315625 1.9253125 6.0315625 0 6 C0 5.34 0 4.68 0 4 C-1.32 3.34 -2.64 2.68 -4 2 C-2.125 0.9375 -2.125 0.9375 0 0 Z " fill="#7D8E56" transform="translate(95,168)"/>
<path d="M0 0 C0.66 0.33 1.32 0.66 2 1 C1.34 2.32 0.68 3.64 0 5 C0.66 5 1.32 5 2 5 C2.66 3.68 3.32 2.36 4 1 C4.66 2.98 5.32 4.96 6 7 C6.66 7 7.32 7 8 7 C8 7.66 8 8.32 8 9 C5.23735711 9.59732819 2.83967231 10 0 10 C0 8.68 0 7.36 0 6 C-0.99 5.67 -1.98 5.34 -3 5 C-2.67 4.01 -2.34 3.02 -2 2 C-1.34 2 -0.68 2 0 2 C0 1.34 0 0.68 0 0 Z " fill="#F8F7F5" transform="translate(91,144)"/>
<path d="M0 0 C3.4375 1.3125 3.4375 1.3125 7 3 C7.33 3.99 7.66 4.98 8 6 C7.4225 6.268125 6.845 6.53625 6.25 6.8125 C3.96587952 8.01800803 2.04568469 9.43135523 0 11 C-0.19406478 9.35492782 -0.38007935 7.70890406 -0.5625 6.0625 C-0.66691406 5.14597656 -0.77132812 4.22945312 -0.87890625 3.28515625 C-0.91886719 2.53105469 -0.95882812 1.77695313 -1 1 C-0.67 0.67 -0.34 0.34 0 0 Z " fill="#574537" transform="translate(133,133)"/>
<path d="M0 0 C-2.14678813 1.74923478 -3.96925761 2.98800297 -6.5625 4 C-9.03064201 5.01257108 -10.27589183 6.00366422 -12 8 C-12.99 7.34 -13.98 6.68 -15 6 C-14.73046875 4.11328125 -14.73046875 4.11328125 -14 2 C-9.56331865 -0.93308051 -5.08799491 -1.3991986 0 0 Z " fill="#818F58" transform="translate(64,110)"/>
<path d="M0 0 C0.33 2.64 0.66 5.28 1 8 C-1.31 7.01 -3.62 6.02 -6 5 C-6.28875 5.804375 -6.5775 6.60875 -6.875 7.4375 C-8 10 -8 10 -10 11 C-10.2421875 8.70703125 -10.2421875 8.70703125 -10 6 C-8.3203125 4.19921875 -8.3203125 4.19921875 -6.125 2.6875 C-5.04605469 1.91986328 -5.04605469 1.91986328 -3.9453125 1.13671875 C-2 0 -2 0 0 0 Z " fill="#7B875E" transform="translate(104,97)"/>
<path d="M0 0 C0.33 0.66 0.66 1.32 1 2 C1.66 2.33 2.32 2.66 3 3 C1 7 -1 11 -3 15 C-3.12375 14.360625 -3.2475 13.72125 -3.375 13.0625 C-3.58125 12.381875 -3.7875 11.70125 -4 11 C-4.66 10.67 -5.32 10.34 -6 10 C-6.625 6.9375 -6.625 6.9375 -7 4 C-5.34385343 3.61781233 -3.67542976 3.28604898 -2 3 C-1.67 3.33 -1.34 3.66 -1 4 C-0.67 2.68 -0.34 1.36 0 0 Z " fill="#899753" transform="translate(128,134)"/>
<path d="M0 0 C1.32 0.66 2.64 1.32 4 2 C2.02 2.99 2.02 2.99 0 4 C1.98 3.34 3.96 2.68 6 2 C5.67 2.99 5.34 3.98 5 5 C3.865625 5.12375 2.73125 5.2475 1.5625 5.375 C-0.2009375 5.684375 -0.2009375 5.684375 -2 6 C-2.33 6.66 -2.66 7.32 -3 8 C-6.37462715 7.45276317 -8.08235 6.9451 -11 5 C-10.01 5 -9.02 5 -8 5 C-7.67 4.34 -7.34 3.68 -7 3 C-4.67843403 2.59270772 -2.3431213 2.25561323 0 2 C0 1.34 0 0.68 0 0 Z " fill="#D5D6D5" transform="translate(175,90)"/>
<path d="M0 0 C5 2 5 2 10 4 C9.67 4.66 9.34 5.32 9 6 C7.35 6 5.7 6 4 6 C4 5.34 4 4.68 4 4 C2.35 3.67 0.7 3.34 -1 3 C-1.5534764 5.07553648 -2 6.84365964 -2 9 C-2.33 9.99 -2.66 10.98 -3 12 C-3.99 11.01 -4.98 10.02 -6 9 C-2.25 2.25 -2.25 2.25 0 0 Z " fill="#EEF2E5" transform="translate(114,178)"/>
<path d="M0 0 C0.33 0.66 0.66 1.32 1 2 C0.67 2.66 0.34 3.32 0 4 C0.639375 4.12375 1.27875 4.2475 1.9375 4.375 C2.618125 4.58125 3.29875 4.7875 4 5 C4.33 5.66 4.66 6.32 5 7 C3.35 7 1.7 7 0 7 C0 7.66 0 8.32 0 9 C0.99 9 1.98 9 3 9 C3.99 10.98 4.98 12.96 6 15 C2.34683329 13.75023244 1.21934164 13.32901247 -1 10 C-1.99 9.34 -2.98 8.68 -4 8 C-1.125 1.125 -1.125 1.125 0 0 Z " fill="#493C31" transform="translate(147,154)"/>
<path d="M0 0 C1.175625 0.28875 2.35125 0.5775 3.5625 0.875 C1.57815372 2.85934628 0.1988263 3.60331894 -2.3125 4.75 C-5.63582222 6.35727947 -8.00591141 8.03814665 -10.4375 10.875 C-10.7675 9.225 -11.0975 7.575 -11.4375 5.875 C-5.31196433 -0.72909314 -5.31196433 -0.72909314 0 0 Z " fill="#EAF2DA" transform="translate(102.4375,174.125)"/>
<path d="M0 0 C0.495 0.185625 0.99 0.37125 1.5 0.5625 C5.15081689 1.20139296 8.33964724 0.54905291 12 0 C12 0.99 12 1.98 12 3 C6.60539047 5.27141454 1.73842251 5.20413361 -4 5 C-2.68 3.35 -1.36 1.7 0 0 Z " fill="#CCC9BA" transform="translate(134,163)"/>
<path d="M0 0 C2 2 2 2 2.1171875 4.05859375 C1.45703839 10.54296161 1.45703839 10.54296161 -1.0625 13.0625 C-1.701875 13.371875 -2.34125 13.68125 -3 14 C-2.979375 13.2575 -2.95875 12.515 -2.9375 11.75 C-2.87520684 9.07965594 -2.87520684 9.07965594 -3.625 6.9375 C-4.12957056 4.33055212 -3.43031778 3.18311661 -2 1 C-1.34 0.67 -0.68 0.34 0 0 Z " fill="#544829" transform="translate(123,143)"/>
<path d="M0 0 C1.65 0 3.3 0 5 0 C5.33 2.64 5.66 5.28 6 8 C4.02 8 2.04 8 0 8 C-0.33 8.99 -0.66 9.98 -1 11 C-1 9.02 -1 7.04 -1 5 C-1.99 5 -2.98 5 -4 5 C-3.67 4.34 -3.34 3.68 -3 3 C-0.9375 2.375 -0.9375 2.375 1 2 C0.67 1.34 0.34 0.68 0 0 Z " fill="#F4F1EA" transform="translate(65,91)"/>
<path d="M0 0 C4.12690485 2.94778918 8.03035368 6.22886645 10 11 C9.82076923 14.0100227 9.05880843 16.1260914 8 19 C7.67 19 7.34 19 7 19 C6.72285156 18.08476563 6.44570312 17.16953125 6.16015625 16.2265625 C5.61681641 14.44378906 5.61681641 14.44378906 5.0625 12.625 C4.52302734 10.84996094 4.52302734 10.84996094 3.97265625 9.0390625 C2.62366771 4.71911019 2.62366771 4.71911019 -1 2 C-0.67 1.34 -0.34 0.68 0 0 Z " fill="#DBE3C3" transform="translate(83,94)"/>
<path d="M0 0 C5.65394631 -0.34615998 9.03006806 0.56574762 14 3 C13.34 4.65 12.68 6.3 12 8 C11.34 7.67 10.68 7.34 10 7 C10 6.01 10 5.02 10 4 C8.35 3.67 6.7 3.34 5 3 C4.67 3.66 4.34 4.32 4 5 C3.67 4.34 3.34 3.68 3 3 C2.01 2.67 1.02 2.34 0 2 C0 1.34 0 0.68 0 0 Z " fill="#7C8D5B" transform="translate(156,99)"/>
<path d="M0 0 C0.66 0.33 1.32 0.66 2 1 C1.2884375 1.61875 1.2884375 1.61875 0.5625 2.25 C-1.16266518 4.182185 -1.56584875 5.48192275 -2 8 C-0.68 8.66 0.64 9.32 2 10 C-0.97 10 -3.94 10 -7 10 C-6.52048204 5.68433833 -5.29764982 3.7980059 -2 1 C-1.34 0.67 -0.68 0.34 0 0 Z " fill="#819161" transform="translate(97,181)"/>
<path d="M0 0 C0.33 0.66 0.66 1.32 1 2 C0.34 2 -0.32 2 -1 2 C-1 2.66 -1 3.32 -1 4 C-2.65532623 5.01866229 -4.32260138 6.01810813 -6 7 C-6.33 7.66 -6.66 8.32 -7 9 C-8.32 8.34 -9.64 7.68 -11 7 C-10.34 6.34 -9.68 5.68 -9 5 C-9.66 4.67 -10.32 4.34 -11 4 C-11 3.34 -11 2.68 -11 2 C-10.06027344 1.90912109 -10.06027344 1.90912109 -9.1015625 1.81640625 C-7.87566406 1.69072266 -7.87566406 1.69072266 -6.625 1.5625 C-5.81289062 1.48128906 -5.00078125 1.40007812 -4.1640625 1.31640625 C-1.95727195 1.10909886 -1.95727195 1.10909886 0 0 Z M-11 9 C-9 10 -9 10 -9 10 Z " fill="#E7F0DF" transform="translate(139,182)"/>
<path d="M0 0 C0.66 0 1.32 0 2 0 C2 1.32 2 2.64 2 4 C2.66 4 3.32 4 4 4 C4 4.99 4 5.98 4 7 C-0.95 6.67 -5.9 6.34 -11 6 C-10.67 4.68 -10.34 3.36 -10 2 C-9.236875 2.350625 -8.47375 2.70125 -7.6875 3.0625 C-4.95240621 4.32360884 -4.95240621 4.32360884 -2 3 C-1.34 3.33 -0.68 3.66 0 4 C0 2.68 0 1.36 0 0 Z " fill="#EBEEE1" transform="translate(89,150)"/>
<path d="M0 0 C0.66 0 1.32 0 2 0 C5.125 6.25 5.125 6.25 4 11 C4.99 11.33 5.98 11.66 7 12 C7 12.66 7 13.32 7 14 C5.14453125 13.8046875 5.14453125 13.8046875 3 13 C1.69921875 10.8203125 1.69921875 10.8203125 0.6875 8.125 C0.16736328 6.79855469 0.16736328 6.79855469 -0.36328125 5.4453125 C-1 3 -1 3 0 0 Z " fill="#83945C" transform="translate(71,94)"/>
<path d="M0 0 C0.33 1.32 0.66 2.64 1 4 C1.99 3.67 2.98 3.34 4 3 C4.33 3.66 4.66 4.32 5 5 C5.66 4.67 6.32 4.34 7 4 C8.231394 7.69418201 7.64432764 10.2056261 7 14 C6.34 13.67 5.68 13.34 5 13 C4.896875 12.38125 4.79375 11.7625 4.6875 11.125 C3.6946064 8.05605613 1.77790438 7.42456635 -1 6 C-0.67 4.02 -0.34 2.04 0 0 Z " fill="#6F8340" transform="translate(119,108)"/>
<path d="M0 0 C1.98 0.99 1.98 0.99 4 2 C3.67 2.99 3.34 3.98 3 5 C3.598125 5.061875 4.19625 5.12375 4.8125 5.1875 C7.90339529 6.33554682 8.5880344 8.10547052 10 11 C10 11.66 10 12.32 10 13 C9.34 13 8.68 13 8 13 C8 13.66 8 14.32 8 15 C8.66 15.33 9.32 15.66 10 16 C9.01 16.33 8.02 16.66 7 17 C7 15.02 7 13.04 7 11 C6.34 10.67 5.68 10.34 5 10 C5 8.68 5 7.36 5 6 C4.01 6.33 3.02 6.66 2 7 C1.34 4.69 0.68 2.38 0 0 Z " fill="#677B3A" transform="translate(68,88)"/>
<path d="M0 0 C0.66 0.33 1.32 0.66 2 1 C2 1.66 2 2.32 2 3 C2.66 3.33 3.32 3.66 4 4 C4 7.11227195 3.54372951 9.94152152 3 13 C2.34 13 1.68 13 1 13 C0.67 13.66 0.34 14.32 0 15 C-2 7.375 -2 7.375 -2 4 C-1.34 4.66 -0.68 5.32 0 6 C0 4.02 0 2.04 0 0 Z " fill="#BDBDBD" transform="translate(147,42)"/>
<path d="M0 0 C1.04167441 4.09725269 0.94409525 7.61495224 0.5625 11.8125 C0.46066406 12.97394531 0.35882813 14.13539062 0.25390625 15.33203125 C0.17011719 16.21246094 0.08632812 17.09289062 0 18 C-0.33 18 -0.66 18 -1 18 C-1.33 13.38 -1.66 8.76 -2 4 C-2.99 4.33 -3.98 4.66 -5 5 C-5 3.68 -5 2.36 -5 1 C-2 0 -2 0 0 0 Z " fill="#E2E8DA" transform="translate(143,74)"/>
<path d="M0 0 C1.66623639 0.03786901 3.33397597 0.04627845 5 0 C4.1875 1.9375 4.1875 1.9375 3 4 C2.01 4.33 1.02 4.66 0 5 C-0.66 5.66 -1.32 6.32 -2 7 C-2.33 5.35 -2.66 3.7 -3 2 C-3 2.66 -3 3.32 -3 4 C-3.99 4 -4.98 4 -6 4 C-6 2.68 -6 1.36 -6 0 C-3.44640395 -1.27679803 -2.7090348 -0.69660895 0 0 Z " fill="#DFE1DF" transform="translate(162,65)"/>
<path d="M0 0 C0.33 0 0.66 0 1 0 C1.66 5.94 2.32 11.88 3 18 C0.55213773 15.55213773 -0.30080644 13.25682658 -1.625 10.0625 C-2.29402344 8.47115234 -2.29402344 8.47115234 -2.9765625 6.84765625 C-4 4 -4 4 -4 1 C-3.34 1 -2.68 1 -2 1 C-1.67 1.99 -1.34 2.98 -1 4 C-0.67 2.68 -0.34 1.36 0 0 Z " fill="#DDD3C7" transform="translate(114,124)"/>
<path d="M0 0 C2.96844435 -0.35338623 5.15598218 -0.5417682 7.734375 1.11328125 C9.20348819 2.35503168 10.60704814 3.67337918 12 5 C11.01 5.99 10.02 6.98 9 8 C8.46375 7.319375 7.9275 6.63875 7.375 5.9375 C5.08837848 3.61740673 5.08837848 3.61740673 1.75 4.25 C0.38875 4.62125 0.38875 4.62125 -1 5 C-0.67 3.35 -0.34 1.7 0 0 Z " fill="#798858" transform="translate(130,175)"/>
<path d="M0 0 C3.46865468 2.19681463 4.93033148 4.01305369 6 8 C5.66641914 10.33506599 5.05310196 11.89379608 4 14 C3.34 13.67 2.68 13.34 2 13 C2 12.01 2 11.02 2 10 C1.34 10.66 0.68 11.32 0 12 C-0.125 9.625 -0.125 9.625 0 7 C0.66 6.34 1.32 5.68 2 5 C1.34 3.35 0.68 1.7 0 0 Z " fill="#89A058" transform="translate(110,136)"/>
<path d="M0 0 C0.33 0.66 0.66 1.32 1 2 C0.566875 2.37125 0.13375 2.7425 -0.3125 3.125 C-2.20454705 5.05039686 -2.20454705 5.05039686 -3.5 8.125 C-5 11 -5 11 -8 12 C-7.49416388 7.64980938 -6.70024001 4.50031113 -4 1 C-1.8125 0.1875 -1.8125 0.1875 0 0 Z " fill="#889860" transform="translate(71,133)"/>
<path d="M0 0 C1.0828125 0.4640625 1.0828125 0.4640625 2.1875 0.9375 C4.92439324 2.06363366 4.92439324 2.06363366 7.625 2.5 C10 3 10 3 13 5 C12.67 5.66 12.34 6.32 12 7 C11.01 6.690625 10.02 6.38125 9 6.0625 C5.02268878 4.91566793 1.11232621 4.43287644 -3 4 C-2.67 3.34 -2.34 2.68 -2 2 C-1.34 2 -0.68 2 0 2 C0 1.34 0 0.68 0 0 Z " fill="#EFF4E3" transform="translate(158,95)"/>
<path d="M0 0 C1.9375 0.625 1.9375 0.625 4 2 C5.04813666 5.70879127 5.13800351 8.35838877 4 12 C3.65421232 13.99788438 3.31856451 15.99759451 3 18 C2.67 18 2.34 18 2 18 C1.67 15.03 1.34 12.06 1 9 C0.01 8.67 -0.98 8.34 -2 8 C-0.68 7.67 0.64 7.34 2 7 C1.34414811 3.39007621 1.34414811 3.39007621 0 0 Z " fill="#B2B2B2" transform="translate(179,74)"/>
<path d="M0 0 C2.375 0.1875 2.375 0.1875 5 1 C7.64949522 4.85381123 6.98255062 8.68440332 6.484375 13.109375 C6.32453125 13.73328125 6.1646875 14.3571875 6 15 C5.01 15.495 5.01 15.495 4 16 C4.020625 14.7625 4.04125 13.525 4.0625 12.25 C4.114392 8.02413874 4.114392 8.02413874 3 4 C2.01 3.67 1.02 3.34 0 3 C0 2.01 0 1.02 0 0 Z " fill="#C2C2C2" transform="translate(183,68)"/>
<path d="M0 0 C0.66 0 1.32 0 2 0 C2.67260351 1.76858691 3.33788395 3.53996016 4 5.3125 C4.37125 6.29863281 4.7425 7.28476563 5.125 8.30078125 C6 11 6 11 6 14 C0.25 9.25 0.25 9.25 -2 7 C-1.67 6.34 -1.34 5.68 -1 5 C-0.34 5 0.32 5 1 5 C0.67 3.35 0.34 1.7 0 0 Z " fill="#E3EACD" transform="translate(100,152)"/>
<path d="M0 0 C1.98 0.495 1.98 0.495 4 1 C4 1.66 4 2.32 4 3 C5.65 2.67 7.3 2.34 9 2 C8.67 4.31 8.34 6.62 8 9 C6.66666667 7.66666667 5.33333333 6.33333333 4 5 C3.34 5.66 2.68 6.32 2 7 C0.4375 5.1875 0.4375 5.1875 -1 3 C-0.67 2.01 -0.34 1.02 0 0 Z " fill="#5D7230" transform="translate(93,134)"/>
<path d="M0 0 C0.70125 0.7425 1.4025 1.485 2.125 2.25 C4.97718006 4.97817223 7.6763063 6.91302954 11 9 C10.01 9.66 9.02 10.32 8 11 C1.82238011 7.4937833 1.82238011 7.4937833 0 5 C-0.1875 2.3125 -0.1875 2.3125 0 0 Z " fill="#EBEFE0" transform="translate(79,162)"/>
<path d="M0 0 C1.65 0 3.3 0 5 0 C5.33 0.99 5.66 1.98 6 3 C6.66 3.33 7.32 3.66 8 4 C8.75 5.9375 8.75 5.9375 9 8 C8.34 8.66 7.68 9.32 7 10 C6.34 9.01 5.68 8.02 5 7 C4.01 6.67 3.02 6.34 2 6 C2 5.01 2 4.02 2 3 C1.01 3.495 1.01 3.495 0 4 C0 2.68 0 1.36 0 0 Z " fill="#D9D2CC" transform="translate(145,152)"/>
<path d="M0 0 C1.21346851 3.64040554 1.21346851 5.35959446 0 9 C-1.32 9 -2.64 9 -4 9 C-4.33 8.01 -4.66 7.02 -5 6 C-5.99 5.34 -6.98 4.68 -8 4 C-7.67 3.01 -7.34 2.02 -7 1 C-6.34 1.33 -5.68 1.66 -5 2 C-4.01 2.33 -3.02 2.66 -2 3 C-1.34 2.01 -0.68 1.02 0 0 Z " fill="#6A843B" transform="translate(138,149)"/>
<path d="M0 0 C0.99 0 1.98 0 3 0 C3 0.66 3 1.32 3 2 C3.66 2 4.32 2 5 2 C5 3.32 5 4.64 5 6 C5.99 6 6.98 6 8 6 C8.66 7.98 9.32 9.96 10 12 C9.01 12.33 8.02 12.66 7 13 C5.83072457 11.02237345 4.66464427 9.04285742 3.5 7.0625 C2.8503125 5.96035156 2.200625 4.85820313 1.53125 3.72265625 C0 1 0 1 0 0 Z " fill="#ECE7E1" transform="translate(102,113)"/>
<path d="M0 0 C1.32 0.66 2.64 1.32 4 2 C2.68 2 1.36 2 0 2 C0 2.66 0 3.32 0 4 C0.99 4.33 1.98 4.66 3 5 C-0.3 5 -3.6 5 -7 5 C-7 4.34 -7 3.68 -7 3 C-8.32 2.67 -9.64 2.34 -11 2 C-10.28972656 1.93941406 -9.57945313 1.87882812 -8.84765625 1.81640625 C-7.46900391 1.69072266 -7.46900391 1.69072266 -6.0625 1.5625 C-5.14597656 1.48128906 -4.22945313 1.40007812 -3.28515625 1.31640625 C-1.03840268 1.23955024 -1.03840268 1.23955024 0 0 Z " fill="#99A872" transform="translate(73,120)"/>
<path d="M0 0 C1.16903873 3.50711619 1.16839619 6.36782386 1.1875 10.0625 C1.20167969 11.31160156 1.21585938 12.56070313 1.23046875 13.84765625 C1 17 1 17 -1 19 C-2.40742022 16.18515955 -1.66652164 14.43063887 -1.0625 11.375 C-0.77052734 9.87066406 -0.77052734 9.87066406 -0.47265625 8.3359375 C-0.31667969 7.56507812 -0.16070312 6.79421875 0 6 C-0.66 5.67 -1.32 5.34 -2 5 C-2 4.01 -2 3.02 -2 2 C-2.66 1.67 -3.32 1.34 -4 1 C-2 0 -2 0 0 0 Z " fill="#73824E" transform="translate(141,78)"/>
<path d="M0 0 C0.66 0 1.32 0 2 0 C1.67 3.63 1.34 7.26 1 11 C0.01 11.33 -0.98 11.66 -2 12 C-2 11.01 -2 10.02 -2 9 C-2.66 9 -3.32 9 -4 9 C-4 7.35 -4 5.7 -4 4 C-3.01 4.33 -2.02 4.66 -1 5 C-0.67 3.35 -0.34 1.7 0 0 Z " fill="#8BA35A" transform="translate(139,84)"/>
<path d="M0 0 C2 4 2 4 1.375 6.6875 C0 9 0 9 -2.125 9.8125 C-2.74375 9.874375 -3.3625 9.93625 -4 10 C-4.66 9.01 -5.32 8.02 -6 7 C-4.02 4.69 -2.04 2.38 0 0 Z " fill="#534C3E" transform="translate(88,76)"/>
<path d="M0 0 C0.33 1.32 0.66 2.64 1 4 C-4.625 8.875 -4.625 8.875 -8 10 C-6.25 4.25 -6.25 4.25 -4 2 C-3.01 2.66 -2.02 3.32 -1 4 C-0.67 2.68 -0.34 1.36 0 0 Z " fill="#E4EBCD" transform="translate(145,97)"/>
<path d="M0 0 C0.33 0.66 0.66 1.32 1 2 C2.11375 1.7215625 2.11375 1.7215625 3.25 1.4375 C5.94990963 1.00796892 7.44631077 1.14877026 10 2 C8.35 3.65 6.7 5.3 5 7 C3.0625 6.3125 3.0625 6.3125 1 5 C0.25 2.375 0.25 2.375 0 0 Z " fill="#E9E9DC" transform="translate(90,96)"/>
<path d="M0 0 C0.99 0.33 1.98 0.66 3 1 C3 1.66 3 2.32 3 3 C3.99 2.67 4.98 2.34 6 2 C5.6875 4.375 5.6875 4.375 5 7 C4.01 7.66 3.02 8.32 2 9 C0.68 8.01 -0.64 7.02 -2 6 C-1 4 -1 4 1 3 C0.67 2.01 0.34 1.02 0 0 Z " fill="#ECE8E9" transform="translate(146,88)"/>
<path d="M0 0 C3.96 0.33 7.92 0.66 12 1 C10.35 2.65 8.7 4.3 7 6 C3.31197956 4.77065985 2.27643027 3.06140622 0 0 Z " fill="#EEEEEE" transform="translate(72,68)"/>
<path d="M0 0 C1.41377341 2.63904371 2.37240135 5.07120629 3 8 C3.99 8 4.98 8 6 8 C6.33 8.66 6.66 9.32 7 10 C6.01 10 5.02 10 4 10 C4 10.66 4 11.32 4 12 C3.01 12 2.02 12 1 12 C-1.27678571 3.96428571 -1.27678571 3.96428571 0 0 Z " fill="#8B9B5A" transform="translate(102,146)"/>
<path d="M0 0 C0 0.66 0 1.32 0 2 C-0.99 2 -1.98 2 -3 2 C-3 2.66 -3 3.32 -3 4 C-9.625 8 -9.625 8 -13 8 C-11.29885893 4.2975165 -10.18958357 3.09817721 -6.5 1.1875 C-3 0 -3 0 0 0 Z " fill="#919D62" transform="translate(140,144)"/>
<path d="M0 0 C0.33 0 0.66 0 1 0 C1.33 3.96 1.66 7.92 2 12 C1.01 12 0.02 12 -1 12 C-1 11.01 -1 10.02 -1 9 C-1.99 8.67 -2.98 8.34 -4 8 C-2.68 5.36 -1.36 2.72 0 0 Z " fill="#DEE6C6" transform="translate(88,126)"/>
<path d="M0 0 C1.051875 0.639375 2.10375 1.27875 3.1875 1.9375 C5.53936058 3.29910349 7.10992333 4.02198467 9.8125 4.5625 C12 5 12 5 14 8 C8.20373893 7.60025786 4.58527537 6.89748407 0 3 C0 2.01 0 1.02 0 0 Z " fill="#758454" transform="translate(52,116)"/>
<path d="M0 0 C0.66 0.99 1.32 1.98 2 3 C1.67 3.66 1.34 4.32 1 5 C-1.5625 5.625 -1.5625 5.625 -4 6 C-4 5.34 -4 4.68 -4 4 C-4.928125 4.309375 -4.928125 4.309375 -5.875 4.625 C-6.57625 4.74875 -7.2775 4.8725 -8 5 C-8.66 4.34 -9.32 3.68 -10 3 C-6.21812119 1.16308743 -4.05431692 0.84162374 0 2 C0 1.34 0 0.68 0 0 Z " fill="#F0F1ED" transform="translate(162,141)"/>
<path d="M0 0 C0.66 0.33 1.32 0.66 2 1 C1.67 3.97 1.34 6.94 1 10 C-0.32 9.34 -1.64 8.68 -3 8 C-2.25 2.25 -2.25 2.25 0 0 Z " fill="#F3EFE8" transform="translate(81,78)"/>
<path d="M0 0 C2.79133871 0.78208351 5.44481903 1.61706907 8 3 C9 5.6875 9 5.6875 9 8 C7.68 8 6.36 8 5 8 C4.34 7.34 3.68 6.68 3 6 C3.33 5.34 3.66 4.68 4 4 C2.68 3.34 1.36 2.68 0 2 C0 1.34 0 0.68 0 0 Z " fill="#EAE3DF" transform="translate(118,62)"/>
<path d="M0 0 C0.99 0.33 1.98 0.66 3 1 C4.6404616 4.43715763 5.24793513 6.18535599 4.125 9.875 C3.75375 10.57625 3.3825 11.2775 3 12 C2.34 11.67 1.68 11.34 1 11 C0.5859375 8.49609375 0.5859375 8.49609375 0.375 5.4375 C0.30023438 4.42558594 0.22546875 3.41367188 0.1484375 2.37109375 C0.09945312 1.58863281 0.05046875 0.80617188 0 0 Z " fill="#A8B18A" transform="translate(121,116)"/>
<path d="M0 0 C0 0.66 0 1.32 0 2 C-0.99 2.66 -1.98 3.32 -3 4 C-2.34 5.98 -1.68 7.96 -1 10 C-1.99 10.495 -1.99 10.495 -3 11 C-3.99 9.35 -4.98 7.7 -6 6 C-5.67 5.67 -5.34 5.34 -5 5 C-5.66 4.67 -6.32 4.34 -7 4 C-7 3.34 -7 2.68 -7 2 C-2.25 0 -2.25 0 0 0 Z " fill="#ECEEE0" transform="translate(160,120)"/>
<path d="M0 0 C4.23364476 1.41121492 5.96085259 4.11139332 8 8 C8.3125 11.4375 8.3125 11.4375 8 14 C7.01 14.495 7.01 14.495 6 15 C5.34 14.67 4.68 14.34 4 14 C4.4021875 12.7315625 4.4021875 12.7315625 4.8125 11.4375 C5.0491941 7.09810813 3.77437747 5.68335965 1.12890625 2.41796875 C0 1 0 1 0 0 Z " fill="#56603F" transform="translate(87,97)"/>
<path d="M0 0 C1.8125 0.1875 1.8125 0.1875 4 1 C6.09758712 3.87447123 7.35241592 6.50304596 8 10 C7.34 10 6.68 10 6 10 C6 11.65 6 13.3 6 15 C4.32889958 12.03821227 3.67317248 9.62928808 3.375 6.25 C3.30023438 5.45078125 3.22546875 4.6515625 3.1484375 3.828125 C3.07496094 2.92320312 3.07496094 2.92320312 3 2 C2.01 1.67 1.02 1.34 0 1 C0 0.67 0 0.34 0 0 Z " fill="#C8C8C8" transform="translate(160,150)"/>
<path d="M0 0 C0 3.63 0 7.26 0 11 C-2.51083114 9.74458443 -2.87125446 8.49936512 -4 6 C-4.33 6 -4.66 6 -5 6 C-5 4.35 -5 2.7 -5 1 C-1.125 0 -1.125 0 0 0 Z " fill="#6F8132" transform="translate(106,144)"/>
<path d="M0 0 C2.89932357 2.39509338 3.50168276 4.31245243 4 8 C3.34 8 2.68 8 2 8 C2 8.66 2 9.32 2 10 C1.01 10 0.02 10 -1 10 C-1.125 3.375 -1.125 3.375 0 0 Z " fill="#798A4D" transform="translate(102,135)"/>
<path d="M0 0 C5.78461538 3.32307692 5.78461538 3.32307692 6.875 6.75 C6.936875 7.86375 6.936875 7.86375 7 9 C4 9 4 9 2.3125 7.625 C1 6 1 6 1 4 C0.68521554 2.66216607 0.35412344 1.32796291 0 0 Z " fill="#524840" transform="translate(112,52)"/>
<path d="M0 0 C0.33 0.99 0.66 1.98 1 3 C-3.62197306 5.21854707 -6.76824163 6.38281159 -12 6 C-12.33 5.34 -12.66 4.68 -13 4 C-12.31292969 3.87882813 -11.62585938 3.75765625 -10.91796875 3.6328125 C-9.56638672 3.38144531 -9.56638672 3.38144531 -8.1875 3.125 C-7.29417969 2.96257812 -6.40085937 2.80015625 -5.48046875 2.6328125 C-2.77272154 2.08811551 -2.77272154 2.08811551 0 0 Z " fill="#E4EBD4" transform="translate(105,187)"/>
<path d="M0 0 C6.52307692 0.49230769 6.52307692 0.49230769 8.9375 3.0625 C9.288125 3.701875 9.63875 4.34125 10 5 C9.34 6.32 8.68 7.64 8 9 C7.34 9 6.68 9 6 9 C6.33 7.68 6.66 6.36 7 5 C4.36 4.01 1.72 3.02 -1 2 C-0.67 1.34 -0.34 0.68 0 0 Z " fill="#DEE1D3" transform="translate(85,140)"/>
<path d="M0 0 C0.33 0.66 0.66 1.32 1 2 C1.7425 1.62875 2.485 1.2575 3.25 0.875 C6 0 6 0 8.3125 0.875 C9.1478125 1.431875 9.1478125 1.431875 10 2 C9.16855469 2.27263672 9.16855469 2.27263672 8.3203125 2.55078125 C7.59585938 2.80214844 6.87140625 3.05351563 6.125 3.3125 C5.40570313 3.55613281 4.68640625 3.79976563 3.9453125 4.05078125 C1.66005095 4.96335547 1.66005095 4.96335547 0 8 C-0.98120464 4.94736336 -0.98120464 3.05263664 0 0 Z " fill="#EBEFDC" transform="translate(48,108)"/>
<path d="M0 0 C1.8828125 0.26171875 1.8828125 0.26171875 4 1 C5.61354093 3.46544541 6.43444523 6.11623065 7 9 C6.1875 11.5 6.1875 11.5 5 13 C4.67 11.02 4.34 9.04 4 7 C3.01 7 2.02 7 1 7 C1 5.68 1 4.36 1 3 C0.67 2.01 0.34 1.02 0 0 Z " fill="#77864F" transform="translate(82,97)"/>
<path d="M0 0 C4.02992782 0.55312735 8.02022924 1.1558062 12 2 C9.5556104 4.4443896 8.44616056 4.91985673 5 5 C2.1875 2.5625 2.1875 2.5625 0 0 Z " fill="#524C40" transform="translate(163,89)"/>
<path d="M0 0 C0.99 0.33 1.98 0.66 3 1 C2.01 1.495 2.01 1.495 1 2 C1 3.65 1 5.3 1 7 C2.32 7 3.64 7 5 7 C4.67 7.66 4.34 8.32 4 9 C3.29875 8.855625 2.5975 8.71125 1.875 8.5625 C-1.07556141 7.98521625 -4.03270151 7.48304859 -7 7 C-7 6.67 -7 6.34 -7 6 C-5.02 6 -3.04 6 -1 6 C-1.66 4.68 -2.32 3.36 -3 2 C-2.01 1.34 -1.02 0.68 0 0 Z " fill="#BCBCBC" transform="translate(85,62)"/>
<path d="M0 0 C-0.33 1.32 -0.66 2.64 -1 4 C-1.78375 4.12375 -2.5675 4.2475 -3.375 4.375 C-6.14057822 4.79117993 -6.14057822 4.79117993 -8 7 C-8 5.68 -8 4.36 -8 3 C-8.66 2.67 -9.32 2.34 -10 2 C-8.7090864 1.66376204 -7.41723903 1.33110751 -6.125 1 C-5.40570313 0.814375 -4.68640625 0.62875 -3.9453125 0.4375 C-2 0 -2 0 0 0 Z " fill="#EAE3E0" transform="translate(141,63)"/>
<path d="M0 0 C1.32 0 2.64 0 4 0 C4.1875 2.875 4.1875 2.875 4 6 C3.01 6.66 2.02 7.32 1 8 C-0.5 6.625 -0.5 6.625 -2 5 C-2 4.34 -2 3.68 -2 3 C-1.34 3 -0.68 3 0 3 C0 2.01 0 1.02 0 0 Z " fill="#75874D" transform="translate(84,161)"/>
<path d="M0 0 C0.66 0 1.32 0 2 0 C2 2.31 2 4.62 2 7 C1.67 6.34 1.34 5.68 1 5 C0.34 5 -0.32 5 -1 5 C-0.67 5.99 -0.34 6.98 0 8 C-0.66 8 -1.32 8 -2 8 C-2.66 7.01 -3.32 6.02 -4 5 C-3.67 4.01 -3.34 3.02 -3 2 C-2.34 2.33 -1.68 2.66 -1 3 C-0.67 2.01 -0.34 1.02 0 0 Z " fill="#ECEFD7" transform="translate(99,143)"/>
<path d="M0 0 C3.63 0 7.26 0 11 0 C10.67 0.99 10.34 1.98 10 3 C7.03 3 4.06 3 1 3 C0.67 2.01 0.34 1.02 0 0 Z " fill="#F6FBE9" transform="translate(152,140)"/>
<path d="M0 0 C0.69759108 2.17028336 1.10954619 3.57642138 0.53125 5.8125 C-0.08718105 8.35898079 -0.09693682 10.63280192 -0.0625 13.25 C-0.04896484 14.58804688 -0.04896484 14.58804688 -0.03515625 15.953125 C-0.02355469 16.62859375 -0.01195313 17.3040625 0 18 C-0.66 17.67 -1.32 17.34 -2 17 C-2.31241371 14.45058627 -2.51303421 11.99638487 -2.625 9.4375 C-2.66367188 8.72658203 -2.70234375 8.01566406 -2.7421875 7.28320312 C-2.83671783 5.52257575 -2.91945817 3.76132272 -3 2 C-2.01 2.495 -2.01 2.495 -1 3 C-0.67 2.01 -0.34 1.02 0 0 Z " fill="#4A3E1B" transform="translate(121,122)"/>
<path d="M0 0 C1.65 0 3.3 0 5 0 C3.02 2.31 1.04 4.62 -1 7 C-1.99 6.67 -2.98 6.34 -4 6 C-3.67 4.68 -3.34 3.36 -3 2 C-2.34 2.33 -1.68 2.66 -1 3 C-0.67 2.01 -0.34 1.02 0 0 Z " fill="#E6EBD7" transform="translate(68,128)"/>
<path d="M0 0 C0.99 0.33 1.98 0.66 3 1 C4.1875 4.0625 4.1875 4.0625 5 7 C2.69 6.34 0.38 5.68 -2 5 C-2.33 3.68 -2.66 2.36 -3 1 C-1 2 -1 2 0 3 C0 2.01 0 1.02 0 0 Z " fill="#EBEADD" transform="translate(104,126)"/>
<path d="M0 0 C1.65 0.33 3.3 0.66 5 1 C4.67 1.66 4.34 2.32 4 3 C4.33 3.99 4.66 4.98 5 6 C4.01 6.33 3.02 6.66 2 7 C1.34 7.66 0.68 8.32 0 9 C-1.15941038 5.52176885 -0.70820884 3.54104422 0 0 Z " fill="#7D8E55" transform="translate(90,113)"/>
<path d="M0 0 C0.66 0.33 1.32 0.66 2 1 C1.45730469 1.60328125 0.91460937 2.2065625 0.35546875 2.828125 C-0.35996094 3.62734375 -1.07539063 4.4265625 -1.8125 5.25 C-2.52019531 6.03890625 -3.22789062 6.8278125 -3.95703125 7.640625 C-5.74168935 9.7016833 -7.39759062 11.79605523 -9 14 C-9.66 13.67 -10.32 13.34 -11 13 C-9.54300902 11.20724155 -8.08436345 9.41582771 -6.625 7.625 C-5.40683594 6.12839844 -5.40683594 6.12839844 -4.1640625 4.6015625 C-2 2 -2 2 0 0 Z " fill="#3B362D" transform="translate(156,88)"/>
<path d="M0 0 C1.65 0 3.3 0 5 0 C4.67 0.99 4.34 1.98 4 3 C4.66 3.33 5.32 3.66 6 4 C5.67 4.66 5.34 5.32 5 6 C2.69 5.67 0.38 5.34 -2 5 C-1.34 3.35 -0.68 1.7 0 0 Z M6 3 C8 4 8 4 8 4 Z " fill="#D8D7D6" transform="translate(142,57)"/>
<path d="M0 0 C2.0625 0.4375 2.0625 0.4375 4 1 C4.33 2.65 4.66 4.3 5 6 C4.05125 5.835 3.1025 5.67 2.125 5.5 C-0.80168901 4.9473365 -0.80168901 4.9473365 -3 5 C-1.125 1.125 -1.125 1.125 0 0 Z " fill="#788E4E" transform="translate(80,128)"/>
<path d="M0 0 C1.32 1.32 2.64 2.64 4 4 C3 7 3 7 0.9375 8.1875 C0.298125 8.455625 -0.34125 8.72375 -1 9 C-1.09765625 2.84765625 -1.09765625 2.84765625 -1 1 C-0.67 0.67 -0.34 0.34 0 0 Z " fill="#E5EAC7" transform="translate(132,126)"/>
<path d="M0 0 C0.33 0.66 0.66 1.32 1 2 C1.66 2.33 2.32 2.66 3 3 C3.75 5.4375 3.75 5.4375 4 8 C3.34 8.66 2.68 9.32 2 10 C1.67 10.99 1.34 11.98 1 13 C-0.32229189 10.35541621 -0.09677194 8.32238699 -0.0625 5.375 C-0.05347656 4.37210938 -0.04445313 3.36921875 -0.03515625 2.3359375 C-0.02355469 1.56507812 -0.01195313 0.79421875 0 0 Z " fill="#6C7D42" transform="translate(89,125)"/>
<path d="M0 0 C0 0.33 0 0.66 0 1 C-0.62648437 1.09796875 -1.25296875 1.1959375 -1.8984375 1.296875 C-3.12433594 1.52117188 -3.12433594 1.52117188 -4.375 1.75 C-5.18710938 1.88921875 -5.99921875 2.0284375 -6.8359375 2.171875 C-9.17709092 2.81749261 -9.17709092 2.81749261 -10.2890625 5.078125 C-10.52367188 5.71234375 -10.75828125 6.3465625 -11 7 C-11.33 6.34 -11.66 5.68 -12 5 C-11.67 4.34 -11.34 3.68 -11 3 C-12.98 3 -14.96 3 -17 3 C-17 2.67 -17 2.34 -17 2 C-16.06027344 1.90912109 -16.06027344 1.90912109 -15.1015625 1.81640625 C-13.87566406 1.69072266 -13.87566406 1.69072266 -12.625 1.5625 C-11.81289062 1.48128906 -11.00078125 1.40007813 -10.1640625 1.31640625 C-1.01028037 -0.02196262 -1.01028037 -0.02196262 0 0 Z " fill="#9F9F9F" transform="translate(135,38)"/>
<path d="M0 0 C1.32 0.66 2.64 1.32 4 2 C3.814375 2.61875 3.62875 3.2375 3.4375 3.875 C2.76313824 6.04160178 2.76313824 6.04160178 4 8 C2.35 8 0.7 8 -1 8 C-1 7.01 -1 6.02 -1 5 C-0.34 4.67 0.32 4.34 1 4 C0.34 3.67 -0.32 3.34 -1 3 C-0.67 2.01 -0.34 1.02 0 0 Z " fill="#D2D3D2" transform="translate(158,161)"/>
<path d="M0 0 C1.2065625 0.0309375 1.2065625 0.0309375 2.4375 0.0625 C2.7675 0.7225 3.0975 1.3825 3.4375 2.0625 C2.125 4.0625 2.125 4.0625 0.4375 6.0625 C-0.5525 6.0625 -1.5425 6.0625 -2.5625 6.0625 C-2.94468767 4.40635343 -3.27645102 2.73792976 -3.5625 1.0625 C-2.5625 0.0625 -2.5625 0.0625 0 0 Z " fill="#748755" transform="translate(134.5625,156.9375)"/>
<path d="M0 0 C1.32 0 2.64 0 4 0 C4.99 2.64 5.98 5.28 7 8 C5.02 8.99 5.02 8.99 3 10 C2.8046875 7.98177083 2.609375 5.96354167 2.4140625 3.9453125 C2.13625251 1.77331755 2.13625251 1.77331755 0 0 Z " fill="#768A55" transform="translate(119,104)"/>
<path d="M0 0 C0.33 0 0.66 0 1 0 C1.125 2.875 1.125 2.875 1 6 C0.34 6.66 -0.32 7.32 -1 8 C-3.125 7.625 -3.125 7.625 -5 7 C-4.67 6.67 -4.34 6.34 -4 6 C-4.66 5.34 -5.32 4.68 -6 4 C-4.7934375 3.566875 -4.7934375 3.566875 -3.5625 3.125 C-0.8673532 2.26737432 -0.8673532 2.26737432 0 0 Z " fill="#3D3526" transform="translate(168,81)"/>
<path d="M0 0 C0.99 0.66 1.98 1.32 3 2 C2.34 4.31 1.68 6.62 1 9 C-0.32 8.67 -1.64 8.34 -3 8 C-2.01 5.36 -1.02 2.72 0 0 Z " fill="#EEF1DC" transform="translate(140,151)"/>
<path d="M0 0 C1.98 0.66 3.96 1.32 6 2 C5.34 2.66 4.68 3.32 4 4 C3.67 4.66 3.34 5.32 3 6 C2.67 5.67 2.34 5.34 2 5 C-0.33297433 4.95907063 -2.66705225 4.95758277 -5 5 C-3.33333333 3.33333333 -1.66666667 1.66666667 0 0 Z " fill="#C5C4C4" transform="translate(152,146)"/>
<path d="M0 0 C1.9375 0.75 1.9375 0.75 4 2 C4.75 4.125 4.75 4.125 5 6 C4.01 6.495 4.01 6.495 3 7 C2.01 6.67 1.02 6.34 0 6 C0 4.02 0 2.04 0 0 Z " fill="#463D1E" transform="translate(116,113)"/>
<path d="M0 0 C0.66 0 1.32 0 2 0 C2.99 2.31 3.98 4.62 5 7 C4.34 7.66 3.68 8.32 3 9 C2.01 9 1.02 9 0 9 C0 6.03 0 3.06 0 0 Z " fill="#F1EADF" transform="translate(163,76)"/>
<path d="M0 0 C1.5625 1.1875 1.5625 1.1875 3 3 C2.6875 5.6875 2.6875 5.6875 2 8 C1.01 8.33 0.02 8.66 -1 9 C-1.66 6.69 -2.32 4.38 -3 2 C-2 2 -1 2 0 2 C0 1.34 0 0.68 0 0 Z " fill="#B2B3AC" transform="translate(90,71)"/>
<path d="M0 0 C0 0.66 0 1.32 0 2 C-0.99 2.495 -0.99 2.495 -2 3 C-2.33 3.66 -2.66 4.32 -3 5 C-4.66666667 5 -6.33333333 5 -8 5 C-8 4.01 -8 3.02 -8 2 C-4.77208445 -0.1519437 -3.71599191 -0.20086443 0 0 Z " fill="#F4F4F4" transform="translate(71,66)"/>
<path d="M0 0 C0 2.66666667 0 5.33333333 0 8 C-1.65 8 -3.3 8 -5 8 C-5.33 7.01 -5.66 6.02 -6 5 C-1.125 0 -1.125 0 0 0 Z " fill="#504945" transform="translate(142,55)"/>
<path d="M0 0 C1.5 1.1875 1.5 1.1875 3 3 C3.1875 5.6875 3.1875 5.6875 3 8 C1.0625 7.25 1.0625 7.25 -1 6 C-1.875 4 -1.875 4 -2 2 C-1.34 1.34 -0.68 0.68 0 0 Z " fill="#FDFDFD" transform="translate(140,35)"/>
<path d="M0 0 C1.125 3.75 1.125 3.75 0 6 C-0.66 6 -1.32 6 -2 6 C-2 6.66 -2 7.32 -2 8 C-2.66 8 -3.32 8 -4 8 C-4.33 6.68 -4.66 5.36 -5 4 C-3.35 2.68 -1.7 1.36 0 0 Z " fill="#F4F4F4" transform="translate(120,33)"/>
<path d="M0 0 C5 2 5 2 10 4 C9.67 4.66 9.34 5.32 9 6 C7.35 6 5.7 6 4 6 C4 5.34 4 4.68 4 4 C3.01 3.67 2.02 3.34 1 3 C0.67 2.01 0.34 1.02 0 0 Z " fill="#E7F0D7" transform="translate(114,178)"/>
<path d="M0 0 C0.33 0.66 0.66 1.32 1 2 C1.99 2 2.98 2 4 2 C4.99 3.98 5.98 5.96 7 8 C3.34683329 6.75023244 2.21934164 6.32901247 0 3 C-0.99 2.34 -1.98 1.68 -3 1 C-2.01 0.67 -1.02 0.34 0 0 Z " fill="#3B3329" transform="translate(146,161)"/>
<path d="M0 0 C0.99 0.33 1.98 0.66 3 1 C3 1.66 3 2.32 3 3 C4.32 3.33 5.64 3.66 7 4 C5.35 4 3.7 4 2 4 C1.34 5.32 0.68 6.64 0 8 C-0.66 6.02 -1.32 4.04 -2 2 C-1.34 1.34 -0.68 0.68 0 0 Z " fill="#E7EBD9" transform="translate(60,144)"/>
<path d="M0 0 C2 3 2 3 1.625 5.1875 C1.41875 5.785625 1.2125 6.38375 1 7 C0.34 7 -0.32 7 -1 7 C-1 7.66 -1 8.32 -1 9 C-2.32 9.33 -3.64 9.66 -5 10 C-5 8.68 -5 7.36 -5 6 C-4.01 5.67 -3.02 5.34 -2 5 C-0.78130071 2.49552484 -0.78130071 2.49552484 0 0 Z " fill="#6C843C" transform="translate(96,105)"/>
<path d="M0 0 C0.66 1.32 1.32 2.64 2 4 C2.66 4 3.32 4 4 4 C4.33 4.99 4.66 5.98 5 7 C3.35 7.66 1.7 8.32 0 9 C0 6.03 0 3.06 0 0 Z " fill="#688038" transform="translate(126,101)"/>
<path d="M0 0 C0.99 0.33 1.98 0.66 3 1 C3 1.66 3 2.32 3 3 C3.66 3 4.32 3 5 3 C3.74821404 5.50357192 2.00018842 7.06433379 0 9 C-0.84454356 5.62182575 -1.10844919 3.32534757 0 0 Z " fill="#EEE6D7" transform="translate(123,87)"/>
<path d="M0 0 C2.1875 0.3125 2.1875 0.3125 4 1 C4 1.66 4 2.32 4 3 C4.66 3.33 5.32 3.66 6 4 C3.21176345 5.0326802 2.1322726 5.04509293 -0.75 4.0625 C-1.4925 3.711875 -2.235 3.36125 -3 3 C-1.75 1.4375 -1.75 1.4375 0 0 Z " fill="#F4EFEA" transform="translate(119,53)"/>
<path d="M0 0 C0.66 0 1.32 0 2 0 C2 0.66 2 1.32 2 2 C0.76115681 2.72767003 -0.49168341 3.43154815 -1.75 4.125 C-2.79414062 4.71667969 -2.79414062 4.71667969 -3.859375 5.3203125 C-6 6 -6 6 -8.265625 5.1171875 C-8.83796875 4.74851563 -9.4103125 4.37984375 -10 4 C-9.67 3.34 -9.34 2.68 -9 2 C-7.329375 2.061875 -7.329375 2.061875 -5.625 2.125 C-1.95633975 2.41121859 -1.95633975 2.41121859 0 0 Z " fill="#788558" transform="translate(105,185)"/>
<path d="M0 0 C7.50769231 0.49230769 7.50769231 0.49230769 10 3.0625 C10.33 3.701875 10.66 4.34125 11 5 C7.80389448 5 6.58282374 4.45328458 3.8125 3 C3.09707031 2.62875 2.38164062 2.2575 1.64453125 1.875 C1.10183594 1.58625 0.55914062 1.2975 0 1 C0 0.67 0 0.34 0 0 Z " fill="#E8EFD9" transform="translate(131,173)"/>
<path d="M0 0 C0.33 2.31 0.66 4.62 1 7 C-0.65 6.67 -2.3 6.34 -4 6 C-4.33 4.68 -4.66 3.36 -5 2 C-1.125 0 -1.125 0 0 0 Z " fill="#EBF2EA" transform="translate(77,153)"/>
<path d="M0 0 C4.455 0.99 4.455 0.99 9 2 C8.01 3.485 8.01 3.485 7 5 C5.68 5 4.36 5 3 5 C3 4.01 3 3.02 3 2 C2.01 2 1.02 2 0 2 C0 1.34 0 0.68 0 0 Z " fill="#E8EBD6" transform="translate(143,137)"/>
<path d="M0 0 C1.32 0 2.64 0 4 0 C6.125 4.625 6.125 4.625 5 8 C3.5 6.6875 3.5 6.6875 2 5 C2 4.01 2 3.02 2 2 C1.34 2 0.68 2 0 2 C0 1.34 0 0.68 0 0 Z " fill="#4E4B26" transform="translate(109,132)"/>
<path d="M0 0 C0.66 0 1.32 0 2 0 C3.1577506 3.47325181 3.06866652 6.36067448 3 10 C2.34 10 1.68 10 1 10 C0.22157062 6.59437148 -0.09978121 3.49234244 0 0 Z " fill="#75854A" transform="translate(128,126)"/>
<path d="M0 0 C6.625 0.75 6.625 0.75 10 3 C5.94568308 4.15837626 3.78187881 3.83691257 0 2 C0 1.34 0 0.68 0 0 Z " fill="#F5F9E6" transform="translate(88,172)"/>
<path d="M0 0 C3 1 3 1 5 4 C4.625 7.6875 4.625 7.6875 4 11 C3.87625 10.360625 3.7525 9.72125 3.625 9.0625 C3.41875 8.381875 3.2125 7.70125 3 7 C2.34 6.67 1.68 6.34 1 6 C0.375 2.9375 0.375 2.9375 0 0 Z " fill="#8D8C5E" transform="translate(121,138)"/>
<path d="M0 0 C1.65 0 3.3 0 5 0 C5.33 2.64 5.66 5.28 6 8 C4.68 7.34 3.36 6.68 2 6 C2 4.35 2 2.7 2 1 C1.34 0.67 0.68 0.34 0 0 Z " fill="#DEE1CC" transform="translate(65,91)"/>
<path d="M0 0 C0.66 0 1.32 0 2 0 C1.67 3.3 1.34 6.6 1 10 C-1 8 -1 8 -1.1875 4.4375 C-1 1 -1 1 0 0 Z " fill="#49402E" transform="translate(120,92)"/>
<path d="M0 0 C0.33 0 0.66 0 1 0 C1.33 2.64 1.66 5.28 2 8 C1.01 8 0.02 8 -1 8 C-1.33 8.66 -1.66 9.32 -2 10 C-1.125 2.25 -1.125 2.25 0 0 Z " fill="#403023" transform="translate(161,71)"/>
<path d="M0 0 C0.66 0.33 1.32 0.66 2 1 C1.67 1.804375 1.34 2.60875 1 3.4375 C-0.06059041 5.69681125 -0.06059041 5.69681125 0 7 C-1.65 7 -3.3 7 -5 7 C-3.70700306 4.11562221 -2.34058637 2.12780579 0 0 Z " fill="#79824B" transform="translate(124,153)"/>
<path d="M0 0 C3 4 3 4 2.85546875 6.140625 C2.23697917 8.09375 1.61848958 10.046875 1 12 C0.67 12 0.34 12 0 12 C0 8.04 0 4.08 0 0 Z " fill="#45431B" transform="translate(118,148)"/>
<path d="M0 0 C1.32 0.33 2.64 0.66 4 1 C3.34 2.32 2.68 3.64 2 5 C0.68 4.67 -0.64 4.34 -2 4 C-1.34 2.68 -0.68 1.36 0 0 Z " fill="#748E42" transform="translate(134,148)"/>
<path d="M0 0 C2.31 0.33 4.62 0.66 7 1 C6.67 1.99 6.34 2.98 6 4 C5.34 4 4.68 4 4 4 C3.67 4.66 3.34 5.32 3 6 C0 2.25 0 2.25 0 0 Z " fill="#6E7C44" transform="translate(134,127)"/>
<path d="M0 0 C-0.99 2.97 -1.98 5.94 -3 9 C-5 6 -5 6 -4.75 3.375 C-4.5025 2.59125 -4.255 1.8075 -4 1 C-2 0 -2 0 0 0 Z " fill="#FBFBFB" transform="translate(64,77)"/>
<path d="M0 0 C4.8 2.46153846 4.8 2.46153846 5.8125 5.1875 C5.874375 5.785625 5.93625 6.38375 6 7 C4.35 6.67 2.7 6.34 1 6 C0.67 4.02 0.34 2.04 0 0 Z " fill="#52493F" transform="translate(128,54)"/>
<path d="M0 0 C1.65 0 3.3 0 5 0 C4.67 1.32 4.34 2.64 4 4 C2.35 4.33 0.7 4.66 -1 5 C-0.67 3.35 -0.34 1.7 0 0 Z " fill="#6F8536" transform="translate(87,164)"/>
<path d="M0 0 C2.46800047 1.15173355 4.04783565 2.04783565 6 4 C5.625 6.125 5.625 6.125 5 8 C3.5 6.6875 3.5 6.6875 2 5 C2 4.01 2 3.02 2 2 C1.34 2 0.68 2 0 2 C0 1.34 0 0.68 0 0 Z " fill="#8A9661" transform="translate(151,125)"/>
<path d="M0 0 C2.31 0.33 4.62 0.66 7 1 C6.67 2.65 6.34 4.3 6 6 C4.68 5.34 3.36 4.68 2 4 C2 3.34 2 2.68 2 2 C1.34 2 0.68 2 0 2 C0 1.34 0 0.68 0 0 Z " fill="#635049" transform="translate(115,118)"/>
<path d="M0 0 C0.66 0 1.32 0 2 0 C2 2.97 2 5.94 2 9 C0.10786631 6.61426621 -1.02391783 4.92824652 -2 2 C-1.34 2 -0.68 2 0 2 C0 1.34 0 0.68 0 0 Z " fill="#E4EFDA" transform="translate(124,101)"/>
<path d="M0 0 C1.32 0 2.64 0 4 0 C4.93065133 2.60582371 5.14917407 3.64198224 4.0625 6.25 C3.5365625 7.11625 3.5365625 7.11625 3 8 C2.01 5.36 1.02 2.72 0 0 Z " fill="#798555" transform="translate(108,101)"/>
<path d="M0 0 C0.66 0.66 1.32 1.32 2 2 C1.625 5.625 1.625 5.625 1 9 C0.01 9.33 -0.98 9.66 -2 10 C-1.34 6.7 -0.68 3.4 0 0 Z " fill="#5A4A47" transform="translate(122,82)"/>
<path d="M0 0 C0.66 0 1.32 0 2 0 C3.10370043 3.3111013 2.92673641 5.24748949 2.5625 8.6875 C2.40974609 10.17830078 2.40974609 10.17830078 2.25390625 11.69921875 C2.12822266 12.83810547 2.12822266 12.83810547 2 14 C1.67 14 1.34 14 1 14 C0.83165067 12.22932584 0.66538091 10.45845388 0.5 8.6875 C0.4071875 7.70136719 0.314375 6.71523437 0.21875 5.69921875 C0 3 0 3 0 0 Z " fill="#698134" transform="translate(137,80)"/>
<path d="M0 0 C0.66 0.66 1.32 1.32 2 2 C1.67 2.99 1.34 3.98 1 5 C-0.98 4.34 -2.96 3.68 -5 3 C-4 1 -4 1 -2.0625 0.25 C-1.381875 0.1675 -0.70125 0.085 0 0 Z " fill="#EDEEDE" transform="translate(74,83)"/>
<path d="M0 0 C2.62187494 1.04874998 3.79371361 1.64931313 5.25 4.125 C5.4975 4.74375 5.745 5.3625 6 6 C4.68 5.67 3.36 5.34 2 5 C2 5.66 2 6.32 2 7 C1.34 6.67 0.68 6.34 0 6 C0.185625 5.38125 0.37125 4.7625 0.5625 4.125 C1.23686176 1.95839822 1.23686176 1.95839822 0 0 Z " fill="#EAEAEA" transform="translate(181,63)"/>
<path d="M0 0 C3 1 3 1 4.25 2.8125 C5.11637742 5.33943414 4.88492145 6.52221994 4 9 C1.3144406 6.3144406 0.93950026 3.62378672 0 0 Z " fill="#C7C8C9" transform="translate(109,54)"/>
<path d="M0 0 C2.5625 1.25 2.5625 1.25 5 3 C5.33 3.99 5.66 4.98 6 6 C5.01 6.495 5.01 6.495 4 7 C3.38125 6.34 2.7625 5.68 2.125 5 C0.24362573 2.7715451 0.24362573 2.7715451 -2 3 C-2 2.34 -2 1.68 -2 1 C-1.34 0.67 -0.68 0.34 0 0 Z " fill="#E4E3DF" transform="translate(129,52)"/>
<path d="M0 0 C0.99 0.33 1.98 0.66 3 1 C2.01 1.66 1.02 2.32 0 3 C-1.21284876 6.05429073 -1.21284876 6.05429073 -2 9 C-3.125 7.25 -3.125 7.25 -4 5 C-3.07451225 2.30066074 -2.57626463 1.28813232 0 0 Z " fill="#657738" transform="translate(133,120)"/>
<path d="M0 0 C0.78375 0.04125 1.5675 0.0825 2.375 0.125 C2.375 1.115 2.375 2.105 2.375 3.125 C0.065 3.455 -2.245 3.785 -4.625 4.125 C-4.625 0.73492581 -3.1763743 0.15125592 0 0 Z " fill="#70823B" transform="translate(77.625,119.875)"/>
<path d="M0 0 C1.65 0 3.3 0 5 0 C5 1.65 5 3.3 5 5 C3.35 4.67 1.7 4.34 0 4 C0 2.66666667 0 1.33333333 0 0 Z " fill="#7E9259" transform="translate(114,108)"/>
<path d="M0 0 C0.99 0.66 1.98 1.32 3 2 C2.34 2 1.68 2 1 2 C0.71125 2.804375 0.4225 3.60875 0.125 4.4375 C-1 7 -1 7 -3 8 C-3.36923077 3.44615385 -3.36923077 3.44615385 -1.5 1.1875 C-1.005 0.795625 -0.51 0.40375 0 0 Z " fill="#8D9E65" transform="translate(97,100)"/>
<path d="M0 0 C0.66 0 1.32 0 2 0 C2.33 1.65 2.66 3.3 3 5 C1.35 5.33 -0.3 5.66 -2 6 C-1.125 1.125 -1.125 1.125 0 0 Z " fill="#6B7E3F" transform="translate(164,103)"/>
<path d="M0 0 C0.99 0 1.98 0 3 0 C2.6875 1.875 2.6875 1.875 2 4 C1.01 4.66 0.02 5.32 -1 6 C-1.33 5.01 -1.66 4.02 -2 3 C-1.34 2.01 -0.68 1.02 0 0 Z " fill="#EDF1D5" transform="translate(131,80)"/>
<path d="M0 0 C0.66 0.33 1.32 0.66 2 1 C2 3.31 2 5.62 2 8 C1.34 8 0.68 8 0 8 C-1.125 5.6875 -1.125 5.6875 -2 3 C-1.34 2.01 -0.68 1.02 0 0 Z " fill="#EFEBE5" transform="translate(91,79)"/>
<path d="M0 0 C2.475 0.495 2.475 0.495 5 1 C4.67 2.65 4.34 4.3 4 6 C2.68 5.67 1.36 5.34 0 5 C0 3.35 0 1.7 0 0 Z " fill="#443123" transform="translate(118,57)"/>
<path d="M0 0 C1.32 0.33 2.64 0.66 4 1 C4.33 2.32 4.66 3.64 5 5 C1.7 4.34 -1.6 3.68 -5 3 C-5 2.67 -5 2.34 -5 2 C-3.35 2 -1.7 2 0 2 C0 1.34 0 0.68 0 0 Z " fill="#C9C9C9" transform="translate(135,37)"/>
<path d="M0 0 C1.485 0.99 1.485 0.99 3 2 C4.9896995 2.39013716 6.99019869 2.73202649 9 3 C9 3.33 9 3.66 9 4 C5.7 4 2.4 4 -1 4 C-0.67 2.68 -0.34 1.36 0 0 Z " fill="#D0D8BF" transform="translate(79,152)"/>
<path d="M0 0 C1.74627478 2.61941217 2.38722388 4.03824877 3 7 C1.68 7 0.36 7 -1 7 C-0.67 4.69 -0.34 2.38 0 0 Z " fill="#7C895F" transform="translate(159,133)"/>
<path d="M0 0 C0.33 0 0.66 0 1 0 C1 2.97 1 5.94 1 9 C-0.32 7.35 -1.64 5.7 -3 4 C-2.67 3.34 -2.34 2.68 -2 2 C-1.34 2 -0.68 2 0 2 C0 1.34 0 0.68 0 0 Z " fill="#5A4133" transform="translate(118,130)"/>
<path d="M0 0 C0.66 0.33 1.32 0.66 2 1 C1.34 2.32 0.68 3.64 0 5 C-1.65 4.67 -3.3 4.34 -5 4 C-4.01 3.67 -3.02 3.34 -2 3 C-2 2.34 -2 1.68 -2 1 C-1.34 0.67 -0.68 0.34 0 0 Z " fill="#EDEDED" transform="translate(62,64)"/>
<path d="M0 0 C0.268125 0.556875 0.53625 1.11375 0.8125 1.6875 C2.10122647 4.19712523 3.52926478 6.59334236 5 9 C4.01 8.67 3.02 8.34 2 8 C2 7.34 2 6.68 2 6 C1.01 5.67 0.02 5.34 -1 5 C-0.67 3.35 -0.34 1.7 0 0 Z " fill="#F4F2F0" transform="translate(110,49)"/>
<path d="M0 0 C0.66 0.33 1.32 0.66 2 1 C1.67 2.98 1.34 4.96 1 7 C0.01 6.67 -0.98 6.34 -2 6 C-1.49396008 3.83125748 -1.00016187 2.00032373 0 0 Z " fill="#F0F6E8" transform="translate(90,181)"/>
<path d="M0 0 C1.65 0.33 3.3 0.66 5 1 C5 1.99 5 2.98 5 4 C3.02 4.33 1.04 4.66 -1 5 C-0.67 3.35 -0.34 1.7 0 0 Z " fill="#95AC65" transform="translate(130,175)"/>
<path d="M0 0 C0.66 0.66 1.32 1.32 2 2 C1.625 5.625 1.625 5.625 1 9 C0.67 9 0.34 9 0 9 C-0.87890625 2.84765625 -0.87890625 2.84765625 -1 1 C-0.67 0.67 -0.34 0.34 0 0 Z " fill="#7D8552" transform="translate(116,151)"/>
<path d="M0 0 C0.66 0.33 1.32 0.66 2 1 C2 3.64 2 6.28 2 9 C1.34 9 0.68 9 0 9 C0.33 7.68 0.66 6.36 1 5 C0.34 5 -0.32 5 -1 5 C-0.67 3.35 -0.34 1.7 0 0 Z " fill="#4A4020" transform="translate(131,135)"/>
<path d="M0 0 C0.66 0 1.32 0 2 0 C2.33 1.32 2.66 2.64 3 4 C1.68 4.33 0.36 4.66 -1 5 C-1.33 4.34 -1.66 3.68 -2 3 C-1.34 2.01 -0.68 1.02 0 0 Z " fill="#EFF0EC" transform="translate(164,136)"/>
<path d="M0 0 C1.32 0.66 2.64 1.32 4 2 C4 2.66 4 3.32 4 4 C2.02 4 0.04 4 -2 4 C-1.34 2.68 -0.68 1.36 0 0 Z " fill="#788556" transform="translate(105,131)"/>
<path d="M0 0 C0.99 0 1.98 0 3 0 C3 2.31 3 4.62 3 7 C1.68 5.68 0.36 4.36 -1 3 C-0.34 3 0.32 3 1 3 C0.67 2.01 0.34 1.02 0 0 Z " fill="#71833A" transform="translate(77,105)"/>
<path d="M0 0 C0.94875 0.04125 1.8975 0.0825 2.875 0.125 C3.205 1.115 3.535 2.105 3.875 3.125 C0.905 2.795 -2.065 2.465 -5.125 2.125 C-3.125 0.125 -3.125 0.125 0 0 Z " fill="#E3EECE" transform="translate(67.125,106.875)"/>
<path d="M0 0 C0.99 0.33 1.98 0.66 3 1 C3.66 0.67 4.32 0.34 5 0 C4.1875 1.9375 4.1875 1.9375 3 4 C2.01 4.33 1.02 4.66 0 5 C-0.5625 3.0625 -0.5625 3.0625 -1 1 C-0.67 0.67 -0.34 0.34 0 0 Z " fill="#473D34" transform="translate(82,84)"/>
<path d="M0 0 C0.66 0.33 1.32 0.66 2 1 C1.67 3.64 1.34 6.28 1 9 C0.34 9 -0.32 9 -1 9 C-0.67 6.03 -0.34 3.06 0 0 Z " fill="#A9A8A3" transform="translate(159,67)"/>
<path d="M0 0 C-1.175625 0.680625 -1.175625 0.680625 -2.375 1.375 C-5.03698031 2.88428742 -5.03698031 2.88428742 -7 5 C-6.625 2.5625 -6.625 2.5625 -6 0 C-3.50907189 -1.24546405 -2.58919267 -0.7767578 0 0 Z " fill="#FBFBFA" transform="translate(167,67)"/>
<path d="M0 0 C1.2065625 0.0309375 1.2065625 0.0309375 2.4375 0.0625 C2.4375 1.0525 2.4375 2.0425 2.4375 3.0625 C0.4575 4.0525 0.4575 4.0525 -1.5625 5.0625 C-2.2225 3.7425 -2.8825 2.4225 -3.5625 1.0625 C-2.5625 0.0625 -2.5625 0.0625 0 0 Z " fill="#FDF9FA" transform="translate(137.5625,66.9375)"/>
<path d="M0 0 C0.66 0 1.32 0 2 0 C2.33 1.65 2.66 3.3 3 5 C-0.3 4.67 -3.6 4.34 -7 4 C-7 3.67 -7 3.34 -7 3 C-4.36 3 -1.72 3 1 3 C0.67 2.01 0.34 1.02 0 0 Z " fill="#A4A4A4" transform="translate(136,28)"/>
</svg>
