<?xml version="1.0" encoding="UTF-8"?>
<svg version="1.1" xmlns="http://www.w3.org/2000/svg" width="290" height="174">
<path d="M0 0 C95.7 0 191.4 0 290 0 C290 57.42 290 114.84 290 174 C194.3 174 98.6 174 0 174 C0 116.58 0 59.16 0 0 Z " fill="#FEFEFE" transform="translate(0,0)"/>
<path d="M0 0 C5.64033805 -0.55027688 8.42577266 0.95051511 13 4 C14.65497356 7.30994713 14.10084335 10.99123 14.0625 14.625 C14.05798828 15.42679688 14.05347656 16.22859375 14.04882812 17.0546875 C14.03703168 19.03649006 14.01909605 21.01825433 14 23 C12.515 23.495 12.515 23.495 11 24 C11.0825 24.86625 11.165 25.7325 11.25 26.625 C10.94126623 30.79290588 9.60239421 32.78527774 7 36 C6.34 36 5.68 36 5 36 C5 37.98 5 39.96 5 42 C4.34 42 3.68 42 3 42 C2.67 42.99 2.34 43.98 2 45 C1.01 45.495 1.01 45.495 0 46 C-0.33 46.99 -0.66 47.98 -1 49 C4.69637192 44.0331362 10.35782624 39.02832615 16 34 C16 42.51397488 4.84589397 53.41914221 -0.12060547 60.25366211 C-4.85091998 66.76632369 -9.45686049 73.35551172 -14 80 C-13.41992188 80.2784375 -12.83984375 80.556875 -12.2421875 80.84375 C-4.69755132 84.73436378 1.01515209 89.89515749 4 98 C5.305354 106.755913 4.0412794 114.17002116 0 122 C-2 121 -2 121 -2.7109375 119.14453125 C-2.93007812 118.37496094 -3.14921875 117.60539062 -3.375 116.8125 C-5.4652252 110.22985049 -9.23915782 105.55894537 -13.828125 100.515625 C-15 99 -15 99 -15 97 C-20.37847933 98.78037626 -24.13015636 100.76324666 -27.75 105.1875 C-32.63928471 111.09741074 -38.58942848 114.94681539 -45 119 C-46.39798828 119.92232422 -46.39798828 119.92232422 -47.82421875 120.86328125 C-53.0237322 124.04371357 -56.74867831 125.25109686 -62.875 125.375 C-67.38097145 125.38954358 -67.38097145 125.38954358 -70.93359375 127.82421875 C-72.18030505 129.84791727 -73.17366465 131.77447106 -74 134 C-77.86672705 133.73635952 -79.58013175 133.39833655 -82.4375 130.6875 C-84 128 -84 128 -83.875 125.9375 C-83 124 -83 124 -81.9375 122.1875 C-80.5662709 118.98796543 -80.69783359 116.44469706 -81 113 C-82.37249963 110.32323453 -82.37249963 110.32323453 -84 108 C-87.39140554 99.05902175 -84.05662568 88.04520696 -80.5625 79.6875 C-76.89518169 72.05624204 -71.6042061 66.24328224 -66 60 C-58.87414733 51.78002034 -53.62167575 42.31451155 -49.41796875 32.30078125 C-48.27249616 29.63432301 -47.06482196 27.28024853 -45.5625 24.8125 C-42.92791636 20.21784961 -41.39694266 15.4696961 -39.89453125 10.40625 C-39 8 -39 8 -37 7 C-36.51990738 9.06228466 -36.04096456 11.12483701 -35.5625 13.1875 C-35.29566406 14.33605469 -35.02882812 15.48460937 -34.75390625 16.66796875 C-34.12687799 19.43923875 -33.54100823 22.21091874 -33 25 C-31.10786631 22.61426621 -29.97608217 20.92824652 -29 18 C-28.030625 17.38125 -27.06125 16.7625 -26.0625 16.125 C-22.82997617 14.33065049 -22.82997617 14.33065049 -22.125 11.4375 C-21 9 -21 9 -19.25 8.15625 C-17.81965069 7.67245538 -16.38312953 7.20657789 -14.94140625 6.7578125 C-12.7766125 6.08292409 -12.7766125 6.08292409 -11.0625 3.8125 C-8.10963065 1.2175542 -5.63363689 1.68751317 -1.828125 1.859375 C-0.92320312 1.92898437 -0.92320312 1.92898437 0 2 C0 1.34 0 0.68 0 0 Z " fill="#598C4D" transform="translate(178,20)"/>
<path d="M0 0 C5.64033805 -0.55027688 8.42577266 0.95051511 13 4 C14.65497356 7.30994713 14.10084335 10.99123 14.0625 14.625 C14.05798828 15.42679688 14.05347656 16.22859375 14.04882812 17.0546875 C14.03703168 19.03649006 14.01909605 21.01825433 14 23 C13.01 23.33 12.02 23.66 11 24 C11.0825 24.86625 11.165 25.7325 11.25 26.625 C10.94126623 30.79290588 9.60239421 32.78527774 7 36 C6.34 36 5.68 36 5 36 C5 37.98 5 39.96 5 42 C4.34 42 3.68 42 3 42 C2.67 42.99 2.34 43.98 2 45 C1.01 45.495 1.01 45.495 0 46 C-0.061875 46.721875 -0.12375 47.44375 -0.1875 48.1875 C-1.4002371 52.38543613 -4.43414631 54.60354867 -8 57 C-8.66 57 -9.32 57 -10 57 C-10.33 57.99 -10.66 58.98 -11 60 C-13.5625 61.1875 -13.5625 61.1875 -16 62 C-16 62.66 -16 63.32 -16 64 C-17.71951974 65.53851766 -19.50187497 67.00731759 -21.3125 68.4375 C-25.09159661 71.30709597 -25.09159661 71.30709597 -28.34375 74.7109375 C-31.18476801 76.92210718 -34.70971131 76.85642667 -38.1875 77.1875 C-38.93708984 77.26935547 -39.68667969 77.35121094 -40.45898438 77.43554688 C-42.30475918 77.63540784 -44.15225433 77.81926538 -46 78 C-45.58556473 76.72843723 -45.16824702 75.4578141 -44.75 74.1875 C-44.47542969 73.35347656 -44.20085937 72.51945312 -43.91796875 71.66015625 C-43.33364115 69.96684945 -42.71463706 68.28483115 -42.05078125 66.62109375 C-37.3078443 54.64189727 -34.60471814 41.54704352 -34.46875 28.6640625 C-33.8640327 25.22725252 -32.26163617 23.6008816 -30 21 C-29.67 20.01 -29.34 19.02 -29 18 C-28.030625 17.38125 -27.06125 16.7625 -26.0625 16.125 C-22.82997617 14.33065049 -22.82997617 14.33065049 -22.125 11.4375 C-21 9 -21 9 -19.25 8.15625 C-17.81965069 7.67245538 -16.38312953 7.20657789 -14.94140625 6.7578125 C-12.7766125 6.08292409 -12.7766125 6.08292409 -11.0625 3.8125 C-8.10963065 1.2175542 -5.63363689 1.68751317 -1.828125 1.859375 C-1.22484375 1.90578125 -0.6215625 1.9521875 0 2 C0 1.34 0 0.68 0 0 Z " fill="#F2D243" transform="translate(178,20)"/>
<path d="M0 0 C3.25771465 3.25771465 2.95307821 7.7517905 3.04541016 12.17578125 C2.85558188 28.30760307 -0.40074955 42.26302353 -7 57 C-7.77358983 58.91555577 -8.54436852 60.83224893 -9.3125 62.75 C-12.19564974 69.6841576 -15.59046038 76.34768561 -19.00048828 83.03320312 C-20.68441773 86.34676825 -22.34071473 89.67403843 -24 93 C-24.66 93 -25.32 93 -26 93 C-26.2475 94.258125 -26.495 95.51625 -26.75 96.8125 C-27.43486466 99.45814155 -27.91306764 100.88966277 -29.625 103.0625 C-34.21039574 104.87252464 -38.81987814 103.27893789 -43.4375 102.1875 C-46 101 -46 101 -46.875 99.375 C-47.88509217 80.18324886 -40.49957855 66.92496909 -28 53 C-20.87414733 44.78002034 -15.62167575 35.31451155 -11.41796875 25.30078125 C-10.27249616 22.63432301 -9.06482196 20.28024853 -7.5625 17.8125 C-4.93340833 13.2135753 -3.35248652 8.45561198 -1.796875 3.40625 C-1 1 -1 1 0 0 Z " fill="#79B145" transform="translate(140,27)"/>
<path d="M0 0 C0.66 0 1.32 0 2 0 C2.04254356 1.99954746 2.04080783 4.00041636 2 6 C1.67 6.33 1.34 6.66 1 7 C1.99 7.99 2.98 8.98 4 10 C3.34 10.33 2.68 10.66 2 11 C3.37671875 11.05607422 3.37671875 11.05607422 4.78125 11.11328125 C11.78774653 11.48862928 17.60688626 12.05916768 24 15 C24 15.99 24 16.98 24 18 C18.74285714 22 18.74285714 22 16 22 C16 22.66 16 23.32 16 24 C15.34 24 14.68 24 14 24 C14 24.66 14 25.32 14 26 C8.58823529 30 8.58823529 30 6 30 C5.34 31.32 4.68 32.64 4 34 C3.34 34 2.68 34 2 34 C2 34.66 2 35.32 2 36 C0.71086513 36.67154933 -0.58140204 37.33708859 -1.875 38 C-2.59429687 38.37125 -3.31359375 38.7425 -4.0546875 39.125 C-6 40 -6 40 -8 40 C-8 40.66 -8 41.32 -8 42 C-10.97 42.495 -10.97 42.495 -14 43 C-14 43.66 -14 44.32 -14 45 C-14.66 45 -15.32 45 -16 45 C-16.0825 45.9075 -16.165 46.815 -16.25 47.75 C-17.11676995 51.50600312 -18.21054094 52.45666968 -21 55 C-22.04349839 56.63978318 -23.05607981 58.30094366 -24 60 C-27.86672705 59.73635952 -29.58013175 59.39833655 -32.4375 56.6875 C-34 54 -34 54 -33.875 51.9375 C-33 50 -33 50 -31.9375 48.1875 C-30.58700974 45.03635607 -30.75365578 42.38723309 -31 39 C-31.66 38.01 -32.32 37.02 -33 36 C-32.67 35.01 -32.34 34.02 -32 33 C-30.948125 33.495 -29.89625 33.99 -28.8125 34.5 C-24.82932401 36.19445592 -21.96678353 36.54632876 -17.75 35.375 C-15.67950533 34.04463592 -15.67950533 34.04463592 -15.3125 31 C-15.209375 30.01 -15.10625 29.02 -15 28 C-14.67 27.34 -14.34 26.68 -14 26 C-13.34 26 -12.68 26 -12 26 C-11.88140625 25.26934326 -11.7628125 24.53868652 -11.640625 23.78588867 C-10.9993449 20.99715116 -10.10108256 18.9368815 -8.75 16.42578125 C-8.3065625 15.59369141 -7.863125 14.76160156 -7.40625 13.90429688 C-6.71015625 12.62135742 -6.71015625 12.62135742 -6 11.3125 C-5.30390625 10.0121582 -5.30390625 10.0121582 -4.59375 8.68554688 C-3.73736221 7.08604351 -2.87827222 5.48798192 -2.015625 3.8918457 C-1.32460704 2.60465864 -0.65335386 1.30670772 0 0 Z " fill="#578C4C" transform="translate(128,94)"/>
<path d="M0 0 C0.78117187 0.0103125 1.56234375 0.020625 2.3671875 0.03125 C8.26142957 0.28924713 10.79712155 1.76181712 15 5.875 C15.66 6.205 16.32 6.535 17 6.875 C17 7.535 17 8.195 17 8.875 C17.66 8.875 18.32 8.875 19 8.875 C20.36639342 10.5146721 21.6949419 12.18610128 23 13.875 C23.66 14.49375 24.32 15.1125 25 15.75 C29.87467176 20.92933874 32.16654626 26.54985399 32.0625 33.625 C32.05347656 34.42421875 32.04445313 35.2234375 32.03515625 36.046875 C32.02355469 36.65015625 32.01195312 37.2534375 32 37.875 C31.67 37.875 31.34 37.875 31 37.875 C30.82984375 37.29492188 30.6596875 36.71484375 30.484375 36.1171875 C28.1406751 28.56249527 24.46498931 23.20781003 19.171875 17.390625 C18 15.875 18 15.875 18 13.875 C12.62152067 15.65537626 8.86984364 17.63824666 5.25 22.0625 C0.36117912 27.97185009 -5.58891737 31.82349926 -12 35.875 C-12.95519531 36.50148437 -13.91039062 37.12796875 -14.89453125 37.7734375 C-21.38331581 41.72797573 -26.4505547 42.66353007 -34 41.875 C-34.33 41.215 -34.66 40.555 -35 39.875 C-34.0625 37.75 -34.0625 37.75 -33 35.875 C-32.34 35.875 -31.68 35.875 -31 35.875 C-31 35.215 -31 34.555 -31 33.875 C-28.03 33.38 -28.03 33.38 -25 32.875 C-25 32.215 -25 31.555 -25 30.875 C-23.71086513 30.20345067 -22.41859796 29.53791141 -21.125 28.875 C-20.40570313 28.50375 -19.68640625 28.1325 -18.9453125 27.75 C-17 26.875 -17 26.875 -15 26.875 C-15 26.215 -15 25.555 -15 24.875 C-13.390625 23.18359375 -13.390625 23.18359375 -11.25 21.3125 C-10.55390625 20.69246094 -9.8578125 20.07242188 -9.140625 19.43359375 C-7.02017445 17.88968906 -5.56079427 17.29603149 -3 16.875 C-3 16.215 -3 15.555 -3 14.875 C-2.34 14.875 -1.68 14.875 -1 14.875 C-1 14.215 -1 13.555 -1 12.875 C4.41176471 8.875 4.41176471 8.875 7 8.875 C7 7.885 7 6.895 7 5.875 C-0.86321361 3.41774575 -8.82673527 3.2519224 -17 2.875 C-12.7299709 -1.3950291 -5.67002509 -0.2432684 0 0 Z " fill="#78AF46" transform="translate(145,103.125)"/>
<path d="M0 0 C2.44921875 0.8671875 2.44921875 0.8671875 5 2 C5.8125 4.125 5.8125 4.125 6 6 C7.98 5.67 9.96 5.34 12 5 C12.20625 5.804375 12.4125 6.60875 12.625 7.4375 C13.305625 8.7059375 13.305625 8.7059375 14 10 C17.05272465 10.89830839 17.05272465 10.89830839 20 11 C20.33 12.32 20.66 13.64 21 15 C22.65 15 24.3 15 26 15 C25.67 14.67 25.34 14.34 25 14 C24.95936168 12.33382885 24.957279 10.66611905 25 9 C27.57213134 7.38050989 28.67669159 6.95591249 31.75 7.375 C32.4925 7.58125 33.235 7.7875 34 8 C34.495 9.485 34.495 9.485 35 11 C33.71372289 12.17260611 32.42080217 13.3379283 31.125 14.5 C30.40570313 15.1496875 29.68640625 15.799375 28.9453125 16.46875 C27 18 27 18 25 18 C24.67 18.99 24.34 19.98 24 21 C21.4375 22.1875 21.4375 22.1875 19 23 C18.67 22.01 18.34 21.02 18 20 C16.7625 19.566875 16.7625 19.566875 15.5 19.125 C14.675 18.75375 13.85 18.3825 13 18 C12.1875 15.375 12.1875 15.375 12 13 C10.02 13.33 8.04 13.66 6 14 C5.67 12.35 5.34 10.7 5 9 C3.68 9 2.36 9 1 9 C0.01 12.3 -0.98 15.6 -2 19 C-3.10224332 14.59102673 -2.51921909 11.5572715 -1.5625 7.25 C-1.34110352 6.20392578 -1.34110352 6.20392578 -1.11523438 5.13671875 C-0.75131967 3.4227979 -0.37670932 1.71115419 0 0 Z " fill="#EEDD50" transform="translate(143,59)"/>
<path d="M0 0 C3 1 3 1 4 3 C4.07194869 5.88370333 4.09291708 8.74239664 4.0625 11.625 C4.05798828 12.42679688 4.05347656 13.22859375 4.04882812 14.0546875 C4.03703168 16.03649006 4.01909605 18.01825433 4 20 C3.01 20.33 2.02 20.66 1 21 C1.12375 22.299375 1.12375 22.299375 1.25 23.625 C0.94371259 27.75988007 -0.52108722 29.74642697 -3 33 C-5.5 31.75 -5.5 31.75 -8 30 C-8 28.68 -8 27.36 -8 26 C-9.65 26 -11.3 26 -13 26 C-13.25 20.375 -13.25 20.375 -11 17 C-8.375 16.8125 -8.375 16.8125 -6 17 C-5.375 19.3125 -5.375 19.3125 -5 22 C-5.66 22.99 -6.32 23.98 -7 25 C-6.01 24.34 -5.02 23.68 -4 23 C-2.68 23 -1.36 23 0 23 C0 22.34 0 21.68 0 21 C-0.99 21 -1.98 21 -3 21 C-4.36623674 18.26752652 -4.128426 16.01801098 -4 13 C-3 12 -3 12 -0.4375 11.9375 C0.366875 11.958125 1.17125 11.97875 2 12 C2 11.34 2 10.68 2 10 C0.35 9.67 -1.3 9.34 -3 9 C-3 7.02 -3 5.04 -3 3 C-2.34 3 -1.68 3 -1 3 C-0.67 2.01 -0.34 1.02 0 0 Z " fill="#F5E157" transform="translate(188,23)"/>
<path d="M0 0 C1.5625 1.4375 1.5625 1.4375 3 4 C2.87109375 6.12890625 2.87109375 6.12890625 2.5 8.5 C1.96332395 12.10316172 1.96332395 12.10316172 3.0625 15.5625 C5.75148081 17.55755028 7.73900957 17.28986582 11 17 C11 13.7 11 10.4 11 7 C11.66 6.67 12.32 6.34 13 6 C15 8 15 8 15 11 C15.66 11.33 16.32 11.66 17 12 C16.67 12.99 16.34 13.98 16 15 C15.34 15 14.68 15 14 15 C13.67 17.31 13.34 19.62 13 22 C15.97 22 18.94 22 22 22 C22.59732819 19.23735711 23 16.83967231 23 14 C24.65 13.67 26.3 13.34 28 13 C28.33 15.31 28.66 17.62 29 20 C29.66 20 30.32 20 31 20 C30.505 21.485 30.505 21.485 30 23 C27.69 23.33 25.38 23.66 23 24 C22.67 25.65 22.34 27.3 22 29 C22.66 29.33 23.32 29.66 24 30 C23 31 23 31 20.4375 31.0625 C19.633125 31.041875 18.82875 31.02125 18 31 C17.505 28.525 17.505 28.525 17 26 C15.02 26 13.04 26 11 26 C10.34 24.35 9.68 22.7 9 21 C7.02 21 5.04 21 3 21 C2.5978125 20.0409375 2.5978125 20.0409375 2.1875 19.0625 C1.11332248 16.66868314 1.11332248 16.66868314 -2 16 C-2.05384521 13.70858714 -2.09272087 11.41681812 -2.125 9.125 C-2.14820313 7.84882812 -2.17140625 6.57265625 -2.1953125 5.2578125 C-2 2 -2 2 0 0 Z " fill="#F4C73A" transform="translate(146,44)"/>
<path d="M0 0 C2.0625 0.4375 2.0625 0.4375 4 1 C4.33 2.32 4.66 3.64 5 5 C6.98 5 8.96 5 11 5 C11.3403125 6.2065625 11.3403125 6.2065625 11.6875 7.4375 C12.120625 8.283125 12.55375 9.12875 13 10 C15.54775306 10.89386164 15.54775306 10.89386164 18 11 C18 12.32 18 13.64 18 15 C17.34 15 16.68 15 16 15 C16 14.34 16 13.68 16 13 C15.01 13 14.02 13 13 13 C13 14.65 13 16.3 13 18 C12.67 18 12.34 18 12 18 C11.67 15.69 11.34 13.38 11 11 C9.824375 11.0928125 9.824375 11.0928125 8.625 11.1875 C7.325625 11.0946875 7.325625 11.0946875 6 11 C5.34 10.01 4.68 9.02 4 8 C1.41619823 7.74969023 1.41619823 7.74969023 -1 8 C-1 9.98 -1 11.96 -1 14 C0.32 14.66 1.64 15.32 3 16 C3 16.66 3 17.32 3 18 C3.66 18 4.32 18 5 18 C4.67 18.99 4.34 19.98 4 21 C2.35 20.67 0.7 20.34 -1 20 C-1.33 19.01 -1.66 18.02 -2 17 C-2.99 16.67 -3.98 16.34 -5 16 C-5 14.35 -5 12.7 -5 11 C-4.34 11 -3.68 11 -3 11 C-2.86722656 10.28972656 -2.73445312 9.57945313 -2.59765625 8.84765625 C-2.42105469 7.92855469 -2.24445313 7.00945312 -2.0625 6.0625 C-1.88847656 5.14597656 -1.71445313 4.22945313 -1.53515625 3.28515625 C-1 1 -1 1 0 0 Z " fill="#F2C538" transform="translate(144,67)"/>
<path d="M0 0 C0.61875 0.28875 1.2375 0.5775 1.875 0.875 C2.205 1.865 2.535 2.855 2.875 3.875 C4.525 3.875 6.175 3.875 7.875 3.875 C8.205 6.185 8.535 8.495 8.875 10.875 C7.555 11.865 6.235 12.855 4.875 13.875 C2.375 12.5 2.375 12.5 -0.125 10.875 C-0.125 10.215 -0.125 9.555 -0.125 8.875 C-1.445 8.545 -2.765 8.215 -4.125 7.875 C-4.8125 5.5625 -4.8125 5.5625 -5.125 2.875 C-3.58676234 0.4462037 -2.90301781 -0.17076575 0 0 Z " fill="#F6E24F" transform="translate(147.125,74.125)"/>
<path d="M0 0 C5.53846154 -0.36923077 5.53846154 -0.36923077 7.875 1.5 C8.24625 1.995 8.6175 2.49 9 3 C7.875 4.5 7.875 4.5 6 6 C2.8125 6.1875 2.8125 6.1875 0 6 C0 5.01 0 4.02 0 3 C-1.32 3 -2.64 3 -4 3 C-4 3.66 -4 4.32 -4 5 C-3.34 5 -2.68 5 -2 5 C-2 5.99 -2 6.98 -2 8 C-2.66 8 -3.32 8 -4 8 C-4 8.99 -4 9.98 -4 11 C-5.98 11 -7.96 11 -10 11 C-10.12375 10.360625 -10.2475 9.72125 -10.375 9.0625 C-10.58125 8.381875 -10.7875 7.70125 -11 7 C-11.66 6.67 -12.32 6.34 -13 6 C-11.5625 4 -11.5625 4 -9 2 C-5.97175582 1.64557555 -3.03514061 1.76652765 0 2 C0 1.34 0 0.68 0 0 Z " fill="#F4E254" transform="translate(178,20)"/>
<path d="M0 0 C0.33 0 0.66 0 1 0 C1.99 2.97 2.98 5.94 4 9 C5.32 8.67 6.64 8.34 8 8 C4.18378755 11.85917169 0.28267818 15.6120961 -3.6875 19.3125 C-4.26822266 19.86228516 -4.84894531 20.41207031 -5.44726562 20.97851562 C-9.76848797 25 -9.76848797 25 -12 25 C-11.4409112 21.75728494 -10.5867822 20.06942576 -8 18 C-7.34 18 -6.68 18 -6 18 C-6.0825 17.0925 -6.165 16.185 -6.25 15.25 C-5.93775897 11.19086661 -4.79339455 10.79339455 -2 8 C-1.06800964 5.34741206 -0.55375868 2.76879341 0 0 Z " fill="#F3F6ED" transform="translate(189,44)"/>
<path d="M0 0 C0.33 2.31 0.66 4.62 1 7 C1.66 7 2.32 7 3 7 C2.67 7.99 2.34 8.98 2 10 C-0.31 10.33 -2.62 10.66 -5 11 C-5.33 12.65 -5.66 14.3 -6 16 C-5.34 16.33 -4.68 16.66 -4 17 C-5 18 -5 18 -7.5625 18.0625 C-8.366875 18.041875 -9.17125 18.02125 -10 18 C-10.33 16.35 -10.66 14.7 -11 13 C-12.32 12.67 -13.64 12.34 -15 12 C-12.03 11.01 -9.06 10.02 -6 9 C-5.40267181 6.23735711 -5 3.83967231 -5 1 C-1.125 0 -1.125 0 0 0 Z " fill="#F2C437" transform="translate(174,57)"/>
<path d="M0 0 C-0.33 2.97 -0.66 5.94 -1 9 C-2.98 9.33 -4.96 9.66 -7 10 C-8.32 8.35 -9.64 6.7 -11 5 C-10.34 4.67 -9.68 4.34 -9 4 C-9 3.34 -9 2.68 -9 2 C-8.34 2 -7.68 2 -7 2 C-7 1.34 -7 0.68 -7 0 C-4 -1 -4 -1 0 0 Z " fill="#F8E14F" transform="translate(158,52)"/>
<path d="M0 0 C1.36125 0.37125 1.36125 0.37125 2.75 0.75 C3.13063221 3.0760857 3.46269945 5.41055264 3.75 7.75 C2.75 8.75 2.75 8.75 0.68359375 8.84765625 C-0.14011719 8.83605469 -0.96382812 8.82445313 -1.8125 8.8125 C-2.63878906 8.80347656 -3.46507812 8.79445313 -4.31640625 8.78515625 C-4.95449219 8.77355469 -5.59257812 8.76195313 -6.25 8.75 C-7 6.5 -7 6.5 -7.25 3.75 C-5.01399542 0.35127304 -4.11231748 -0.31633211 0 0 Z " fill="#F6E04F" transform="translate(165.25,58.25)"/>
<path d="M0 0 C1.625 1.6875 1.625 1.6875 3 4 C2.33228817 6.39263407 1.77902615 8.22097385 0 10 C-1.66617115 10.04063832 -3.33388095 10.042721 -5 10 C-5.33 9.01 -5.66 8.02 -6 7 C-6.66 6.67 -7.32 6.34 -8 6 C-7.67 4.68 -7.34 3.36 -7 2 C-4.69 1.34 -2.38 0.68 0 0 Z " fill="#F5E466" transform="translate(164,27)"/>
<path d="M0 0 C2.90805957 2.90805957 2.86127125 6.05884227 3 10 C2.79667626 13.68403249 2.43768535 17.33691033 2 21 C1.67 21 1.34 21 1 21 C1 18.36 1 15.72 1 13 C-0.98 13.66 -2.96 14.32 -5 15 C-3.78623966 9.67812773 -2.27376292 4.96093728 0 0 Z " fill="#82B253" transform="translate(140,27)"/>
<path d="M0 0 C1.80411967 2.75924185 2.0127245 3.88972103 1.625 7.25 C1.41875 8.1575 1.2125 9.065 1 10 C0.34 10 -0.32 10 -1 10 C-1 10.66 -1 11.32 -1 12 C-2.65 12 -4.3 12 -6 12 C-6.79953138 8.71303767 -7.09658936 7.28976808 -6 4 C-4.04402816 2.60287726 -2.04563599 1.26220093 0 0 Z " fill="#F6DF4B" transform="translate(155,34)"/>
<path d="M0 0 C1.65 0.33 3.3 0.66 5 1 C5.33 2.65 5.66 4.3 6 6 C3.64031256 8.09749995 2.45383006 8.96905704 -0.75 9.1875 C-1.4925 9.125625 -2.235 9.06375 -3 9 C-3.75 7.3125 -3.75 7.3125 -4 5 C-2.0625 2.25 -2.0625 2.25 0 0 Z " fill="#F6E251" transform="translate(169,48)"/>
<path d="M0 0 C0.66 0.33 1.32 0.66 2 1 C-1.11760087 4.6974445 -3.37047586 5.64079204 -8.125 6.3125 C-9.17945312 6.47363281 -10.23390625 6.63476562 -11.3203125 6.80078125 C-14 7 -14 7 -16 6 C-16.33 6.99 -16.66 7.98 -17 9 C-17.66 8.67 -18.32 8.34 -19 8 C-17.32828887 3.86471458 -17.32828887 3.86471458 -15 2 C-11.59859305 1.35497972 -8.35737762 1.18708419 -4.8984375 1.10546875 C-2.059928 1.20262767 -2.059928 1.20262767 0 0 Z " fill="#F3F7F0" transform="translate(124,143)"/>
<path d="M0 0 C1.98 0 3.96 0 6 0 C6 0.66 6 1.32 6 2 C6.66 2 7.32 2 8 2 C8 3.32 8 4.64 8 6 C7.34 6 6.68 6 6 6 C5.67 6.99 5.34 7.98 5 9 C4.01 9.33 3.02 9.66 2 10 C2 9.34 2 8.68 2 8 C1.34 8 0.68 8 0 8 C-1.125 2.25 -1.125 2.25 0 0 Z " fill="#F7E350" transform="translate(175,56)"/>
<path d="M0 0 C0.66 0.33 1.32 0.66 2 1 C2 1.99 2 2.98 2 4 C2.66 4 3.32 4 4 4 C4.33 5.65 4.66 7.3 5 9 C4.67 8.34 4.34 7.68 4 7 C3.34 7 2.68 7 2 7 C1.67 7.99 1.34 8.98 1 10 C2.65 10 4.3 10 6 10 C6.33 10.66 6.66 11.32 7 12 C6.34 12 5.68 12 5 12 C4.67 12.99 4.34 13.98 4 15 C4 14.34 4 13.68 4 13 C2.68 12.34 1.36 11.68 0 11 C-0.66 11.66 -1.32 12.32 -2 13 C-2 12.01 -2 11.02 -2 10 C-2.66 10 -3.32 10 -4 10 C-4.33 10.66 -4.66 11.32 -5 12 C-4.6875 10.0625 -4.6875 10.0625 -4 8 C-3.01 7.67 -2.02 7.34 -1 7 C-0.67 4.69 -0.34 2.38 0 0 Z " fill="#4C8538" transform="translate(100,135)"/>
<path d="M0 0 C5.53846154 -0.36923077 5.53846154 -0.36923077 7.875 1.5 C8.24625 1.995 8.6175 2.49 9 3 C7.875 4.5 7.875 4.5 6 6 C2.8125 6.1875 2.8125 6.1875 0 6 C0 5.01 0 4.02 0 3 C-3.3 3.33 -6.6 3.66 -10 4 C-9.67 3.34 -9.34 2.68 -9 2 C-6.03 2 -3.06 2 0 2 C0 1.34 0 0.68 0 0 Z " fill="#F3E775" transform="translate(178,20)"/>
<path d="M0 0 C0.99 0 1.98 0 3 0 C3 0.66 3 1.32 3 2 C3.66 2 4.32 2 5 2 C5 2.66 5 3.32 5 4 C3.21895282 5.60178593 1.37462722 7.13381926 -0.5 8.625 C-1.5209375 9.44226563 -2.541875 10.25953125 -3.59375 11.1015625 C-4.3878125 11.72804688 -5.181875 12.35453125 -6 13 C-6.12375 12.360625 -6.2475 11.72125 -6.375 11.0625 C-6.58125 10.381875 -6.7875 9.70125 -7 9 C-7.66 8.67 -8.32 8.34 -9 8 C-8.34 7.34 -7.68 6.68 -7 6 C-6.01 6.33 -5.02 6.66 -4 7 C-1.83284443 6.12516085 -1.83284443 6.12516085 0 5 C0 3.35 0 1.7 0 0 Z " fill="#EBC83C" transform="translate(157,80)"/>
<path d="M0 0 C0 4.08481881 -1.70119331 5.84704653 -4 9.1875 C-4.7425 10.27417969 -5.485 11.36085938 -6.25 12.48046875 C-6.8275 13.31191406 -7.405 14.14335938 -8 15 C-8.33 14.01 -8.66 13.02 -9 12 C-10.32 12.33 -11.64 12.66 -13 13 C-9.0580583 8.11950075 -4.88049925 3.9419417 0 0 Z " fill="#648D5D" transform="translate(194,54)"/>
<path d="M0 0 C2.475 0.99 2.475 0.99 5 2 C5 2.66 5 3.32 5 4 C5.66 4.33 6.32 4.66 7 5 C6.67 5.33 6.34 5.66 6 6 C6.66 6.66 7.32 7.32 8 8 C7.01 8 6.02 8 5 8 C5 10.31 5 12.62 5 15 C3.68 15.33 2.36 15.66 1 16 C1.33 15.01 1.66 14.02 2 13 C2.343491 7.66704568 2.343491 7.66704568 0 3 C0 2.01 0 1.02 0 0 Z " fill="#649258" transform="translate(95,127)"/>
<path d="M0 0 C0.33 0.66 0.66 1.32 1 2 C0.34 2 -0.32 2 -1 2 C-1.33 3.32 -1.66 4.64 -2 6 C-2.99 5.67 -3.98 5.34 -5 5 C-5.3403125 5.86625 -5.3403125 5.86625 -5.6875 6.75 C-8.62773292 11.79039928 -14.03619671 14.27477467 -19 17 C-19.33 16.01 -19.66 15.02 -20 14 C-18.71086513 13.32845067 -17.41859796 12.66291141 -16.125 12 C-15.40570313 11.62875 -14.68640625 11.2575 -13.9453125 10.875 C-12 10 -12 10 -10 10 C-10 9.34 -10 8.68 -10 8 C-8.3203125 6.30859375 -8.3203125 6.30859375 -6.125 4.4375 C-5.40570313 3.81746094 -4.68640625 3.19742188 -3.9453125 2.55859375 C-2 1 -2 1 0 0 Z " fill="#70A74A" transform="translate(140,120)"/>
<path d="M0 0 C1.5625 1.625 1.5625 1.625 3 4 C2.7586135 7.01733125 2.35358479 9.29283042 1 12 C0.01 12 -0.98 12 -2 12 C-2.05395478 10.37536158 -2.09277195 8.75021459 -2.125 7.125 C-2.14820313 6.22007813 -2.17140625 5.31515625 -2.1953125 4.3828125 C-2 2 -2 2 0 0 Z " fill="#F7E152" transform="translate(146,44)"/>
<path d="M0 0 C-0.33 1.32 -0.66 2.64 -1 4 C-0.34 4 0.32 4 1 4 C1 4.66 1 5.32 1 6 C-1.70879335 7.35439668 -4.00933268 7.06501451 -7 7 C-7 5.35 -7 3.7 -7 2 C-2.25 0 -2.25 0 0 0 Z " fill="#E5C43D" transform="translate(142,90)"/>
<path d="M0 0 C0.66 0.33 1.32 0.66 2 1 C2.85056945 4.55692677 3.16909807 6.49270578 2 10 C0.35 9.67 -1.3 9.34 -3 9 C-3 7.02 -3 5.04 -3 3 C-2.34 3 -1.68 3 -1 3 C-0.67 2.01 -0.34 1.02 0 0 Z " fill="#F5E053" transform="translate(188,23)"/>
<path d="M0 0 C0.33 0 0.66 0 1 0 C1.10808032 7.09727428 0.93854006 13.96094956 0 21 C-0.66 20.67 -1.32 20.34 -2 20 C-2.33 20.66 -2.66 21.32 -3 22 C-3.99 22 -4.98 22 -6 22 C-5 19 -5 19 -3.51171875 16.76953125 C-1.66284941 13.38232618 -1.27660408 10.50743356 -0.8125 6.6875 C-0.65394531 5.43324219 -0.49539062 4.17898437 -0.33203125 2.88671875 C-0.22246094 1.93410156 -0.11289063 0.98148437 0 0 Z " fill="#D3E3D0" transform="translate(182,122)"/>
<path d="M0 0 C0.99 0.33 1.98 0.66 3 1 C2.3125 3.4375 2.3125 3.4375 1 6 C-1.625 6.8125 -1.625 6.8125 -4 7 C-4.33 5.68 -4.66 4.36 -5 3 C-4.01 3 -3.02 3 -2 3 C-2 2.34 -2 1.68 -2 1 C-1.34 0.67 -0.68 0.34 0 0 Z " fill="#F7E54F" transform="translate(164,30)"/>
<path d="M0 0 C1.03290168 3.09870505 0.78396222 4.62008374 0.2578125 7.75 C-0.28335442 12.47291131 -0.07014933 17.25322872 0 22 C-0.66 22 -1.32 22 -2 22 C-3.60643532 15.09232811 -3.20419787 6.40839574 0 0 Z " fill="#EDF8E4" transform="translate(94,106)"/>
<path d="M0 0 C0 0.99 0 1.98 0 3 C-2.475 2.01 -2.475 2.01 -5 1 C-5 1.99 -5 2.98 -5 4 C-4.01 4 -3.02 4 -2 4 C-2 4.66 -2 5.32 -2 6 C-3.65 5.67 -5.3 5.34 -7 5 C-7 3.35 -7 1.7 -7 0 C-4.3333581 -1.33332095 -2.83319697 -0.67102033 0 0 Z " fill="#FAE351" transform="translate(163,72)"/>
<path d="M0 0 C2.625 0.375 2.625 0.375 5 1 C5.33 2.32 5.66 3.64 6 5 C8.97 5.495 8.97 5.495 12 6 C11.67 6.66 11.34 7.32 11 8 C9.02 8 7.04 8 5 8 C4.67 9.32 4.34 10.64 4 12 C3.67 8.7 3.34 5.4 3 2 C1.35 2 -0.3 2 -2 2 C-1.34 1.34 -0.68 0.68 0 0 Z " fill="#F6D746" transform="translate(151,64)"/>
<path d="M0 0 C0.66 1.32 1.32 2.64 2 4 C3.32 3.67 4.64 3.34 6 3 C4.6875 5 4.6875 5 3 7 C2.01 7 1.02 7 0 7 C0 6.34 0 5.68 0 5 C-0.99 5 -1.98 5 -3 5 C-1.125 1.125 -1.125 1.125 0 0 Z " fill="#80B54D" transform="translate(143,123)"/>
<path d="M0 0 C0.66 0.33 1.32 0.66 2 1 C1.01 2.485 1.01 2.485 0 4 C-0.16713569 6.62531524 -0.16713569 6.62531524 0 9 C-0.66 9 -1.32 9 -2 9 C-2.33 8.34 -2.66 7.68 -3 7 C-4.65 7.33 -6.3 7.66 -8 8 C-5.33333333 5.33333333 -2.66666667 2.66666667 0 0 Z " fill="#689046" transform="translate(160,84)"/>
<path d="M0 0 C0.66 0.33 1.32 0.66 2 1 C2 1.66 2 2.32 2 3 C3.65 3 5.3 3 7 3 C6.38125 3.04125 5.7625 3.0825 5.125 3.125 C4.42375 3.41375 3.7225 3.7025 3 4 C1.6954344 6.99615946 1.6954344 6.99615946 1 10 C0.34 10 -0.32 10 -1 10 C-1 9.34 -1 8.68 -1 8 C-1.99 7.67 -2.98 7.34 -4 7 C-3.01 7 -2.02 7 -1 7 C-1 6.34 -1 5.68 -1 5 C-0.34 5 0.32 5 1 5 C0.67 3.35 0.34 1.7 0 0 Z " fill="#F5D546" transform="translate(148,75)"/>
<path d="M0 0 C0.33 0.66 0.66 1.32 1 2 C1.66 2 2.32 2 3 2 C3 3.32 3 4.64 3 6 C2.34 6 1.68 6 1 6 C0.67 6.99 0.34 7.98 0 9 C-0.99 9.33 -1.98 9.66 -3 10 C-3 9.34 -3 8.68 -3 8 C-2.34 8 -1.68 8 -1 8 C-1.20625 7.236875 -1.4125 6.47375 -1.625 5.6875 C-2 3 -2 3 0 0 Z " fill="#F4E35F" transform="translate(180,56)"/>
<path d="M0 0 C2.1875 0.3125 2.1875 0.3125 4 1 C4 2.32 4 3.64 4 5 C4.33 5.66 4.66 6.32 5 7 C4.01 7.33 3.02 7.66 2 8 C1.731875 7.360625 1.46375 6.72125 1.1875 6.0625 C0.11332248 3.66868314 0.11332248 3.66868314 -3 3 C-1.75 1.4375 -1.75 1.4375 0 0 Z " fill="#EAF0E9" transform="translate(176,104)"/>
<path d="M0 0 C0.66 0 1.32 0 2 0 C2.65234375 1.765625 2.65234375 1.765625 3 4 C2.00390625 5.921875 2.00390625 5.921875 0.5625 7.75 C0.08941406 8.36359375 -0.38367188 8.9771875 -0.87109375 9.609375 C-1.24363281 10.06828125 -1.61617187 10.5271875 -2 11 C-2.66 10.67 -3.32 10.34 -4 10 C-4 9.34 -4 8.68 -4 8 C-3.34 8 -2.68 8 -2 8 C-2.33 6.68 -2.66 5.36 -3 4 C-2.01 3.34 -1.02 2.68 0 2 C0 1.34 0 0.68 0 0 Z " fill="#628F5D" transform="translate(173,79)"/>
<path d="M0 0 C2 2 2 2 2.25 5.5 C2 9 2 9 0 11 C-1 10 -1 10 -1.1328125 7.96875 C-1.13023437 7.1540625 -1.12765625 6.339375 -1.125 5.5 C-1.12757813 4.6853125 -1.13015625 3.870625 -1.1328125 3.03125 C-1 1 -1 1 0 0 Z " fill="#7CAA50" transform="translate(140,27)"/>
<path d="M0 0 C0.66 1.32 1.32 2.64 2 4 C0.68 5.65 -0.64 7.3 -2 9 C-2.99 8.67 -3.98 8.34 -5 8 C-3.62845496 5.04590299 -2.01136276 2.55991624 0 0 Z " fill="#F5F8EE" transform="translate(120,64)"/>
<path d="M0 0 C1 3 1 3 1 5 C-1 6.625 -1 6.625 -3 8 C-3 7.01 -3 6.02 -3 5 C-3.66 5 -4.32 5 -5 5 C-5.33 6.32 -5.66 7.64 -6 9 C-6.33 8.34 -6.66 7.68 -7 7 C-5.66667905 3.00003714 -3.5042173 2.16217663 0 0 Z " fill="#F4E060" transform="translate(155,34)"/>
<path d="M0 0 C0.66 0 1.32 0 2 0 C2.33 1.98 2.66 3.96 3 6 C4.65 5.67 6.3 5.34 8 5 C8 5.66 8 6.32 8 7 C2.375 9 2.375 9 -1 9 C-0.649375 8.2575 -0.29875 7.515 0.0625 6.75 C1.04509293 3.8677274 1.0326802 2.78823655 0 0 Z " fill="#F1CD3F" transform="translate(165,27)"/>
<path d="M0 0 C0.99 0.33 1.98 0.66 3 1 C1.875 3 1.875 3 0 5 C-3.1875 5.25 -3.1875 5.25 -6 5 C-6 4.01 -6 3.02 -6 2 C-4.02 2 -2.04 2 0 2 C0 1.34 0 0.68 0 0 Z " fill="#F5E04E" transform="translate(184,21)"/>
<path d="M0 0 C0.33 1.32 0.66 2.64 1 4 C-2 6 -2 6 -4.6875 5.625 C-5.450625 5.41875 -6.21375 5.2125 -7 5 C-4.87219421 2.65941363 -2.88437779 1.29299694 0 0 Z " fill="#EEF6E8" transform="translate(135,137)"/>
<path d="M0 0 C0.33 1.32 0.66 2.64 1 4 C0.67 4 0.34 4 0 4 C-0.33 5.65 -0.66 7.3 -1 9 C-1.66 9 -2.32 9 -3 9 C-3.33 9.99 -3.66 10.98 -4 12 C-4.66 11.67 -5.32 11.34 -6 11 C-5.18993474 9.35296694 -4.3768779 7.70740494 -3.5625 6.0625 C-3.11003906 5.14597656 -2.65757813 4.22945313 -2.19140625 3.28515625 C-1 1 -1 1 0 0 Z " fill="#8EB661" transform="translate(102,92)"/>
<path d="M0 0 C0.99 0 1.98 0 3 0 C3 0.66 3 1.32 3 2 C3.66 2 4.32 2 5 2 C5 2.66 5 3.32 5 4 C1.53846154 7 1.53846154 7 -1 7 C-0.67 4.69 -0.34 2.38 0 0 Z " fill="#EDD64A" transform="translate(157,80)"/>
<path d="M0 0 C0.99 0.66 1.98 1.32 3 2 C5.11280345 2.63292383 5.11280345 2.63292383 7 3 C5.35 3.33 3.7 3.66 2 4 C2 4.66 2 5.32 2 6 C1.34 6 0.68 6 0 6 C0 6.66 0 7.32 0 8 C-0.66 8 -1.32 8 -2 8 C-1.34 5.36 -0.68 2.72 0 0 Z " fill="#F0CB3D" transform="translate(149,48)"/>
<path d="M0 0 C1.61949011 2.57213134 2.04408751 3.67669159 1.625 6.75 C1.41875 7.4925 1.2125 8.235 1 9 C0.6596875 8.071875 0.6596875 8.071875 0.3125 7.125 C-1.37929835 4.38589791 -2.99244161 3.94975528 -6 3 C-5.67 2.34 -5.34 1.68 -5 1 C-2.4375 0.375 -2.4375 0.375 0 0 Z " fill="#F7D647" transform="translate(165,40)"/>
<path d="M0 0 C1.32 0 2.64 0 4 0 C4 1.32 4 2.64 4 4 C4.66 4.33 5.32 4.66 6 5 C5.67 5.99 5.34 6.98 5 8 C2.5 5.6875 2.5 5.6875 0 3 C0 2.01 0 1.02 0 0 Z " fill="#619153" transform="translate(94,145)"/>
<path d="M0 0 C0.66 0 1.32 0 2 0 C3.625 2 3.625 2 5 4 C3.35 5.65 1.7 7.3 0 9 C0 6.03 0 3.06 0 0 Z " fill="#F1F9ED" transform="translate(104,80)"/>
<path d="M0 0 C0.66 0 1.32 0 2 0 C2 0.66 2 1.32 2 2 C2.66 2 3.32 2 4 2 C4 2.99 4 3.98 4 5 C3.34 5 2.68 5 2 5 C2 5.99 2 6.98 2 8 C0.02 8 -1.96 8 -4 8 C-4 7.67 -4 7.34 -4 7 C-2.35 7 -0.7 7 1 7 C0.67 4.69 0.34 2.38 0 0 Z " fill="#F6DC48" transform="translate(172,23)"/>
<path d="M0 0 C1.32 0.33 2.64 0.66 4 1 C4.33 2.32 4.66 3.64 5 5 C4.01 5 3.02 5 2 5 C1.34 4.34 0.68 3.68 0 3 C0 2.01 0 1.02 0 0 Z " fill="#76AF3A" transform="translate(145,120)"/>
<path d="M0 0 C0.66 0 1.32 0 2 0 C2.33 0.99 2.66 1.98 3 3 C2.01 3.495 2.01 3.495 1 4 C1.33 4.99 1.66 5.98 2 7 C1.34 7.66 0.68 8.32 0 9 C-1.36623674 6.26752652 -1.128426 4.01801098 -1 1 C-0.67 0.67 -0.34 0.34 0 0 Z " fill="#F5DE4D" transform="translate(185,35)"/>
<path d="M0 0 C1.61949011 2.57213134 2.04408751 3.67669159 1.625 6.75 C1.41875 7.4925 1.2125 8.235 1 9 C0.01 8.67 -0.98 8.34 -2 8 C-1.125 1.125 -1.125 1.125 0 0 Z " fill="#F9E146" transform="translate(189,24)"/>
<path d="M0 0 C-1.5 1.5625 -1.5 1.5625 -4 3 C-6.77437543 2.96823234 -9.25286467 2.50364148 -12 2 C-12 1.67 -12 1.34 -12 1 C-10.37681021 0.63762737 -8.7513642 0.28534843 -7.125 -0.0625 C-6.22007813 -0.25972656 -5.31515625 -0.45695313 -4.3828125 -0.66015625 C-2 -1 -2 -1 0 0 Z M-6 3 C-4 4 -4 4 -4 4 Z " fill="#E3F3DA" transform="translate(126,144)"/>
<path d="M0 0 C2.475 0.495 2.475 0.495 5 1 C5.33 2.98 5.66 4.96 6 7 C1.125 2.25 1.125 2.25 0 0 Z " fill="#82B351" transform="translate(164,119)"/>
<path d="M0 0 C-0.33 1.32 -0.66 2.64 -1 4 C-0.34 4 0.32 4 1 4 C1 4.66 1 5.32 1 6 C-0.65 6 -2.3 6 -4 6 C-3.34 4.68 -2.68 3.36 -2 2 C-2.99 1.67 -3.98 1.34 -5 1 C-2 0 -2 0 0 0 Z " fill="#F5CF40" transform="translate(142,90)"/>
<path d="M0 0 C-0.33 1.32 -0.66 2.64 -1 4 C-3.475 3.01 -3.475 3.01 -6 2 C-6 1.34 -6 0.68 -6 0 C-3.50907189 -1.24546405 -2.58919267 -0.7767578 0 0 Z " fill="#F8E556" transform="translate(150,89)"/>
<path d="M0 0 C0.66 0.99 1.32 1.98 2 3 C0.71034824 4.37562854 -0.62689293 5.70766393 -2 7 C-2.66 7 -3.32 7 -4 7 C-3.43628586 3.73045798 -2.50037734 2.17424117 0 0 Z " fill="#F0F2D4" transform="translate(181,62)"/>
<path d="M0 0 C0.33 0 0.66 0 1 0 C1.66 2.64 2.32 5.28 3 8 C2.34 8 1.68 8 1 8 C0.67 8.66 0.34 9.32 0 10 C-0.66 10 -1.32 10 -2 10 C-1.34 6.7 -0.68 3.4 0 0 Z " fill="#FCF5D9" transform="translate(189,44)"/>
<path d="M0 0 C1.98 0 3.96 0 6 0 C6 0.99 6 1.98 6 3 C4.02 3 2.04 3 0 3 C0 2.01 0 1.02 0 0 Z " fill="#F1C033" transform="translate(167,45)"/>
<path d="M0 0 C1.98 0 3.96 0 6 0 C5.34 1.32 4.68 2.64 4 4 C2.68 3.34 1.36 2.68 0 2 C0 1.34 0 0.68 0 0 Z " fill="#E5DE5A" transform="translate(163,76)"/>
<path d="M0 0 C0.66 0 1.32 0 2 0 C2.33 1.98 2.66 3.96 3 6 C1.35 5.67 -0.3 5.34 -2 5 C-1.34 3.35 -0.68 1.7 0 0 Z " fill="#85B255" transform="translate(133,43)"/>
<path d="M0 0 C1.32 0.33 2.64 0.66 4 1 C2.35 2.65 0.7 4.3 -1 6 C-1 3 -1 3 0 0 Z " fill="#F9F7DE" transform="translate(152,32)"/>
</svg>
